<?xml version="1.0" encoding="UTF-8"?><svg xmlns="http://www.w3.org/2000/svg" xmlns:xlink="http://www.w3.org/1999/xlink" viewBox="0 0 175 747"><defs><style>.cls-1{fill:#d7c56e;}.cls-1,.cls-2{mix-blend-mode:multiply;}.cls-1,.cls-2,.cls-3,.cls-4,.cls-5,.cls-6,.cls-7,.cls-8,.cls-9{stroke-width:0px;}.cls-2{fill:#ded08b;}.cls-10{clip-path:url(#clippath);}.cls-3{fill:none;}.cls-11{isolation:isolate;}.cls-5{fill:#ddc23e;}.cls-6{fill:#c69e1e;}.cls-7{fill:#dac244;}.cls-8{fill:#fffcf0;}.cls-9{fill:#fff;}</style><clipPath id="clippath"><rect class="cls-3" width="175" height="747"/></clipPath></defs><g class="cls-11"><g id="Layer_2"><g id="Layer_1-2"><g class="cls-10"><rect class="cls-6" x="-204.69" y="-157.72" width="584.37" height="1062.44"/><rect class="cls-6" x="-83.39" y="29.83" width="262.6" height="556.85" transform="translate(170.3 595.2) rotate(165.74)"/><path class="cls-1" d="m-87.34,213.9c-.47.6-7.36,9.36-9.05,11.41-12.57,15.25-7.61,13.11-7.04,12.64,1.34-1.11,2.71-2.19,4.05-3.3,0,0-11.91,21.09-15.46,31.02-.5,1.42,1.04,2.42,2.15,1.34,1.99-1.96,3.64-4.28,5.35-6.5-18.96,32.56-10.59,31.54-.66,18.22.05.69.54,1.36,1.14,1.66-.41,1.85-.83,3.83,1.05,4.59-.06,1.15.49,2.17,1.47,2.73-.58,3.09,2.07,6.15,5.41,5.7-8.35,14.05-2,17.28,1.7,16.82-1.18,5.11,4.26,8.66,8.37,6.06-4.47,13.1,4.53,13.35,7.68,10.82-3.7,10.36,4.18,14.15,11.46,3.43-1.49,3.81-2.1,7.83,2.5,8.5-2.86,3.27.05,5.74,3.67,2.58,5.22,1.98,7.66-1.63,10.64-4.45-3.48,5.74-4.93,7.34-6.12,12.31-.56,3.27,1.63,6.25,4.7,6.84-7.53,10.09-3.68,18.09,4.81,6.81-5.68,8.34,5.11,15.08,10.39,8.77,15.33-21.52,7.64-10.52,41.22-54.56,38.45-46.05,66.92-82.58,70.25-87.59.84-1.26-.39-2.36-1.4-1.98-3.76,1.41-20.89,21.13-31.56,33.16,5.6-7.58,29.16-36.97,29.17-36.98,5.15-5.81-3.14-13.18-7.99-9.02-4.54,3.9-11.41,11.17-15.19,15.57,3.48-4.94,7.02-9.83,10.5-14.77.68-.97.72-2.25-.11-3.12.85-.97,1.7-1.93,2.56-2.9,1.18-1.32-.31-3.79-2.41-2.6-1.3.73-14.85,13.22-33.91,34.96,22.48-44.37,22.82-44.48,22.57-49.52-.21-4.1-4.18-6.9-8.02-5.53-2.65.95-3.36,2.49-7.99,12.93.73-1.98,1.42-3.97,2.08-5.97,1.88-4.17-1.38-8.83-5.94-8.45-4.26.36-7.1,6.07-9.22,9.81-4.01,6.79-10.04,17.45-10.18,17.68.29-.86,4.08-12.22,5.25-16.14,2.79-4.06,6.35-9.07,11.2-16.22,1.69-2.49-1.71-4.44-3.12-2.57-1.7,2.24-3.37,4.51-5.02,6.79,1.29-5.91,1.31-6.75.74-7.88,2.12-2.61,4.24-5.22,6.37-7.82,4.37-5.34-3.44-12.43-8.37-6.89-.42.48-.85.95-1.27,1.43-1.23-.99-2.93-1.35-4.46-.99.84-1.13,1.25-1.88,2-3.1,1.88-4.19-3.26-8.68-7.38-4.62-17.55,17.35-23.13,21.61-31.63,29.8-.14-.13-.29-.26-.45-.38,6.6-6.81,20.64-21.07,25.22-28.72,1.68-2.81,4.11-11.12-4.84-4.71-2.18,1.55-7.55,5.08-16.48,14.96-.35.18-.69.36-1.04.54,3.34-4.45,4.4-5.73,4.3-7.29.45-.76,3.13-4.96,3.57-5.63,1.73-2.69-1.86-4.4-3.16-2.6-.13.18-.25.35-.38.53-.85,0-1.21.4-1.91.96-.73-2.4-3.6-3.28-5.56-1.91-1.64,1.15-2.13,1.37-4.4,3.68-3.75-3-7.78,2.31-11.63,7.58-.8-.43-1.74-.29-2.42.38.12-.55.21-1.1.32-1.66.17-.91-.96-1.7-1.72-1.09-8.7,6.9-30.87,44.79-36.38,54.41ZM-10.61,301.3c16.85-28.27,9.11-17.79,28.88-39.72-16.11,23.24-23.29,32.44-28.88,39.72Zm-93.93-36.55c1.74-3.02,2.41-4.14,11.88-20.19,1.23-1.02,2.92-2.74,3.89-3.79-9.9,16.75-11.27,17.74-15.76,23.98Zm3.86-18.46c-1.91,2.78-4.75,6.98-8.49,12.04,1.64-3.36,5.66-10.66,7.5-13.96.15.72.51,1.4.99,1.91Zm14.81-29.92c3.61-6.29,4.72-6.77,16.94-23.46-13.13,19.27-7.81,12.49-16.94,23.46Zm11.84-20.06c11.43-18.67,15.61-24.23,21.15-31.37-3.92,8.12-15.73,24.08-21.15,31.37Z"/><path class="cls-2" d="m13.39,508.41c-12.21.31-12.48,15.87-2.84,18.17,3.41.81,4.05.34,20.14,2.83,16.9,3.16,49.6,10.59,55.22,11.74-7.2-.5-12.73-.49-37.26-5.54-3.57-.73-15.36-3.41-17.76-3.61-2.54-.21-3.51,3.72-.79,4.59,0,0,29.6,7.26,46.98,10.06,42.18,9.78,44.06,10.18,48.01,12.87-28.11,7.3-96.96-16.26-106.66-18.52-3.09-.72-4.17,3.41-1.38,4.39,22.64,8.01,62.92,20.41,88.41,21.53,11.76,2.96,27.93,7.99,41.63,12.23,23.95,7.41,42.17,13.03,46.23,17.47-21.2,3.4-56.82-6.94-75.03-11.95-22.86-6.24-84.62-34.5-87.41-31.96-1.1.98-.14,2.58,2.34,3.61,97.85,39.81,83.86,29.22,133.66,47.76,5.36,2,5.24,1.59,7.12,2.63-45.08,1.61-116.16-39.76-128.24-44.36-1.11-.42-1.91,1.29-.89,1.89,47.69,27.82,116.19,50.8,122.22,57.47-14.23,2.92-129.48-51.13-129.95-51.26-1.46-.41-2.14,1.55-1.02,2.18,1.63.91,49.29,23.82,63.61,29.55,50.34,23.07,61.68,25.83,63.24,28.42-2.7.71-.95,1.08-30.42-10.04-17.71-6.66-101.79-42.84-101.79-42.84-5.34-3.14-10.04,1.51-5.83,6.48-2.08-1.19-16.61-9.44-19.24-10.39-10.77-3.87-16.36,9.37-8.41,14.57,0,0,7.61,4.72,22.01,13.3-4.7,2.58-6.68,8.8-3.17,13.81,6.61,9.47,120.14,91.34,168.12,76.79,4.57-1.37,5.09-5.1,1.08-7.75-12.61-8.33-43.18-19.64-66.74-31.27,8.52,3.53,52.23,20.97,67.98,20.39,3.55-.13,5.71-.59,9.17-2.27,3.64-1.76,4.15-5.35,1.22-7.48-1.74-1.28-8.28-3.56-10.11-4.2,7.56-4.21,5.71-13.28-1.2-17.91-4.3-2.9-16.07-7.34-20.76-9.07,1.05-.46,1.2-1.24.88-1.87-2.29-4.4.7-1.62-36.23-17.5l.16.06c8.22,2.99,32.19,12.16,38.86,10.19.6-.17.93-.62.78-1.49-.56-3.29-.52-3.48-48.48-23.82,15.63,5.09,38.68,12.5,54.9,10.26,1.06-.14.8-1.89.34-2.43-1.57-1.84-3.99-2.01-7.01-3.18-4.6-1.77-18.64-6.3-19.78-6.66,10.96,2.31,34.87,6.55,45.64,3.57,2.3-.63,2.95-1.92,1.81-4.02-2.82-5.16-13.87-9.02-50.72-20.54-14.09-4.43-19.63-6.31-27.71-8.65,4.65-.38,7.77-.95,11.68-2.93,1.2-.61,1.78-1.83,1.27-3.67-.55-1.99-.93-3.97-5.08-6.09-2.9-1.46-4.96-2.21-15.35-4.53,12.36.54,9.14-7.25,6.15-9.49-8.24-6.24-94.88-31.78-103.61-31.53Zm56.21,123.13l102.9,51.37c-9.47-2.01-13.04-3.68-30.73-11.74-28.89-14.04-46.46-23.25-72.17-39.62Zm110.48,29.94c3.89,1.56,8.27,3.43,9.98,4.2-10.21.55-22.37-3.84-25.99-5.08,9.33,1.43,11.27,1.25,16.01.88Z"/><path class="cls-9" d="m174.71,690.32c.89,0,1.38,0,2.13-.11.4-.05.41-.75-.07-.75-.68-.01-1.35,0-2.03,0-.62,0-.56.87-.03.87Zm-19.29-49.3c2.23.63,3.59,1.04,5.34,1.38.63.12.85-.65.28-.89-1.49-.62-2.59-.94-5.24-1.69-.84-.24-1.14.99-.38,1.2Zm15.64,14.38c.96.2,1.92.38,2.89.53.54.08.77-.87.17-1.01-.91-.2-1.82-.39-2.73-.58-.83-.17-.92.93-.33,1.05Zm-16.55,31.58c-.56-.18-.83.67-.27.85,1.08.34,1.64.5,2.94.7.37.06.54-.57.12-.69-.93-.28-1.86-.56-2.79-.85Zm3.18-35.48c1,.26,2.02.53,3.41.78.77.14.87-.81.31-.98-1.11-.34-2.24-.64-3.36-.94-.83-.22-1.05.96-.36,1.14Zm13.2-5.18c.79.17,1.59.35,2.4.42.59.05.87-.86.19-1.11-.71-.26-1.45-.41-2.19-.57-.98-.22-1.12,1.11-.4,1.26Zm-33.89,35.73c.44.14.68-.48.32-.69-.44-.25-.36-.22-2.69-1.25-.42-.19-.9.55-.26.84,1.91.84,2.12.94,2.64,1.1Zm-8.91-51.67c1.37.46,2.74.93,4.14,1.31.6.17.94-.68.3-.94-1.34-.55-2.72-1-4.09-1.46-.69-.23-1.08.84-.34,1.09Zm1.26,11.34c1.03.32,2.05.64,3.09.91.59.16.85-.67.28-.88-1.01-.37-2.03-.7-3.06-1.02-.65-.2-.95.78-.31.98Zm35.67,48.5c1.41.15,1.9.16,2.5.1.53-.04.5-.7.03-.75-.83-.08-1.67-.15-2.5-.23-.51-.05-.68.8-.03.88Zm-18.16-41.99c.78.15,1-.73.5-1.06-1.24-.59-1.09-.44-3.89-1.41-.8-.27-1.29.98-.41,1.29,3.04,1.05,3.27,1.07,3.8,1.17Zm4.08,10.38c.77.18,1.54.35,2.31.47.66.1.92-1.04.21-1.21-.71-.17-1.42-.32-2.14-.49-.94-.22-1.1,1.06-.39,1.23Zm-8.91-23.16c.53.14.75-.59.24-.77-.69-.25-1.39-.5-2.08-.75-.53-.19-.86.66-.27.86.7.24,1.39.48,2.11.66Zm40.24,53.66c-.15.02-.31.05-.46.07-.3.05-.24.53.11.48.15-.02.31-.05.46-.07.29-.04.25-.53-.11-.48Zm-138.19-61.22c2.74,1.75,3.08,1.95,3.59,2.2.5.24.78-.37.41-.63-.74-.51-.88-.56-3.55-2.26-.46-.29-.89.4-.44.69Zm10.55,5.92c-.4-.31-1.01.34-.48.74.66.51,1.32,1.01,2.01,1.49.41.28.83-.33.51-.6-.66-.57-1.35-1.1-2.03-1.63Zm-3.28-17.09c-.47-.2-1,.63-.29.93.34.15,3.91,1.66,4.28,1.78.52.16.8-.55.38-.8-.73-.43-1.82-.81-4.37-1.9Zm-23.62-.91c.59.36,1.17.72,1.76,1.08.51.31.93-.43.47-.72-.58-.37-1.17-.73-1.75-1.09-.52-.31-.94.45-.47.73Zm35.44,23.86c-.57-.39-1.21.49-.59.91,1.07.73,1.72,1.22,2.77,1.75.54.27.85-.39.55-.65-1.07-.93-1.81-1.38-2.73-2.01Zm-24.6-16.14c.47.28.88-.38.44-.68-.76-.53-1.37-.88-2.86-1.96-.41-.3-.95.35-.46.71.93.68,1.88,1.35,2.88,1.93Zm65.64,16.46c.58.18.97-.67.3-.95-.76-.32-1.52-.65-2.28-.97-.55-.23-1.11.72-.33,1.05.76.32,1.52.63,2.31.87Zm-24.55,11.74c2.41,1.59,3.06,2.03,3.81,2.39.74.36,1.19-.54.62-.96-1.21-.89-2.49-1.68-3.74-2.5-.7-.46-1.4.6-.69,1.07Zm33.11,17.64c-.62-.33-.99.54-.51.8.59.32,1.18.63,1.77.93.6.31.95-.5.49-.76-.58-.33-1.16-.65-1.75-.96Zm33.54,14.92c-.71-.31-1.43-.56-2.16-.83-.77-.29-1.32.96-.41,1.3.72.27,1.44.54,2.18.75.33.1.69-.08.8-.42.05-.16.03-.34-.04-.49-.08-.16-.21-.24-.37-.31Zm-23.53-8.56c2.89,1.46,3.26,1.71,4.32,2.18,1.36.61,1.32-.41.98-.59.09.05-2.43-1.32-4.72-2.49-.73-.37-1.11.63-.58.89Zm14.07-22.82c.79.18.98-.85.33-1.06-.4-.13-.81-.26-1.22-.38-.77-.23-1.09.92-.36,1.13.41.12.82.22,1.24.31Zm-46.18,4.68c-.34-.21-.64.3-.32.49.81.5,1.63,1,2.45,1.48.32.18.57-.26.29-.45-.8-.52-1.61-1.02-2.42-1.52Zm-79.47-70.63c.31.14.64-.35.28-.6-.71-.5-1.11-.72-2.11-1.31-.53-.3-.91.46-.46.72,1.28.74,1.47.82,2.29,1.19Zm59.9,39.15c.26.12.51-.33.23-.48-1-.52-1.1-.56-2.97-1.43-.31-.15-.61.39-.18.58.97.45,1.95.89,2.93,1.33Zm-32.22-15.07c.64.28,1.27.55,1.94.76.4.13.67-.43.31-.66-.88-.42-.84-.38-2-.88-.4-.18-.84.53-.25.78Zm3.81-6.97c.42.18.77-.51.35-.74-.45-.24-.91-.48-1.37-.71-.63-.31-.91.53-.49.75.5.25.99.49,1.5.7Zm2.67-7.78c.55.18.9-.61.42-.89-.65-.38-1.41-.7-3.52-1.69-.8-.37-1.09.67-.59.91,2.73,1.29,3.05,1.46,3.69,1.67Zm12.02,5.28c.35.15.62-.43.28-.6-.98-.48-2.4-1.15-2.73-1.31-.53-.25-.74.45-.39.61,1.35.63,2.06.97,2.84,1.3Zm15.94,46.1c.47.26.82-.38.42-.64-.42-.28-.85-.55-1.28-.81-.49-.3-.89.42-.45.69.43.26.87.52,1.31.76Zm-15.75-36.31c.49.16.73-.55.35-.74,0,0-3.26-1.42-4.78-2.1-.46-.21-.98.6-.29.91,3.2,1.44,3.91,1.68,4.72,1.93Zm-24.65-21.39c.5.25.76-.41.4-.61-.73-.41-1.47-.81-2.21-1.21-.52-.28-.81.45-.42.65.74.4,1.48.79,2.23,1.17Zm-31.92-8.54c1.68,1.04,1.61,1,2.3,1.24.45.16.82-.48.37-.79-.75-.53.23.05-2.08-1.37-.64-.4-1.2.56-.6.93Zm20.03,11.03c.45.27.95-.33.47-.72-.5-.41-.97-.68-2.32-1.41-.69-.37-1.08.59-.56.87.87.47,2.35,1.22,2.41,1.26Zm.98,18.58c.3.2.64-.23.31-.49-1.1-.87-1.14-.84-3.5-2.61-.31-.23-.7.26-.34.53.76.57,2.74,2.05,3.53,2.57Zm11.13-11.73c.68.34,1.06-.53.56-.86-.46-.3-.81-.51-3.58-1.85-.81-.39-1.15.69-.61.95l3.64,1.76Zm-2.41,7.78c.32.14.64-.39.28-.6-.99-.59-1.35-.64-4.23-1.89-.42-.19-.85.55-.25.8,1.98.86,4.17,1.67,4.2,1.68Zm61.42,19.63c.54.15.74-.58.36-.77-.9-.46-1.86-.81-2.8-1.17-.54-.21-.99.69-.3.95.9.35,1.8.74,2.74.99Zm15.6-3.97c.76.3,1.28-.99.4-1.27-1.42-.44-2.82-.92-4.22-1.41-.72-.25-1.15.88-.36,1.15,1.4.49,2.8.98,4.18,1.53Zm-3.59,9.17c.7.18.94-.72.46-.98-.69-.37-1.22-.57-4.04-1.7-.65-.26-1.23.83-.37,1.18,3.02,1.2,3.28,1.33,3.95,1.5Zm-9.24-14.61c.35.12.59-.41.18-.58-.83-.35-1.67-.67-2.51-1-.38-.15-.67.48-.21.65.84.32,1.69.63,2.54.92Zm23.88,19.96c.63.14.78-.65.39-.84-1.32-.64-.76-.42-4.96-1.92-.72-.26-1.18.88-.37,1.17,3.85,1.37,3.86,1.35,4.94,1.59Zm-18.2,25.74c-.65-.37-1.11.56-.57.88,2.64,1.52,3.21,1.81,3.85,2.06.43.17.84-.47.37-.79-.97-.68-.81-.5-3.66-2.14Zm14.97-37.34c.67.21,1.35.42,2.02.61.76.22,1.11-.89.36-1.15-.67-.23-1.34-.44-2.01-.65-.78-.25-1.15.94-.37,1.18Zm-34.85-3.89c.37.11.7-.28.52-.62-.08-.16-.23-.2-.41-.29.59.28-4.26-1.79-4.6-1.94-.46-.2-.97.61-.28.91,3.24,1.38,3.93,1.68,4.78,1.93Zm39.79,24.25c.99.39,1.98.76,3.02,1.01.79.19,1.14-.77.55-1.16-1.12-.54-1.6-.7-3.11-1.29-.82-.32-1.51,1.04-.46,1.45Zm-53.7-30.7c.29.09.45-.34.14-.45-.36-.13-.71-.26-1.07-.38-.31-.1-.49.37-.15.49.36.12.72.23,1.08.35Zm3.78-8.38c.29.1.51-.35.16-.5-1.18-.51-2.37-.97-3.57-1.43-.35-.13-.61.44-.19.6,1.2.45,2.39.9,3.6,1.33Zm12.41,5.48c.64.24,1.19-.8.36-1.15-1.25-.51-2.52-.99-3.78-1.47-.69-.26-1.21.86-.37,1.18,1.26.48,2.53.96,3.79,1.44Zm2.43,20.5c1.24.5,2.48,1.04,3.76,1.45.68.22,1.04-.75.49-1.04-1.14-.61-2.86-1.27-3.85-1.67-.69-.28-1.32.89-.4,1.26Z"/><path class="cls-5" d="m116.96,189.66c2.91-5.97-1.19-7.27-4.09-5.47-6.03,3.72-14.6,6.02-19.77,10.88,1.96-3.33-.5-5.98-3.74-4.45-3.05,1.44-6.25,2.47-8.91,3.56-26.85,11.03-27.18,23.91-44.84,34.73-24.88,15.24-26.83,28.57-37.98,44.6-11.07,15.93-26.19,30.52-34.17,43.1-10.29,16.21-7.09,20.46-12.28,48.66-3.21,17.5-13.7,26.7-6.89,52.68,6.51,24.83,6.39,28.68,6.26,39.62-.03,3.03,1.41,5.98,5.21,2.33,2.83-2.72,17.71-15.31,24.59-35.9.23,5.01-.23,20.28,4.97,31.54,1.12,2.43,2.45,2.51,3.23,1.13-.02,3.34.17,9.52,1.15,13.23,4.82,18.43,6.66,10.77,9.55,6.95,16.77-22.31,18.47-24.44,21.75-41.96.93,3.14,2.93,7,3.82,9.69,1.27,3.84,2.05,4.7,11.48-1.17,17.41-10.84,20.66-32.54,22.64-41.73,1.49-6.92,2.49-12.04,6.79-17.36,6.57-7.89,16.21-12.42,21.26-31.94,5.42-20.83-1.08-34.41,2.66-46.35,4.26-13.54,16.89-12.81,23.59-26.53,8.37-21.31.2-32.91-2.42-49.13-.79-4.88.35-9.9-4.16-10.52,4.89-11.34,6.18-21.77,10.29-30.2ZM-2.63,281.12c-6.4,38.14-31.69,65.5-39.28,76.22,8.08-17.47,27.53-36.95,39.28-76.22Zm-40.84,77.56c6.02-28.09,25.9-48.25,37.97-72.16-14.5,41.41-28.24,49.42-37.97,72.16Zm27.47-17.76c-2.9,43.09-19.39,41.51-32.92,75.99,4.98-33.98,20.57-30.09,32.92-75.99Zm-34.11,81.24c-3.59-40.31,21.65-50.87,32.59-81.81-11.58,48.77-31.07,42.63-32.59,81.81Zm85.78,15.99c-2.69,3.07-3.86,4.04-5.33,5.33,6.81-11.78,4.49-18.13,8.32-29.37,3.1-9.05,6.49-14.4,10.29-19.14-1.46,4.69-1.74,9.22-3.46,18.89-1.5,8.4-4.42,17.64-9.81,24.3h0Zm37.97-144.11h0s-23.5,27.51-23.5,27.51c5.27-10.8,9.07-20.18,18.98-33.14,4.86-6.37,19.67-22.58,27.49-37.6-.56,2.48-9.48,26.44-22.97,43.23Zm2.72-52.49c1-4.81,1.5-15.6,7.81-28.09,9.7-19.23,24.01-22.92,28.32-25.38-4.43,5.48-12.59,12.77-21.29,24.41-7.44,9.93-10.9,21.96-14.83,29.06Zm33.96-48.97c-21.6,40.84-20.49,36.39-32.53,49.07,9.74-16.85,3.84-18.7,32.53-49.07ZM18.89,350.48c3.19-22.44,5.81-41.91,33-62.7-24.55,30.09-23.52,35.71-33,62.7Zm32.69-60.81c-13.57,31.54-14.55,36.68-31.73,61.98,6.58-21.18,9.83-35.63,31.73-61.98Zm-62.17,67.63c5.01-9.03,22.47-33.04,32.41-66.98-7.49,39.71-13.8,41.26-32.41,66.98Zm-.44-1c3.47-10.92,10.13-32.94,34.78-76.46-12.67,45.09-25.76,60.54-34.78,76.46Zm-.3-2.02c6.96-42.75,19.65-53.2,35.27-76.71-3.4,5.82-25.71,46.39-35.27,76.71Zm83.47-120.97c-.06.08-.12.16-.17.23-15.52,20.97-37.5,36.99-45.8,76.02-1.02-24.27,4.11-46.2,45.97-76.25Zm-1.85,4.31c-26.94,49.09-33.93,50.58-42.55,69.95,8.86-35.47,23.16-46.6,42.55-69.95Zm-25.69,13.01c13.66-20.16,26.71-28.15,44.22-53.43-11.16,23.47-25.61,37.32-44.22,53.43Zm44.08-55.07c-12.36,19.39-33.01,36.83-44.63,54.42,11.98-31.83,19.89-31.95,44.63-54.42Zm-44.81,52.41c5.68-36.94,28.61-45.96,44.27-53.17-13.84,12.95-33.55,22.08-44.27,53.17ZM1.32,289.56c15.91-19.9,25.06-23.5,44.25-60.22-13.53,39.93-29.79,47.21-44.25,60.22Zm.32-1.98c9.1-22.95,26.54-39.81,42.66-58.07-14.91,30.27-32.51,46.01-42.66,58.07Zm-2.17,2.98c3.63-38.74,44.22-62.31,45.7-63.4-23.76,27.3-33.66,35.12-45.7,63.4Zm31.23,13.18c7.27-14.08,25-35.26,41.41-67.38-12.76,45.77-28.14,51.54-41.41,67.38Zm24.48-18.67c-7.27,46.65-18.54,47.83-29.67,60.44,17.1-24.75,22.93-48.72,29.67-60.44Zm40.01-34.97c-4.72,9.02-10.78,17.11-16.64,24.62-16.24,20.91-15.55,17.77-29.16,46.47,15.69-53.74,32.25-55.38,45.8-71.09Zm-27.88,62.83c-1.01,1.26-13.22,17.61-16.73,24.22-8.52,16.03-9.84,23.8-11.34,32.61-.09-9.47.42-18.62,5.54-31.67,4.09-10.44,7.61-15.84,22.52-25.15Zm-26.92,62.94c6.81-24.32,15.62-28.52,22.71-45.81-1.59,8.72-2.02,15.69-9.85,26.06-1.62,2.14-7.89,9.33-12.86,19.75Zm4.41.66c4.58-9.13,3.35-6.8,12.16-18.63-7.38,24.26-17.67,31.58-20.75,51.62.39-11.39,3.48-22.81,8.58-33Zm-5.14-1.19c3.93-32.05,17.62-45.81,26.18-57.77-6.62,17.12.2,6.56-17.19,35.65-4.74,7.96-6.92,14.3-8.98,22.12Zm37.8-66.92c-13.68,35.54-3.5,57-21.59,76.15,12.88-21.41,1.59-46.74,21.59-76.15Zm-24.96,79.11c-1.63,1.32-2.77,2.28-4.31,4.02,7.2-12.54,9.24-19.45,11.99-33.14-.03,9.06-2.48,21.23-7.68,29.12Zm-15.38,22.55c1.67-9.6,5.19-17.69,9.8-26.02,9.72-17.58,12.63-29.74,12.63-29.74-2.75,26.88-17.48,41.89-22.44,55.76Zm-8.95,33.2c-.14-2.31-.34-14.61-.33-16.16.09-9.57,2.97-23.38,5.19-32.56-.69,11.61.71,17.51.09,28.64-.51,8.01-2.19,13.52-4.95,20.08Zm-.68-44.78c6.05-15.65,5.48-38.8,10.99-53.88-5.8,22.56,2.93,30.15-10.99,53.88Zm-3.55,6.35c3.16-16.49,2.39-37.51,12.58-58.76-5.59,17.3-2.38,33.88-12.58,58.76Zm-3.25,8.84c-.35-13.14-7.78-39.7,16.28-71.43-13.94,24.69-9.91,55.73-16.28,71.43Zm-.97.35s0,0,0,0c-9.67-33.15-11.86-42.97,17.72-74.31-25.34,32.62-18.56,60.72-17.72,74.31Zm-35.24-4.49c10.23-29.69,21.99-34.24,32.25-68.78-4.46,43.83-20.81,44.24-32.25,68.78Zm-.93-.04c2.47-34.54,21.89-55.49,34.26-75.43-7.91,31.61-27.53,51.33-34.26,75.43Zm-1.22-1.31c-3.45-36.2,17.73-56.98,36.14-77.48-1.53,8.56-33.39,36.43-36.14,77.48Zm43.86-136.07c-3.09,9.62-31.07,31.1-38.4,81.91-2.88-38.17,12.53-61.29,38.4-81.91Zm74.6-51.22c-5.44,7.61-10.79,10.47-12.83,12.13,8.07-9.08,14.17-22.45,21.79-35.98-1.33,5.66-2.64,15.03-8.96,23.85Zm2.68,3.81c-22.38,26.68-38.16,38.94-44.7,56.66,7.63-31.04,24.71-41.51,44.7-56.66Zm1.14,1.33c-7.73,16.16-12.87,20.75-17.03,25.07-9.61,10.03-20.99,19.57-28.61,33.19,5.24-17.83,24.71-34.11,45.76-58.55-.03.09-.08.2-.11.3Zm1.8,3.73c-2.48,12.57,2.14,21.14-3.03,38.42-3.24,10.79-11.27,21.48-18.14,27.82,7.29-9.62,8.68-14.98,11.77-30.65,2.47-12.46,4.82-23.53,9.41-35.58Zm-13.06,64.52c3.97-2.59,7.6-6.09,9.85-8.84,0,0,0,0,0,0,2.08-2.55,3.8-5.23,5.19-7.97,3.9-7.69,5.63-15.3,5.71-21.76,1.37,12.95-1.7,19-2.74,21.41-3.4,7.89-10.12,13.44-18,17.16Zm-7.33,3.13c5.09-4.14,13.05-13.51,17.14-23.47,7.84-19.07,3.19-31.1,5.01-42.51.53,14.35,7.37,24.61-1.17,44.25-6.01,13.78-17.76,19.26-20.98,21.73Zm-31.85,20.56c3.77-4.49,15.69-17.46,19.87-22.55h0c9.62-11.71,15.56-22.98,21.08-36.5-9.78,43.61-27.94,48.69-40.94,59.05Zm20.16,53.87c11.85-20.34,6.05-43.13,8.54-62.81.82,10.8,9.58,41.73-8.54,62.81Zm-8.35,6.9c14.34-17.96,7.76-44.48,15.1-67.83-1.51,21.44,4.28,51.24-15.1,67.83Zm-7.05,4.33c15.2-16.63,6.74-34.17,19.32-68.45-6.1,23.32-.15,51.01-19.32,68.45Zm-15.47,51c4.87-7.64,6.15-14.53,7.98-22.66.99-4.45,3.27-20.19,7.99-25.64-3.47,9.77-3.54,18.02-5.13,25.69-1.54,7.44-5.36,16.54-10.84,22.61Zm-13.01,10.16c7.54-6.44,11.64-10.94,16.44-29.91-.38,1.51,4.17-18.03,6.5-21.81-4.01,12.27-3.15,34.66-15.79,46.81-1.6,1.54-4.14,3.4-7.15,4.91Zm-6.98-19.85c.67-9.63,6.15-23.61,7.3-26.13-2.23,10.65-4.14,21.13-4.18,30.12-.02,6.13.07,9.6.54,15.24-3.04-5.23-3.99-13.21-3.65-19.22Zm-26.22,49.92c3.83-11.88,5.64-12.65,11.83-25.99,5.88-12.58,7.65-23.59,7.22-31.97,8.39,31.57-14.71,52.83-19.05,57.95Zm-1.62,1.75c-1.32-27.99,18-33.8,18.23-67.82,4.73,29.55-10.65,43.11-18.23,67.82Zm16.09-76.03c6.39,30.56-18.88,51.91-17.38,73.83-10.07-31.75,18.1-32.73,17.38-73.83Zm-22.21,52.17c.51-1.46,12.08-32.42,18.86-61.31,3.73,32.44-13.82,53.77-18.86,61.31Zm18.66-66.64c-1.43,9.63-7.82,32.42-19.62,66.68.61-34.26,15.68-56.63,19.62-66.68Zm.06-2.71c-9.74,21.47-20.69,41.02-20.6,68.55-6.97-24.52-3.98-43.31,20.6-68.55Zm-50.07,69.58c11.34-18.38,9.04-30.02,19.41-67.78-2.59,24.88,5.78,35.76-19.41,67.78Zm-2.8,2.54c6.26-16.12,1.23-33.41,21.48-73.39-9.63,35.08-8.25,53.49-21.48,73.39Zm19.35-72.34c-17.35,34.14-15.58,60.89-20.83,72.91.92-17.29-4.75-40.34,20.83-72.91Zm6.8-42.96c-15.3,37.05-35.51,38.14-32.46,84.14-13.26-45.09,15.26-58.61,32.46-84.14Zm14.52-59c-12.2,27.88-34.12,47.15-40.48,77.92,2.42-36.8,16.29-44.62,40.48-77.92Zm-1.69,200.76c-.05-.04-.08-.05.06.05-.02-.02-.04-.03-.06-.05Z"/><path class="cls-7" d="m125.12,505.83c2.09.08,4.17.14,6.26.18,4.54.09,9.77-6.04,13.09-8.69,10.58-8.47,23.16-13.97,35.15-20.1,15.6-7.98,30.12-18.64,45.48-27.17,8.77-4.87,29.89-12.2,33.79-22.11-21.2,7.79-43.35,12.15-63.94,21.85-15.67,7.38-27.92,19-41.64,28.93-6.51,4.71-13.05,9.93-18.89,15.75,7.61-10.01,13.21-22.38,23.68-30.2,15.07-11.25,33.4-21.08,44.72-36.72,11.74-16.22,16.74-37.47,26.26-54.92-13.2,5.61-25.5,23.74-32.59,35.81-8.34,14.19-17.39,25.98-29.13,37.59-14.1,13.95-27.77,29.01-37.14,46.24,6.34-16.16,14.75-30.38,23.31-46.42,9.65-18.08,17.03-36.99,20.65-57.21,2.3-12.85,7.11-35.07,3.52-47.48-3.93,4.94-5.18,10.72-7.6,16.41-3.13,7.34-8.27,13.52-11.26,21.09-6.34,16.07-14.38,31.31-21.28,47.26-5.77,13.33-7.84,27.76-8.97,42.14-.37,4.68-.64,9.36-1.04,14.03-.36,4.25-1.22,8.53-.86,12.81-.06-.77-1.04-1.89-1.51-2.44-3.47-5.42-1.18-17.19-2.88-24.69-1.91-8.41-6.08-16.66-10.22-24-6.94-12.3-18.2-30.54-31.78-41.18-.17,8.53-.6,13.15,1.09,24.06,1.59,10.21,4.44,18.32,8.31,27.89,4.89,12.08,15.95,17.81,22.56,27.9,3.7,5.65,7.13,11.26,10.68,16.64-14.25-7.99-30.3-14.04-45.08-20.64-12.62-5.63-26.65-4.93-38.85-10.43,4.98,6.92,13.65,11.59,19.11,18.76,7.11,9.35,14.04,13.94,26.44,15.71,10.98,1.57,22.06,2.46,33.14,3,2.47.12,4.95.24,7.42.33Z"/><path class="cls-4" d="m150.17,425.38c-1.9-.59-1.78,2.74-.28,2.57.35-.04.61-.27.77-.59.35-.69.23-1.76-.5-1.99Zm-12.62,21.53c-1.08-.19-1.91,1.94-.33,2.28,1.57.34,1.26-2.12.33-2.28Zm71.31-43.7c.61.51,1.09.17,1.31-.41.3-.79.1-2.03-.94-2.11-1.4-.12-1.09,1.91-.37,2.52Zm-100.8,43.76c-1.78-.43-1.94,3.26.54,2.15.49-.75.1-1.99-.54-2.15Zm80.43-18.68c.35-.04.61-.27.77-.59.35-.69.23-1.76-.5-1.99-1.9-.59-1.78,2.74-.28,2.57Zm36.08,15.39c-1.1-.31-1.17,1.13-.7,1.77.26.35.64.44,1,.24.04-.02.08-.05.11-.07.59-.44.32-1.72-.41-1.93Zm-135.9-16.24c-.13,1.2,1.1,2.35,2.03,1.28.48-1.63-1.43-2.69-2.03-1.28Zm46.64,42.95c.73-.4.45-1.85-.23-2.17-.76-.35-1.41.21-1.38,1,.03.69.89,1.54,1.61,1.16Zm-46.47-54.54c-.8-.16-1.19.62-1.06,1.31.06.32.23.65.53.79.37.18.84.03,1.05-.32.35-.59.16-1.65-.52-1.79Zm83.14-47.81c-1.91-.66-1.78,2.39-.29,2.39.38,0,.65-.21.81-.5.34-.63.17-1.65-.52-1.89Zm4.55,75.44c0,.82,1.17,1.32,1.97.79,1.24-2.02-1.96-2.47-1.97-.79Zm40.43,5.93c-.72-.68-1.96.51-1.06,1.39.89.87,1.56-.92,1.06-1.39Zm-20.88,6.3c.25-.71-.22-1.96-.87-2.12-.91-.22-1.2.55-.98,1.31.15.52.95,1.74,1.64,1.14.1-.08.17-.2.21-.33Zm-20.56,15.39s.05-.06.07-.09c.39-.6-.08-1.88-.83-1.91-.85-.03-1.04.94-.78,1.58.23.59,1.05.93,1.54.42Zm-43.19,28.28c.08-.88-.07-1.57-.66-1.67-1.76-.31-.83,3.11.66,1.67Zm-24.82-1.37c-1.2,0-1.2,1.88-.24,2.29,1.77.76,1.89-2.29.24-2.29Zm11.09-21.73c-.43-.32-1.08-.22-1.28.3-.11.28-.06.59.07.85.25.48,1.1.94,1.49.36.28-.41.17-1.16-.29-1.5Zm81.95-53.83c-.92-.24-1.37.56-1.16,1.38.16.63.92,1.38,1.6,1,.1-.05.18-.13.24-.22.45-.63.04-1.97-.68-2.16Zm-135.49,59.55c-.26-.72-1.74-1.79-1.99-.51-.02.12-.03.24-.02.36.01.54.6.99,1.09,1.11.23.06.45.02.62-.08.28-.16.44-.5.31-.88Zm44.51-14.68c.09-.64-.12-1.3-.75-1.38-.88-.11-1.22,1.07-1.13,1.75.05.36.22.75.59.87.69.23,1.19-.5,1.29-1.25Zm-35.4,25.59c.4-.66-.21-2.2-1.06-2.25-.92-.05-1.06.99-.83,1.67.24.74,1.28,1.46,1.85.64.02-.02.03-.05.04-.07Z"/><path class="cls-7" d="m260.71,140.87c.47-4.15-1.86-10.93-3.66-14.72,3.23,1.11,6.81,1.95,9.72.18,2.3-1.42,3.12-3.22,3.67-5.55,2.14,1.45,6.5,4.47,10.65,4.97,1.73.2,2.85-.49,2.15-2.19-.3-.76-1-1.35-1.56-1.91,0,0-6.97-6.31-10.67-9.99-.04-4.11-.1-6.7-1.2-9.98-.53-1.6-1.41-3.06-2.37-4.43.41-.25.81-.51,1.2-.78,22.32,16,38.12,13.71,39.41,11.02,1.2.36,3.35.85,4.35,1,2.83.43,4.2-1.28,5.21-3.95,4.32-11.59-4.63-20.51-14.96-29.2-9.27-7.73-9.78-8.33-14.73-13.16-9.76-10.16-11.31-15.67-16.8-23.02-5.82-7.75-13.42-10.78-26.7-16.02-6.03-2.37-10.82-4.06-20.92-9.57-5.16-6.78.05.12-31.57-44.61-7.7-10.91-8.88-11.73-13.21-16-1.18-1.17-15.05-13.69-20.35-17.03-6.14-3.87-13.53-5.4-20.44-5.47-4.63-.05-15.34,1.47-16.97,5.97-2.83-.46-5.26.05-7.67,1.33-3.19,1.73-5.76,4.61-5.48,8.25.3,3.7,7.17,7.67,13.65,15.06-3.5-.27-7.16.67-8.41,3.92-10.28-1.79-19.91,3.7-21.82,7.72-1.26-.65-2.36-1.04-3.71-1.52-1.98-.69-2.63-1.01-4.23-1.72-4.3-1.94-3.78,6.11.15,14.48-1.55-.75-3.36-1.45-5.01-1.03-2.55.63-3.13,9.05-3.15,11.59-.06,5.27,1.87,8.24,3.54,11.36,2.03,3.79,9.27,16.39,11.75,19.91,6.09,8.6,17.73,22.4,17.73,22.4,8.85,12.18,8.46,13.83,13.25,21.6,4.18,6.81,11.39,14.45,16.71,19.15,9.14,8.15,18.41,15.13,29.19,21.76,2.61,1.6,35.38,20.06,37.1,21.02,6.07,3.36,8.71,4.11,15.42,8.33,2.26,1.4,5.09,3.78,8.48,5.03,2.72.98,5.56,1.14,7.75-.71,2.41-2.04,2.08-6.74,1.12-9.97,3.02,1.22,10.19,3.36,11.91.46,3.33,2.47,3.99,2.77,6.29,4.52.97.74,1.85,1.61,2.73,2.46,1.44,1.36,2.29.72,2.47-.99Zm5.68-15.19c-2.68,1.46-5.67,1.04-9.82-.5-3.89-7.69-10.49-15.24-16.07-21.35,1.2.42,2.4.83,3.59,1.26,2.92,1.07,4.12,1.48,5.8.87.64.47,18.35,13.33,19.88,14.36-.48,2.31-1.28,4.03-3.37,5.36Zm-44.23-17.41c.09-.02.18-.04.26-.06,3.92,2.38,8.19,4.95,12.1,7.26,4.34,4.63,5.98,6.65,7.37,8.37,1.33,1.65,3.77,5.53,4.71,7.92,0,0-9.04-8.9-24.45-23.49Zm3.69-1.48c4,3.78,5.06,4.89,6.81,6.72l-.03-.02c-3.06-1.86-6.14-3.69-9.2-5.54.86-.26,1.63-.61,2.42-1.16Zm12.97,10.33c-5.56-5.87-8.74-8.8-11.65-11.43,1.97-1.98,2.89-4.34,3.58-7,2.34,1.94,4.53,3.18,7.13,4.19,5.99,6.39,12.9,14.01,17.05,21.65-4.85-1.98-11.54-4.87-16.1-7.41Zm-13.99,3.52c-1.32-1.1-2.65-2.17-4-3.23,0,0,0-.02-.01-.02-3.92-6.46-2.18-3.36-5.11-8.9.23.03,5.95,6.41,9.13,12.15Zm-40.34-12.83c-5.52-5.86-10.95-10.69-33.88-37.43,7.24,5.64,27.03,20,35.36,25.44,10.15,12.32,10.33,12.08,19.03,18.39,5.94,4.31,2.97,3.27,19.14,18.48-16.36-4.58-20.12-7.45-19.33-7.11-8.44-4.97-14.39-11.47-20.33-17.76ZM96.11,14.25c-1.1-2.87-2.11-7.26-2.27-11.2,1.28,3.65,4.01,6.79,6.59,9.49,7.59,7.95,9.35,9.01,14.96,16.46,7.35,9.76,10.06,14.15,13.86,19.17-7.82-8.44-13.42-13.01-18.45-17.13-6.27-5.11-11.78-9.28-14.7-16.79Zm.26-20.49c-.22-.19-.44-.37-.65-.56.74-1.58,1.66-3,2.75-4.32,1.89,1.95,3.92,3.76,6.04,5.46-3.57-1.44-6.82-1.23-8.13-.58Zm-3.18,5.65c-2.7-4.2-5.23-8.39-7.83-13.48,2.67,1.71,5.12,3.8,9.41,7.47-.95,2.14-1.37,4.02-1.59,6.01Zm5.85-11.21c1.4-1.57,3.76-3.5,6.41-4.66-1.02,3.48-.07,7.9,1.12,11.31-2.52-1.94-5.31-4.33-7.53-6.66Zm25.68-23.63c1.72,1.72,3.42,3.11,5.63,5.14.22.93.54,2.18.88,3.2-9.21-4.58-12.1-6.35-16.05-7.42,2-2.71,6.37-2.09,9.54-.91Zm12.82-4.01c-1,.87-1.75,2.02-2.26,3.25-.91-1.15-1.34-1.73-2.79-3.67,1.61-1.05,3.34-.45,5.06.42Zm-5.51-1.03c-4.07-5.45-11.53-15.84-10.6-21.93,2.06.46,4.54,1.67,6.36,2.7,4.31,2.57,10.97,8.34,17.97,18.22-3.98-.25-6.13.55-7.56,1.53-2.02-1.11-4.21-1.85-6.17-.52Zm20.01-19.1c3.79,3.88,7,8.87,8.9,11.6,7.32,10.51,8.77,12.66,12.06,19.06-4.15-3.38-7.51-5.66-12.53-7.9-3.32-4.5-10.38-13.83-13.46-20.42-.64-1.38-1.28-3.22-1.42-4.84,1.89.63,3.59,1.18,6.44,2.5Zm-6.22-3.36c1.62-.57,3.04.42,4.3,1.53-2.22-.89-2.41-.91-4.3-1.53Zm14.81,8.33c3.19,2.43,5.99,5.85,8.26,9.16,5.71,8.32,5.77,8.31,12.16,16.73,1.98,2.61,5.6,8.44,9.1,13.91,1.42,2.22,2.98,4.35,4.5,6.5-3.51-3.5-9.73-10.31-20.13-19.29-6.9-13.09-6.34-10.79-13.77-22.38-2.05-3.19-2.94-4.7-5.15-7.77,1.77.97,3.42,1.95,5.01,3.16Zm59.71,74.75c-1.64-.99-7.43-4.29-13.9-7.64-3.77-1.95-8.75-4.21-12.37-6.32-3.95-7.23-4.29-8.11-7.21-13.03,8.48,5.44,9.03,5.58,18.3,11.44,9.43,10.68,11.48,12.31,15.17,15.54Zm17.94,17.77c6.91,9.95,14.44,22.66,14.44,22.66,2.57,4.61,6.6,12.67,6.63,17.9-.15,2.78-2.17,3.52-4.72,3.81-1.64-1.84-3.29-3.67-4.92-5.52-4.86-5.53-9.76-11.12-14.36-16.48-3.35-4.32-6.03-7.95-10.02-12.42-7.29-8.18,1.89,2.94-16.44-20.55-3.85-4.95-10.58-13.4-14.13-19.89,21.87,12.24,31.78,13.68,43.52,30.48Zm-10.08-18.25c3.66,2.93,3.13,2.49,6.89,5.89-6.14-4.15-4.25-2.49-6.89-5.89Zm-1.69,85.41c-5.3-4.77-9.86-8.73-13.41-12.03,2.29-2.53,2.53-6.9,1.71-10.21,8.56,7.59,9.55,10.26,15.15,15.15-.57,2.45-1.57,5.34-3.45,7.08Zm-10.45-1.68c-.19-.12-3.97-2.48-4.13-2.64-.67-1.45-1.08-2.32-1.48-3.2,2.52,2.73.36.45,5.61,5.84Zm-12.74,2.94c1.54,1.03,12.17,8.56,18.15,14.05-5.3-3.44-13.35-9.84-18.15-14.05Zm-15.32-9.25c.52.33,1.05.65,1.57.98,3.01,3.26,6.27,6.93,12.17,12.84-6.02-4.41-8.35-7.31-13.74-13.82Zm-36.64-57.21c8.43,7.64,12.32,14.7,19.47,22.98,5.03,7.83,6.55,9.34,10.65,14.14,1.04,1.22,9.77,10.66,25.36,21.31,2.2,2.61,4.35,5.03,6.7,7.67.22.45.45.89.68,1.33-5.91-1.05-12.5-4.38-17.69-7.34-16.15-16.89-28.88-41.31-45.17-60.08Zm1.92,16.82c-2.54-4.26-5.23-9.08-14.83-21.91,6.22,2.67,6.45,2.71,10.21,4.09,18.89,22.69,19.09,29.59,37.01,54.01-4.86-3.63-24.92-26.56-32.39-36.19Zm25.57,30.62c-10.06-8.66-15.11-13.39-22.52-25.52,6.7,8.4,15.6,17.59,22.52,25.52ZM103.24-.34c2.69,1.15,5.27,2.46,7.86,4.07.87,1.29,4.36,6.69,7.89,10.31,9.81,10.1,11.01,10.79,17.12,18.91-.52-.22-1.04-.45-1.55-.67-1.1-1.43-4.16-5.48-10.37-12.4-6.63-7.38-13.48-13.8-20.94-20.22Zm16.31,13.88c-1.13-1.19-4.02-4.57-6.88-8.83,8.91,5.57,11.39,6.7,16.4,10.11,6.17,9.27,12.84,16.05,18.61,22.9-4.83-1.81-5.63-2.19-10.16-4.15-7.97-10.6-8.74-10.37-17.97-20.02Zm-3.66-21.82c-3.31-4.37-3.05-3.78-8.11-8.99,2.6-.6,5.58-.59,9.77,2.16,2.78,5.58,4.51,8.04,5.85,9.81,1.73,2.31,4.61,5.33,6.69,7.17h.01c-1.6,2-2.19,5.22-2.02,7.57-.72-.53-1.71-1.24-2.5-1.79-.26-.46-9.25-15.35-9.7-15.94Zm-6.99-11.06c-.17-.07-.35-.14-.52-.21,1.25-1.1,2.39-1.77,5.86-2.9.96,2.4,1.44,3.46,2.59,5.84-1.99-.7-1.4-.76-3.37-1.37-1.87-.58-.58.17-4.56-1.37Zm.52,1.02c-.75.08-1.5.23-2.24.44-.05-.05-.1-.1-.14-.15.23-.33.48-.63.75-.93.54.21,1.09.42,1.63.64Zm-2.92-.27c-.48-.5-.96-.99-1.44-1.49.64.28,1.29.56,1.94.82-.18.22-.34.44-.5.67Zm9.44-4.35h0s-.03,0,0,0c8.17,4.43,10.63,7.74,19.81,15.31,1.13,3.5,1.7,4.44,3.07,6.97-3.42-3.43-7.63-7.15-12.45-10.75-2.5-1.88-5.51-3.66-8.53-4.81-1.01-2.02-2.09-4.44-2.75-6.48.27-.08.58-.17.85-.24Zm19.44-3.82s0,0,0,0c.66-.8,1.73-1.54,2.63-2.06,1.57.89,3.91,2.42,5.51,3.68,6.56,7.22,2.63,2.88,8.84,9.47-2.79-1.8-7.72-4.69-13.15-7.43-1.32-1.27-2.48-2.38-3.83-3.65Zm1.29,2.38c-.36-.18-.72-.36-1.08-.54-.02-.18-.05-.36-.07-.55.64.6.75.71,1.14,1.08Zm-.83-11.1c.5-1.38,1.28-2.69,2.41-3.57.77.44,4.54,2.76,7.19,4.48,1,.65,1.95,1.38,2.88,2.13-2.28.21-5.25.74-7.73,1.63-.46-.27-1.15-.63-1.74-.96-.03-.04-2.66-3.29-3-3.71Zm16,3.76c.53.98,1.06,1.95,1.57,2.94-1.5-1.51-1.3-1.36-3.1-2.98.59,0,.91,0,1.53.04Zm11.89,4.08c11.55,12.97,16.28,16.34,21.64,19.85,3.41,5.5,3.9,6.8,7.43,13.24-14.56-9.25-23.93-15.98-31.44-24.85-1.87-3.13-4.47-8.12-6.71-11.97,3.16.59,6.51,2.17,9.08,3.72Zm10.17.51c1.84,3.54,3.36,6.21,5.09,9.08-1.44-1.07-3.11-2.3-8.01-5.77-2.19-2.49-5.7-6.62-9.54-11.67,4.79,2.31,7.44,4.07,12.46,8.36Zm8.55,14.65c-4.11-3.25-6.6-5.87-9.24-8.81,1.78,1.26,5.01,3.57,6.84,4.98.94,1.53,1.31,2.1,2.4,3.83Zm-.64-2.44c.43.33,8.93,7.71,13.2,11.12-2.6-1.7-8.43-5.56-10.84-7.35-.92-1.49-1.57-2.48-2.37-3.76Zm11.69,21.67c3.55,6.54,7.89,12.24,12.27,17.86,4.82,6.17,9.66,12.5,11.77,15.22-10.83-9.97-17.58-14.33-25.83-25.25-3.04-4.02-9.17-13.32-14.34-18.56,1.49,1.05,12.82,8.84,16.13,10.74Zm57.92,75.73c-1.08.02-1.04,0-1.53,0-.6-.99-2.14-3.45-2.58-4.15,1.16,1.18,1.4,1.4,4.11,4.16Zm8.63-5.09c-.26-3.43-2.89-10.01-4.54-13.31,3.51,4.93,7.09,9.58,12.17,15.47-1.85,4.56-5.22,5.45-10.27,5.74-.62-.65-1.64-1.7-2.15-2.26,4.15-.84,5.01-2.58,4.79-5.64Zm11.73-.6c.14.67.26,1.35.36,2.03-.11-.12-.43-.47-.53-.58.08-.49.13-.9.17-1.45Zm-51.3,5.57c1.2.94,2.56,1.97,5.96,4.26,0,0,2.25,2.01,4.69,4.21-.08.84-.18,1.69-.31,2.58-3.44-3.69-6.88-7.37-10.33-11.05Zm10.06,12.74c-.06.35-.12.69-.19,1.03-5.15-5.24-6.3-7.58-10.96-12.87,3.71,3.95,7.43,7.89,11.15,11.83Zm-48.64-18.75c-1.13-1.32-4.94-5.58-7.67-9.62,9.01,10.05,9.63,10.96,21.93,22.78-2.7-2.17-9.72-7.83-14.25-13.16Zm11,8.39c-2.26-2.12-4.52-4.23-6.7-6.42-5.11-5.36-13.2-14.4-15.61-17.24-3.41-5.71-3.97-7.28-8.46-16.09,0,0,11.43,13.06,25.73,28.06,4.94,8.91,7.67,11.55,14.08,19.36-2.97-1.64-6.79-5.55-9.04-7.66ZM128.95,10.09c-.32-2.48.23-5.77,1.74-7.68,6.28,5.58,4.86,4.27,9.15,8.03,3.18,4.73,7.63,11.41,11.05,16.72-13.48-8.24-13.75-10.87-21.94-17.06Zm-4.39-15.14c-1.42-1.77-3.52-4.87-5.77-9.26.76.49,3.09,2.28,4.41,3.53,3.24,3.09,6.25,6.27,9.57,10.95-.72.23-1.6.63-2.14,1.16-2.25-2.08-4-3.83-6.06-6.38ZM133.56-.03c-2.84-3.94-6.43-8.39-10.34-11.73-1.1-.94-1.38-1.28-3.57-2.87,2,.97,4.36,2.41,6.11,3.71,5.51,4.14,9.97,8.13,13.32,11.59-2.63-.86-4.39-.9-5.52-.7Zm.81-16.06c.49.49,1.92,1.93,2.36,2.4.56,2.31,1.29,4.75,2.15,7.03-.9-.72-1.81-1.44-2.72-2.16-1.16-3.85-1.3-4.69-1.8-7.27Zm28.83,5.49c2.46,3.87,4.73,7.27,12.51,22.06,0,0,0,0,0,.01-1.96-1.8-8.11-16-20.41-25.12-3.38-3.64-6.2-6.5-8.25-8.74,7.01,5.71,11.65,8.52,16.14,11.79Zm46.57,55.3c-4.54-3.86-8.25-6.21-10.09-7.42-4.36-4.67-9.22-9.35-13.39-15.94,7.48,6.28,17.23,16.08,23.48,23.36Zm5.28,6.35c5.18,6.56,10.34,13.65,13.5,21.48-8.43-8.41-4.66-4.71-17.4-17.76-2.27-4.23-3.22-6.36-5.63-10.21,4.49,3.11,6.68,5.12,9.53,6.5Zm-34.35-22.39c7.35,10.29,10.68,12.09,30.06,30.82,2.02,3.02,4.4,5.86,7.73,8.87-5.6-3.21-13.9-8.81-16.64-10.27-1.23-1.58-3.32-4.17-4.85-5.85-4.69-7.5-7.09-10.76-15.45-18.91-4.24-6.61-3.13-4.79-5.27-8.64,1.32,1.33,2.18,2.23,4.42,3.98Zm-2.73,5.15c4.93,4.65,14.52,15.05,20.07,22.46-.94-.44-1.88-.9-2.8-1.4-2.88-2.91-6.16-5.81-9.76-8.36,0,0-7.51-12.7-7.51-12.7Zm2.82,23.81c3.8,2.94,6.74,5.88,6.62,5.77,3.8,3.93,5.57,7.07,15.14,19.39,3.33,6.63,4.54,9.31,5.18,10.7-9.68-10.86-11.26-12.56-18.61-20.28-2.66-4.42-6.1-10.73-8.32-15.58Zm5.62,12.74c-8.92-9.38-11.28-11.93-21.76-23.89,6.27,3.96,12.34,8.16,14.85,10.14,2.16,4.75,4.4,9.14,6.9,13.75Zm-6.29-14.23c-2.08-4.61-1.23-2.95-3.56-8.21,8.62,8.86,16.29,17.71,22.76,29.11-8.81-11.21-9.4-13.38-19.2-20.9Zm-1.26-.96c-3.75-2.83-11.39-7.98-15.84-10.57-.89-1.02-1.78-2.03-2.68-3.04-1.73-3.31-4.47-7.91-6.17-10.62,4.33,2.33,8.8,4.6,11.92,6.11,1.4,1.49,6.17,6.45,8.94,9.3,2.86,6.45,2.26,5.3,3.83,8.83ZM146.71,1.73c1.61,2.67,1.69,2.83,2.41,3.97-1.7-1.09-3.37-2.05-4.78-2.79-.95-1.62-2.44-4.58-3.1-5.96,1.6,1.37,3.88,3.37,5.47,4.77Zm-6.62-7.43c-.79-1.99-1.52-3.96-2.3-6.86.19.21.39.42.58.62,4.53,7.58,2.66,4.34,5.9,9.66-2.15-1.77-2.93-2.41-4.19-3.42Zm36.36,36.93c-.61-1.03-1.18-1.96-1.81-2.94,8.16,7.7,7.06,6.66,9.89,10.67-2.85-2.89-4.86-4.91-8.08-7.73Zm8.08,7.73h0c-.1-.1-.1-.1,0,0Zm-9.43-.82c-8.47-6.81-9.08-10.55-20.55-22.32-3.53-3.64-6.14-6.31-9.32-11.42,1.64.92,3.54,2.14,5.09,3.22.96,1.53,2.78,4.53,5.28,7.46,3.86,4.5,7.71,7.05,14.04,11.77,1.92,3.18,4.07,8.1,5.46,11.27Zm-3.47-.01c-2.09-1.9-15.87-19.7-16.85-20.95,8.39,8.63,12.28,15.15,16.97,19.25,2.61,2.28,1.81,1.6,4.14,3.5.08.18.16.36.24.54-.77-.43-3.69-1.93-4.5-2.34Zm-20.27-18.86c-4.12-5.27-6.35-9.51-9.39-15.58,5.62,6.06,8.88,9.32,25.57,30.93-1.89-1.51-9.59-6.98-16.18-15.35Zm6.64-2.8c-2.27-2.35-4.11-4.74-5.85-7.51,10.82,8.11,12.43,10.04,16.26,15.94-4.43-3.28-7.02-5.01-10.41-8.44Zm-.44-4.59s0,0,.01.01c0,0-.02-.02-.01-.01Zm0,0c-1.39-1.09-4.97-3.82-6.76-5.05-.85-1.34-1.13-1.78-2.03-3.26,1.28,1.13,4.57,4,8.79,8.31Zm-13.67-8.2c.65,1.09,1.33,2.17,2.04,3.22-1.1-1.2-2.04-2.25-3.75-4.07.58.27,1.15.56,1.71.85Zm6.13,15.11c-3.96-3.92-1.16-1.38-9.67-8.93-2.32-3.45-5.37-7.89-6.28-9.17,2.05-.19,4.24.52,6.14,1.28,2.56,4.9,5.23,10.82,9.81,16.82Zm13.18,15.12c-2.25-1.17-5.77-2.94-10.86-5.87-2.27-3.62-8.02-12.25-10.3-15.66,8.41,7.47,12.23,11.68,21.16,21.53Zm-10.39-3.7c3.06,4.91,2.33,3.75,5.29,8.83-5.83-6.54-9.76-10.6-11.38-12.31,1.3.77,4.36,2.55,6.1,3.48Zm32.51,8.57c2.02,2.18,3.25,3.37,6.68,8.03-3.26-3.42-3.85-4.04-6.68-8.03Zm8.32,16.56c1.56,1.55,3.18,3.29,4.64,4.89-6.63-4.84-6.48-4.98-8.77-7.87,1.31,1.09,2.69,2.08,4.13,2.98Zm4.27,2.32s1.67.84,1.67.84c.87,1.3,1.48,2.25,2.3,3.51-.12-.13-3.76-4.13-3.96-4.34Zm-18.74-26.62c-15.64-14.83-8.1-11.16-32.92-31.68-2.09-3.41-5.17-8.39-5.17-8.39,5.46,5.8,7.46,7.75,25.03,23.8,10.91,9.98,6.86,6.59,13.06,16.28Zm-7.85-16.5c-.19-.46-.81-2.01-1-2.48,1.11,1.84,1.3,2.16,2.12,3.51-.33-.31-.62-.58-1.12-1.02Zm-9.44-15.55c2.28,3.05,4.19,6.1,6.04,9.13.61,1.56,1.56,3.88,2.12,5.29-32.82-28.84-24.29-22.44-33.34-30.84-.07-.38-.54-3.06-.61-3.59,5.81,3.22,7.23,4.14,11.55,6.89,5.74,5.13,5.64,4.75,14.24,13.12Zm-22.03-3.21c.75,1.7,2.57,5.29,3.23,6.5-.79-.38-1.59-.73-2.4-1.05-2.12-3.96-2.82-5-3.88-7.99,1.02.84,2.03,1.69,3.04,2.54Zm-6.64,5.03c1.12,1.57,3.46,4.97,4.9,7.09-2.33-2.01-4.68-4-6.95-6.08.5-.42.96-.71,2.05-1.01Zm10.77,24.23c1.59,1.63,4.95,4.82,15.77,17.03.17.31.33.62.5.94-2.49-1.34-4.46-2.3-8.25-3.73-8.78-7.95-16.2-16.5-20.91-23.06,3.18,2.22,8.17,5.92,12.9,8.83Zm16.92,19.2c1.22,2.34,5.55,11.09,6.76,13.21-4.32-5.5-8.16-11.11-14.14-16.75,1.91.78,3.92,1.57,7.38,3.54Zm30.17,32.14c7.26,7.65,11.45,12.52,16.07,17.59-.38,0-1.26-.15-1.66-.23-9.67-10.85-11.61-12.94-14.41-17.36Zm13.86,9.42c3.05,3.8,3.76,4.53,5.87,6.8-.75.66-1.24.93-2.08,1.2-2.21-4.91-1.28-2.89-3.79-7.99Zm-2.28-4.53c-10.03-18.12-15.77-23.97-26.26-34.71,16.49,15.89,19.07,18.5,33.36,31.87,1.93,3.86,4.42,9.68,1.86,13.22-3.07-3.11-6.16-6.87-8.96-10.38Zm1.77-19.81c18.25,12.51,20.47,14.06,26.26,18.33.22,1.2.39,2.41.49,3.63-10.63-6.65-19.28-12.51-26.76-21.96Zm27.73,22.57c-.08-1.15-.21-2.3-.39-3.45,3.51,2.59,3.63,2.7,5.83,4.28,1.28,1.17,1.75,1.74,8.41,7.3-3.73-1.62-5.4-2.85-13.85-8.14Zm9.33-1.3h0c.15.09.17.1,0,0Zm4.14,6.09c2.13.5,4.08.58,6.52.63.52,1.43.91,2.87,1.08,4.88-.53-.11-1.06-.23-1.59-.34-2.18-1.83-3.17-2.66-6.02-5.16Zm8.57-3.52c-.7-.02-2.08-.06-2.75-.08-.3-.57-.61-1.13-.94-1.68.88-.08.21.05,1.83-.12.62.63,1.24,1.25,1.86,1.88Zm-4-.14c-3.52-.23-5.82-.79-8.7-2.42,2.47.65,5.25.9,7.8.84.29.49.63,1.08.9,1.58Zm-1.6-2.76c-2.75-.14-4.58-.46-6.82-1.08-7.86-2.41-9.99-5.56-11.71-7.27-2.78-7.81-8.15-15.68-13.36-22.29,14.94,5.94,8.54,3.29,26.57,22.4,1.4,2.07,3.97,6.01,5.32,8.24Zm-34.29-33.91s-14.69-17.02-29.33-29.3c-1.29-2.21-5.34-10.4-12.79-22.49,12.49,12.14,9.45,18.87,38.53,42.98,6.34,5.28,11.08,10.06,15.14,14.67-3.44-2.17-8.04-3.42-11.55-5.86Zm-59.59-74.68c2.55,5.07,1.73,3.63,4.11,8.19-10.6-7.02-10.29-7.88-17.41-12.31,2.5-.83,5.47-1.31,7.75-1.43,2.25,1.9,3.66,3.37,5.55,5.55Zm-19.46-1.61c-.07-.89-.12-1.78-.13-2.67.36.2,1.71.97,2.09,1.19-.71.42-1.38.91-1.96,1.48Zm1.82-4.94c-.64-.36-.97-.51-1.73-.88.06-.34.12-.67.2-1.01.51.63,1.02,1.26,1.53,1.89Zm-2.72,1.85c0,1.11.07,2.22.16,3.33-1.17-1.09-2.34-2.18-3.52-3.27-.13-.59-.27-1.33-.35-1.93.87.43,3.33,1.68,3.7,1.87Zm-.08,4.26c-.17.27-.32.54-.44.83-.55-.27-1.1-.55-1.65-.82-.31-.91-.6-1.82-.84-2.75.98.91,1.96,1.82,2.94,2.74Zm.99,5.16c.16,1.05.33,2.1.5,3.14-.58-1.09-1.02-1.95-1.85-3.89.45.25.9.5,1.35.74Zm-1.84,4.47c.54,3.47,1.18,5.61,1.69,7.35-8.63-6.88-8.56-8.08-17.88-13.57,6-.99,11.67,2.05,16.19,6.22Zm3.58,51.18c3.24,4.35,9.16,12.44,12.09,17.15-7.9-10.38-10.18-13.37-13.6-17.8.5.22,1,.43,1.5.65Zm63.73,69.05c4.37,2.24,8.96,4.31,13.99,5.1,2.71,5.14,2.29,4.34,4.38,7.74-5.49-4.21-15.52-11.1-18.37-12.84Zm13.48-.06c1.17.74,1.9,1.19,4.26,2.63.63.6,1.25,1.2,1.88,1.8-.58.06-1.17.08-1.75.09-.03-.03-3.76-3.89-4.38-4.53Zm-4-4.19c-.64-.68-1.56-1.68-3.07-3.36.48.03.96.01,1.44-.05.2.22,1.5,3.12,1.63,3.4Zm20.9-2.12c.06-.31.13-.64.19-.95,1.24,1.32,2.48,2.64,3.73,3.96-1.39-.89-2.69-1.91-3.91-3.01Zm.47-2.61c.14-.89.26-1.78.36-2.67,4.1,3.76,12.68,10.43,16.74,13.5-1.52.2-3.35-.79-6.43-1.97-1.28-.5-2.58-.98-3.85-1.52-1.55-1.68-5.29-5.69-6.82-7.33Zm.46-3.6c.01-.11.02-.22.03-.34,9.1,5.84,12.1,7.72,20.78,9.06-.42,1.85-1.43,4.67-3.17,5.44-6.11-4.61-11.39-8.68-17.64-14.16Zm22.3,3.91c-.14-1.9-.51-3.56-1.03-5.09,1.93.04,3.42.06,5-.11,1.84,1.79,3.69,3.59,5.51,5.41-3.29,1.16-6.67.36-9.48-.22Zm8.71-2.48c.79.69,1.6,1.36,2.42,2.02-.13.06-.27.12-.4.18-.23-.26-1.36-1.5-2.02-2.2Zm-2.08-3.13c4.25-.87,6.97-2.15,9.27-6.43.72.83,1.46,1.66,2.2,2.47-.35,3.48-1.63,6.32-6.05,8.65-1.89-1.46-3.68-3.05-5.42-4.69Zm13.75-7.34c-.89-7.68-5.3-18.47-7.82-22.98,8.92,10.33,16.95,21.62,22.66,28.25,10.05,11.62,8,8.97,13.29,15.61-8.07-4.2-14.21-6.14-28.13-20.89Zm-7.08-13.3c.5,2.16.87,4.33.89,6.55-16.62-18.45-24.34-32.18-30.62-41.76,12.12,8.15,24.91,16.4,29.73,35.21Zm-29.09-31.26c-1.83-2.57-3.84-5.23-6.01-7.56,1.03.72,1.24.84,2.32,1.56.75,1.16,1.56,2.38,3.7,5.99Zm-57.95-53.88c-3.08-4.91-4.07-6.94-5.14-8.95,8.32,7.14,15.73,15.19,22.57,21.92,1.96,2.52.9,1.19,3.04,3.73-11.02-8.06-12.95-10.86-20.47-16.7Zm-25.78-21.49c3.99,5.07,5.06,6.34,7.36,8.95-2.5-1.34-5.26-2.44-8.07-2.88-1.86-3.14-3.26-5.24-5.25-8.02,1.79.38,3.45.95,5.93,1.94,0,0,.02,0,.03.01Zm-3.45,5.8c-.71-.03-1.16-.05-1.98-.01-1.1-.91-.38-.41-3.31-2.52-.99-.71-6.1-3.84-7.19-4.49.02-.01.02-.01,0,0h0c1.47-.81,3.68-1.51,7.39-1.13,1.31,1.88,2.94,4.36,5.09,8.16Zm-16.43-2.85c-.14.46-.25.93-.33,1.4-2.56-1.25-2.66-1.32-4.01-1.93.14-1.31.43-2.42,1.29-3.45,1.73,2.27,1.15,1.6,3.05,3.98Zm-5.11,2.23c.04.48.11.96.19,1.43-.44-.4-2.03-1.81-3.17-2.83.98.44,2.01.93,2.98,1.4Zm2.95,10.32c.1.24.2.49.31.73-.03.53-.04,1.05-.02,1.57-5.2-3.81-11.34-5.64-17.64-3.66-.3-.15-.59-.3-.88-.45-.52-2.71-.5-5.92-.15-7.98,4.13,1.42,5.92,2.94,18.39,9.79Zm-19.17-1.35c.06.19.11.38.18.57-4.01,1.55-5.17,2.59-6.27,3.72-1.3-.53-2.6-1.09-3.89-1.64-2.42-2.51-4.33-4.28-1.13-5.21,3.89-.82,7.99,1.1,11.11,2.56Zm-10.41,3.29c.55.56,2.31,2.38,2.85,2.95-.1.17-.18.3-.27.5-2.81,1.08-5.25,2.82-7.29,5.07-3.12-3.36-8.32-9.42-6.63-13.71,4.45,2.33,6.32,3.02,11.34,5.18Zm3.16,4.04c.19-.07.37-.13.56-.19,2.16,2.2,6.36,6.2,8.46,9.39.76,1.2,8.22,13.44,8.74,14.32-10.74-7.17-5.37-3.35-10.08-6.8-2.86-2.08-6.33-4.14-6.33-4.14-1.48-3.71-2.76-9.22-1.34-12.58Zm-5.22,15.73c8.48,7.3,14.65,12.91,22.24,21.27,1.08,1.21,5.2,5.64,9.69,11.48-8.08-3.55-10.99-5.25-22.78-14.4-5.67-6.2-8.68-8.85-11.25-13.17-3.76-7.23.28-5.64,2.1-5.18Zm12.21,21.88c10.11,7.61,13.23,8.93,20.7,12.15,6.39,8.27,15.63,20.48,18.62,24.31,15.86,26.74,24.41,27.92,30.47,35.21-15.29-10.42-32.41-23.29-36.58-26.84-19.07-22.96-20.59-29.28-33.2-44.83Zm100.21,99.97c6.23,4.79,11,7.06,15.73,9.56.2.25,2.59,3.13,2.69,3.43-5.37-.53-14.56-9.2-18.42-12.98Zm8.77-13.44c-1.07-.65-2.35-1.43-3.43-2.1-1.22-1.15-5.33-5.31-9.47-9.8.91-.25,1.82-.73,2.68-1.44,3.49,3.4,7.88,7.35,13,12.18-.81.53-1.99.98-2.79,1.16Zm57.03,14.27c6.34,5.36-1.22,3.13-8.76-1.8.34-1.93.38-3.84.38-5.77,2.37,2.23,5,4.7,8.38,7.57Zm-9.14-8.28c0,2.6-.04,4.27-.33,6.02-.69-.47-18.71-13.38-19.24-13.76,1.82-1.19,2.84-3.89,3.3-6,.42.06.85.11,1.27.16,5.7,4.74,4.22,3.35,15,13.58Zm-3.8-15.48c1.52,1.98,2.31,3.41,2.99,5.8h0c.6,2.39.76,4.84.8,7.3-2.07-2.07-6.49-6.53-11.69-11.03,2.62-.03,5.45-.7,7.91-2.08Zm2.97-1.95c2.83-2.24,4.73-4.99,5.28-8.49,10.96,11.05,16.37,13.93,29.8,18.88.54.2,1.08.4,1.62.6-9.59,4.64-27.44-4.55-36.7-10.99Zm-25.39-71.91c14.47,5.57,21.1,8.24,27.24,16.77,3.39,4.68,8.3,14.47,16.11,22.12,5.51,5.36,4.65,4.67,14.98,13.44,7.88,6.6,15.46,14.15,15.42,22.8,0,0,0,0,0,0-.05,1.13-.25,2.22-.54,3.32-1.5,4.94-2.72,6.71-9.63,2.73-5.56-9.6-9.09-11.71-25.51-34.15-8.5-11.6-11.17-14.69-18.62-22.95-6.29-7.02-13.63-12.62-21.43-17.78-10.7-9.58-12.36-10.64-15.74-12.92-.4-.51-.8-1.03-1.2-1.54,8.57,4.43,14.17,6.36,18.9,8.17Zm-18.66-6.22c.51.68,1.01,1.36,1.52,2.03-3.16-2.4-3.68-2.93-6.76-5.51,3.17,2.06,2.4,1.53,5.24,3.48Zm-2.16-2.93c.18.25.49.67.67.92-.24-.15-4.28-2.71-4.98-3.17,1.43.76,2.87,1.51,4.32,2.25Zm-84.85-83.55c6.53.14,13.09,1.55,18.78,4.87,5.09,3.08,12.8,9.98,19.41,15.94,6.91,6.23,10.08,10.84,14.81,17.52,26.47,37.52,30.22,43.01,30.22,43.01-11.22-6.09-18.98-14.36-28.95-29.02-5.58-8.09-7.55-11.09-11-15.2-8.5-10.14-10.11-13.22-13.84-17.7-4.12-4.93-7.97-7.51-13.51-10.19-.84-1.13-1.69-2.25-2.55-3.38-5.18-6.89-13.38-5.29-9.4,5.57,1.93,5.23,8.15,13.49,11.6,17.89-2-.76-3.55-1.32-5.7-1.71-3.66-4.99-10.74-13.01-16.36-17.22-2.8-2.09-6.96-4.3-10.19-5.03,1.66-4.12,12.27-5.39,16.69-5.35Zm-29.67,14.02c.13-2.1,1.06-4.24,4.98-6.57,2.18-1.15,4.52-1.65,6.97-1.23-1.16,6.07,7.03,17.66,10.78,22.58-.73.78-1.35,2.03-1.55,3.75-1.94-.87-4-1.87-7.13-2.51-9.47-10.73-13.95-11.87-14.05-16.02Zm3.91,21.66c-.06,1.66.24,5.72.73,7.88-3.4-1.49-6.78-2.85-10.48-2.36-2.93.4-3.86,2.16-1,5.3-5.62-2.4-7.01-3.07-9.69-4.48,1.6-3.25,10.45-8.48,20.43-6.33Zm-29.91,3.21c.34.12,2.21.97,3.62,1.49,1.92.71,2.44.75,4.58,1.83-1.78,5.05,3.35,10.98,7,14.88-1.19,1.43-2.1,2.87-2.83,4.36-4.76-4.05-7.49-6.38-10.38-8.02-4.2-8.63-4.88-15.43-2-14.54Zm151.49,167.69c.41,4.03-.69,4.8-4.08,3.95-2.74-.92-4.48-2.21-7.95-4.46-5.14-3.35-10.88-5.56-17.61-9.06,0,0-35.19-18.53-35.19-18.53-9.94-5.64-20.71-13.05-29.68-20.77-7.35-6.31-13.52-12.8-18.47-21.04-2.96-5.34-7.92-14.78-12.45-20.26-9.74-12.02-10.91-12.72-17.98-22.77-1.7-2.38-8.43-13.88-12.16-20.84-1.91-3.53-2.67-5.75-2.63-9.98.07-2.19.67-9.22,2.39-10.27,1.45-.71,4.13.57,5.55,1.33,3.57,7.24,8.18,14.55,9.1,15.83h0c-.22,4.72,1.05,10.59,2.62,14.5,2.72,6.76,8.03,11.03,14.36,16.23,17.37,14.29,24.76,24.28,35.29,36.35,22.55,25.8,35.98,38.4,37.18,39.62,0-.01-.02-.02-.03-.03,7.51,7.61,16.17,17.92,32.64,23.26,2.31.75,8.36,2.41,10.2,2.93.94.87,1.84,1.71,2.93,2.41,1.47.95,4.27,2.06,5.97,1.63Zm-1.55-10.94c-1.84-2.71-2.4-3.62-4.71-7.34-2.96-4.81-4.68-6.78-8.48-10.92.59-.03,1.18-.09,1.76-.18,4.5,4.28,9.18,8.48,13.7,12.97,4.76,4.74,9.31,9.5,12.08,11.72-1.31,2.07-11.38-3.85-14.34-6.26Zm25.63,13.75c-1.21-1.1-1.97-1.78-3.33-2.71-1.62-1.1-3.78-2.55-5.47-3.81.51-2.64-3.43-8.41-4.99-10.44-1.3-1.7-2.7-3.31-4.14-4.87,4.57,2.37,10.38,4.91,15.08,6.77,2.21,4.3,4.26,9.98,4.25,14.83-.11,1.79-.18,1.37-1.4.23Z"/><path class="cls-9" d="m78.31,207.18c-6.06-2.1-9.09,5.53-3.3,8.2,5.3,2.45,8.46-6.42,3.3-8.2Zm6.85-17.87c1.21-3-3.34-4.84-4.55-1.83-1.21,3,3.34,4.84,4.55,1.83Zm20.52,13.36c.85-2.1-2.34-3.39-3.19-1.28s2.34,3.39,3.19,1.28Zm-15.99,20.94c-.9,2.24,2.49,3.61,3.4,1.37.9-2.24-2.49-3.61-3.4-1.37Zm27.98,12.51c6.81,2.39,9.8-7.67,3.92-9.73-6.81-2.39-9.8,7.67-3.92,9.73Zm-13.09-59.98c-3.81-1.33-5.47,4.28-2.19,5.43,3.8,1.33,5.47-4.28,2.19-5.43Zm-30.07-25.52c-6.91-2.42-9.94,7.77-3.97,9.86,6.92,2.42,9.93-7.78,3.97-9.86Zm8.06-17.77c1.55-3.85-4.27-6.2-5.83-2.35-1.55,3.85,4.27,6.2,5.83,2.35Zm52.11-.03c.96-2.38-2.64-3.83-3.6-1.45-.96,2.38,2.64,3.83,3.6,1.45Zm-45.25-66.63c1.49-3.7-4.11-5.97-5.61-2.26-1.49,3.7,4.11,5.97,5.61,2.26Zm75.17,138.14c3.18-3.98-4.79-7.76-5.36-1.57-.24,2.56,2.91,4.64,5.36,1.57Zm17.02,8.66c7.08,2.48,10.16-7.96,4.07-10.1-7.07-2.48-10.17,7.95-4.07,10.1Zm15.83,31.68c-1.17-2.84-6.05-1.46-4.3,2.8,1.17,2.84,6.05,1.46,4.3-2.8ZM331.34-96.55c1.49-3.7-4.11-5.97-5.61-2.26-1.49,3.7,4.11,5.97,5.61,2.26Zm-226.18,3.23c1.07-2.67-2.97-4.3-4.04-1.63-1.07,2.67,2.97,4.3,4.04,1.63Z"/><path class="cls-8" d="m47.21,279.49c1.5-3.74-4.15-6.02-5.66-2.28-1.51,3.74,4.15,6.02,5.66,2.28Zm20.08-10.77c1.83-4.54-5.05-7.32-6.88-2.77-1.83,4.54,5.05,7.32,6.88,2.77Zm4.69,29.24c1.19-2.94-3.27-4.74-4.46-1.8-1.19,2.94,3.27,4.74,4.46,1.8Zm98.17-7.17c1.49-3.7-4.11-5.97-5.61-2.26-1.49,3.7,4.11,5.97,5.61,2.26Zm9.23,94.71c1.25-3.12-3.46-5.02-4.72-1.9-1.25,3.12,3.46,5.02,4.72,1.9ZM23.8,223.33c1.37-3.39-3.77-5.47-5.14-2.07s3.77,5.47,5.14,2.07Zm-8.27-28.78c1.63-4.05-4.5-6.52-6.13-2.47-1.63,4.05,4.5,6.52,6.13,2.47Z"/><path class="cls-9" d="m8.74,574.06c-5.22-3.73-10.28,2.73-5.5,6.93,4.38,3.85,9.94-3.76,5.5-6.93Zm11.63-15.19c2.01-2.54-1.83-5.59-3.84-3.05-2.01,2.54,1.83,5.59,3.84,3.05Zm15.89,18.63c1.41-1.78-1.28-3.92-2.69-2.14-1.41,1.78,1.28,3.92,2.69,2.14Zm-21.27,15.55c-1.5,1.89,1.36,4.17,2.87,2.28,1.5-1.89-1.36-4.17-2.87-2.28Zm23.28,19.93c5.86,4.22,11.58-4.57,6.52-8.22-5.86-4.22-11.58,4.57-6.52,8.22Zm4.46-61.23c-3.27-2.36-6.45,2.55-3.64,4.58,3.27,2.36,6.46-2.55,3.64-4.58Zm-21.6-33c-5.94-4.28-11.74,4.63-6.61,8.33,5.95,4.29,11.73-4.64,6.61-8.33Zm12.77-14.75c2.58-3.25-2.34-7.16-4.92-3.9-2.58,3.25,2.34,7.16,4.92,3.9Zm49.97,14.76c1.59-2.01-1.45-4.42-3.04-2.41-1.59,2.01,1.45,4.42,3.04,2.41Zm-24.49-76.73c2.48-3.13-2.25-6.89-4.74-3.76-2.48,3.13,2.25,6.89,4.74,3.76Zm32.89,153.79c4.18-2.92-2.4-8.8-4.69-3.03-.95,2.39,1.47,5.28,4.69,3.03Zm13.86,13.14c6.09,4.39,12.01-4.75,6.76-8.53-6.08-4.38-12.01,4.74-6.76,8.53Zm6.19,34.87c-.31-3.05-5.38-3.11-4.92,1.46.31,3.05,5.38,3.11,4.92-1.46Zm225.21-289.23c2.48-3.13-2.25-6.89-4.74-3.76-2.48,3.13,2.25,6.89,4.74,3.76Zm-217.8-61.07c1.79-2.25-1.62-4.97-3.41-2.71-1.79,2.25,1.62,4.97,3.41,2.71Z"/><path class="cls-8" d="m-41.6,634.57c2.5-3.16-2.27-6.95-4.78-3.79-2.5,3.16,2.27,6.95,4.78,3.79Zm22.31-4.63c3.04-3.84-2.76-8.45-5.81-4.61-3.04,3.84,2.76,8.45,5.81,4.61Zm-3.8,29.37c1.97-2.49-1.79-5.48-3.77-2.99-1.97,2.49,1.79,5.48,3.77,2.99Zm96.17,20.98c2.48-3.13-2.25-6.89-4.74-3.76-2.48,3.13,2.25,6.89,4.74,3.76Zm-18.02,93.44c2.09-2.63-1.9-5.8-3.99-3.16-2.09,2.63,1.9,5.8,3.99,3.16Zm-103.17-199.64c2.27-2.86-2.06-6.31-4.34-3.44-2.27,2.86,2.06,6.31,4.34,3.44Zm.23-29.94c2.71-3.42-2.46-7.53-5.18-4.11-2.71,3.42,2.46,7.53,5.18,4.11Z"/></g></g></g></g></svg>