<?xml version="1.0" encoding="utf-8"?>
<!-- Generator: Adobe Illustrator 28.0.0, SVG Export Plug-In . SVG Version: 6.00 Build 0)  -->
<svg version="1.1" id="Layer_2_00000139982435635088451470000014036708956715401610_"
	 xmlns="http://www.w3.org/2000/svg" xmlns:xlink="http://www.w3.org/1999/xlink" x="0px" y="0px" viewBox="0 0 175 747"
	 style="enable-background:new 0 0 175 747;" xml:space="preserve">
<style type="text/css">
	.st0{clip-path:url(#SVGID_00000026871367246395020190000010218651189188976058_);}
	.st1{fill:none;}
	.st2{fill:#013A27;}
	.st3{fill:#056332;}
	.st4{fill:#2A7936;}
	.st5{fill:#13482C;}
	.st6{fill:#3E8037;}
	.st7{fill:#76A255;}
	.st8{fill:#05633E;}
	.st9{fill:#FEFEFE;}
	.st10{fill:#FFFFFF;}
	.st11{fill:#FFFCF0;}
	.st12{fill:#F4DD5F;}
	.st13{fill:#CD2A0F;}
	.st14{fill:#CD360F;}
</style>
<g id="Layer_1-2">
	<g>
		<defs>
			<rect id="SVGID_1_" width="175" height="747"/>
		</defs>
		<use xlink:href="#SVGID_1_"  style="overflow:visible;"/>
		<clipPath id="SVGID_00000005953593436188006860000014083296091659732880_">
			<use xlink:href="#SVGID_1_"  style="overflow:visible;"/>
		</clipPath>
		<g style="clip-path:url(#SVGID_00000005953593436188006860000014083296091659732880_);">
			
				<rect x="-550.4" y="46.4" transform="matrix(5.585019e-03 -1 1 5.585019e-03 -473.3102 230.6044)" class="st1" width="859.4" height="613.8"/>
			<path class="st2" d="M163,587.7c-152.3-39-212.5-65.9-278.1-102.2c-37.9-36.5-33.6-32.4-78.3-83.5c-8.5-21-23.9-55.5-24.1-96.7
				c11.8-68,15.9-82.2,19.9-99c46.3-49.3,77.2-60.1,144.5-78.2c77.3,27,58.4,20.1,115.6,40.1c129.4,120.5,140.3,142.1,187.4,232.6
				c20.7,88.9,21.7,114.5-21.3,188C220.8,589,170.6,589.6,163,587.7L163,587.7z"/>
			<path class="st3" d="M177.9,587.2C177.9,587.2,177.9,587.2,177.9,587.2L177.9,587.2C177.9,587.3,177.9,587.2,177.9,587.2
				L177.9,587.2z M-130.9,160.9c-0.3,0.1-0.6,0.2-0.9,0.4C-78,301.1-68.2,361.4-18,524.2c0.5,0.2,0.9,0.5,1.3,0.7
				C-64.7,369.2-77.6,299.3-130.9,160.9z M235.2,571.7C216,540.1,176.9,395,147.4,319c62.9,106.2,85.1,174.5,96.1,232.2
				c0,1.7,0,3.5-0.1,5.2c1.6-2.9,3.2-5.8,4.7-8.8c-15.4-78.2-10.9-78.1-53.5-211c-0.5-1.5,0.7,1.5-19.2-48.5
				c-1.1-1.2-2.2-2.5-3.4-3.7c24.4,61,16.6,38.8,42.9,121.1c0.5,1.4,16.2,61.5,21.8,89.8c-12.9-43.4-4.5-22.7-27.4-99.7
				c-1.5-5.1-25.8-68-28.5-73.5c-33.2-69.2-25-55.7-40.4-72.3c13.1,23.9-3.5-10.2,38.4,77.8c20.5,53.4,33.4,82.1,54.1,173.6
				C206.6,417,174,361,145.3,312.6c-8.9-27.5-22-62-36.4-89.1c-4.1-9.7-3.6-8.3-4-9.8c-3.4-3.2-4.3-4-7.7-7.1
				c2.6,4.4,5.2,8.9,7.9,13.8c11.1,43.4,9.4,36,10.7,42.8c-13.8-23-29.9-48.7-44.8-80.2c-0.9-0.8-1.9-1.7-2.8-2.5
				c15,32.4,30.1,56.6,48.3,86.9c11.6,61.8,9.4,49.3,11.9,67.5c-7.9-18.5-23.1-54.2-40-87.9C80,221.5,69,193.8,60.9,175.4
				c-7.7-2.9-15.3-5.9-23-8.7c34.2,73.3,31.6,68.8,60.3,130.1c11.9,41.5,8,26,16.8,66.3c-16.7-53.4-57.8-150-81.7-198.1
				c-3-1.1-6-2.3-9-3.4c50.7,99.2,88.4,203.1,98.3,239.7c11.4,74,9.7,79.3,16.3,128c-12-32.1-9.7-23.2-11.3-30.6
				c-0.1-0.3-14.1-63.8-14.2-64.1C88.8,347.4,70.1,265.3-1.3,154.9c-0.3-1-0.5-2.1-0.8-3.1c-0.4-0.1-4.1-1.5-4.2-1.5
				c1.5,2.3,3,4.6,4.5,6.9c7.6,30.3,3.1,11,15.4,66.3c-17.6-37.1,9.3,24.7-33.2-78c-0.5-0.2-1-0.4-1.5-0.5
				C2.4,201.7-0.8,194,0.7,198c-27.7-54.4-21.7-43-29-55.7c-4-1.4-8-2.9-12-4.3C-3.2,201.9,33,313.6,42.8,356.9
				C13.7,303.4-56.9,201.6-57.6,200.5c-4.7-17.9-1.5-6.5-16-55.5c-0.5,0.1-1,0.2-1.5,0.3c15.1,51,11.4,38.1,14.9,51.3
				c-8.1-11.9-27.3-40.1-32.2-47.3c-0.4,0.1-0.7,0.2-1.1,0.3c1.9,2.8,32,47,34.1,50C-32.2,302.9-33.3,301.5-0.6,444
				c-20.1-55-32.1-87.7-51.4-140.4c-4.2-11.6-34-82.6-35.4-85.4c-4.4-8.8-16.5-61.3-17.5-65.7c-0.5,0.1-1,0.3-1.5,0.4
				c2.8,12.2,0,0.5,13.2,53.5c-0.6-1.3-24.2-48.7-24.8-49.9c-0.3,0.1-0.7,0.2-1,0.3l27,54.3c15.7,63.5,49.7,184.9,82.1,317.3
				c0.5,0.3,1.1,0.6,1.6,0.8c-35.7-146.2-62.8-240.6-80.5-311.5c1.8,3.5,31.5,75,33.2,78.9l0,0C14.1,486.9-7.3,421.5,23,541.6
				c0.6,0.2,1.2,0.4,1.8,0.6c-16.7-65.9-12.9-50.4-19.3-78.3c2.5,6.8,32.6,81.5,33.1,82.8c0.5,0.2,0.9,0.3,1.3,0.5
				c-0.9-2.1-26.6-66.1-31.8-79c-12.2-32.9-18.9-89.5-65-264.6c12.4,18.3,73.7,107.1,100.4,156.8c19.3,85.1,7.7,37.7,30.2,127.3
				c5,39.7,6.2,46.4,7.5,74c0.5,0.1,0.9,0.3,1.4,0.4c-1.3-28.3-2.7-36.1-6.2-63.7c1.3,5.2,19.8,66.5,20.3,68
				c0.4,0.1,0.8,0.2,1.2,0.3c-0.5-1.5-18.2-59.1-22.5-76.5c-6.1-48.8-2.8-28.4-16.1-96.2c21.2,56.8,46.8,121.6,80,177.7
				c0.1,0.7,0.6,6,0.6,6.8c0.2,0,9.7,2.7,10,2.8c-0.2-0.2-0.3-0.5-0.5-0.7l-2.5-13.2l5.6,14.8c4.5,1.3,4.4,1.2,7.9,2.3
				c-5.3-26.3-8.2-48.9-11.8-83.6c7.9,28.3,15.9,59.6,26.6,86.6c0.9,0,2,0,2.6,0c-10.6-27.3-22.3-71.1-29.3-99.4
				c-4.7-19.1-8.2-74.8-13.2-111.6c21.7,45.9,35.2,61.6,45.3,211c0.6,0,1.1,0,1.7,0c-3.3-50.5-7.8-108.6-21.7-157.5
				c0,0,19.5,41.2,19.5,41.2c5,33.6,11.3,67.8,8.6,116.3c0.6,0,1.2,0,1.7,0c2.4-49.4-4.7-90.5-7.8-111c1,0.6,27.9,61.9,46,106.9
				C231,579.3,234.8,572.5,235.2,571.7L235.2,571.7z M64.5,399.5c32.7,61.2,59.7,125.2,70.2,156.4
				C106.8,506.9,83.4,450.4,64.5,399.5z M45.3,363.5c10.9,20.5,8.8,16.1,11.2,22.5c15.1,77.5,11.5,56,16.2,93.4
				C56,412.8,63.5,444.9,45.3,363.5L45.3,363.5z M39.6,337.9c13.1,38.4,9.1,27.1,12.7,36.8c-0.1-0.1-7.7-14.5-7.8-14.6
				C41.7,347.7,41,344.3,39.6,337.9L39.6,337.9z M24.2,266.2c7,15.8,27.4,94.6,29,102.8C32.2,312.5,33.7,310.2,24.2,266.2z
				 M22.1,261.6c3.4,15.3,6.7,30.6,10,45.9c-3.5-10.1-22.8-66.1-38.5-105.9C9.9,233.4,3.7,220.5,22.1,261.6L22.1,261.6z
				 M124.6,492.9C-24.1,113,36.6,305.4,0,159.9C70,269.1,88.9,353.6,110.8,431.5C112.1,436.3,109.9,426.4,124.6,492.9L124.6,492.9z
				 M137.5,560.8c-0.2-0.3-0.3-0.5-0.5-0.8c-27.5-81.4-71.6-158-78-175.1c-1-2.8-2.1-5.5-3.1-8.3C52.4,358.3,56,373,31.6,283
				c27.6,61.9,81.1,196.3,100,244.7C136.2,553.6,137.4,560.8,137.5,560.8L137.5,560.8z M142.1,554.5c0.5,3.5,0.4,2.7,3.8,20.3
				c-2.2-3.5-4-6.5-6.4-10.5c-0.3-1.6-3.9-22.4-5.1-29.6C137,541.3,139.5,547.9,142.1,554.5L142.1,554.5z M131.7,435
				c26.2,96.2,11.2,67.8,27.2,148.5c-0.1-0.3-0.3-0.6-0.4-0.9c0,0-5.9-16.7-15.4-41.8C139.1,508.8,131.7,435,131.7,435L131.7,435z
				 M125.4,331.6c-35.9-77-31-66.7-34-75.6C92.9,258.8,106.2,286.3,125.4,331.6z M133.5,372.2c3.4,24.9,1,6,10.4,96.8
				c-6.5-26.9-3.8-15.7-16.7-64.8c-3.5-25.5-14.7-75.7-15.2-77.6C119.1,341.8,126.3,357,133.5,372.2L133.5,372.2z M139.8,303.4
				c-6.7-11.3-5.5-9.3-22-36.8c-2.2-12,0-2.5-9.9-41C116.3,241.5,139.3,302,139.8,303.4L139.8,303.4z M174.8,436.8
				c-57.8-123.5-28.5-60.6-44.3-97.3c-3.4-24.9-0.7-9.5-11.9-68.8c10.9,18.2,14.9,24.8,24.4,40.8c0.2,0.6,0.4,1.1,0.7,1.7
				C157.7,357,160.8,374.3,174.8,436.8L174.8,436.8z M211.6,518.3c-21-48-16.9-38.7-33.8-74.9c-0.3-2.3-12.5-59.9-24.5-104.1
				C176.3,406,211.2,516.9,211.6,518.3L211.6,518.3z"/>
			<path class="st3" d="M-116.8,270.7c-10.1-10.3-22.7-20.9-30.8-27.5c-33.9,20.5-90.4,51.1-92.4,52.2
				c-83.9,60.3-146.7,110.5-201.4,219.6c-31.6,117.8-27.5,126.5-31.1,178.7c33.5,17.2,53.9,25,73.6,31.7
				c57.4,3.2,120.6,13.2,219.6-21.2c26.2-16.9,36.1-22.6,61.7-43.6C-92.1,551.7-66.9,369.3-116.8,270.7L-116.8,270.7z"/>
			<path class="st2" d="M-90,382.9c-137.5,111.3-211.8,192.2-335.2,328.4c0.2,0.1,1.7,0.7,1.7,0.7
				c138.1-152.5,206.6-224.2,333.6-326.9C-90,384-90,383.6-90,382.9z M-328.5,362.5c-1,0.7-2,1.4-3.1,2.1
				c-42.5,48.3-26.4,29-67.9,81.7c-1.3,2.2-2.6,4.3-3.9,6.4C-356.5,393.2-373.6,413.7-328.5,362.5L-328.5,362.5z M-369.1,614
				c119-108.2,177.8-156.4,278.9-233.2c0-0.3-0.1-0.6-0.1-1c-87.9,66.7-125.8,96.1-250.7,207.3c84.9-81.2,190.4-169.8,249.9-215.5
				c0-0.3-0.1-0.6-0.1-0.9c-130.9,100.5-240.6,207.8-300.5,262.1c23.9-26,102.6-111.1,138.3-146.1c41.1-32.8,62.6-51.1,161.6-121.4
				c-0.1-0.8-0.2-1.7-0.3-2.5c-98.4,70-109.5,79.8-146.2,109.2c79.9-78,99.2-91.8,143.6-127.9c-0.2-1.5-0.2-1.4-0.4-2.4
				c-98.1,74.1-218.9,176.8-303.2,252.7c-1.1,1-2.1,1.9-3.2,2.9c19.1-19.5,9-9.5,42.9-42.3c78.3-75.5,173.4-154.5,262.6-217.5
				c0-0.2-0.1-0.5-0.2-0.7C-205.3,416.1-299,492.2-408.4,603.8c-32.9,29.7-58.2,54.2-59.7,55.7c0,0.6,0,1.1-0.1,1.7
				c4.1-4.1,36.4-34.7,46.1-43.4c-11.6,11.9-41.4,43.7-46.3,48.8c0,0.3,0,0.6,0,0.9c40.6-43.4,43.9-46.4,53.2-56
				c94.3-84.7,215.6-188.7,316.1-264.3c-40.7,33.2-58.4,45.3-143,127.9c-85.1,68-135,115.9-226.3,214.1c0,0.9,0,1.8,0,2.7
				c61.4-66,129.2-136.5,211.1-201.9c-90.7,89.6-82.4,95.8-204.6,206.3c0.5,0.2,0.9,0.4,1.4,0.6c29.7-27,39.8-36,55.5-50.3
				c-11.2,12.3-36.8,40.3-48.1,53.4c0.2,0.1,0.3,0.2,0.5,0.2c11-12.6,35-39.2,51.9-57.5c7.6-6.9,15.2-13.8,22.8-20.8
				c-10.1,10.3-53.1,53-73.7,78.7c0.2,0.1,0.4,0.2,0.6,0.2C-423.3,667.7-374.6,619.2-369.1,614L-369.1,614z M-97.2,332
				c-0.2-1-0.5-2-0.7-3C-243.4,431.2-325.1,507.3-444.7,628c12.3-15.9,30.6-40.1,68.2-83.8C-274.1,443-182.4,373.8-102,314
				c-0.4-1.2-0.7-2.5-1.1-3.7c-122,90.8-156.3,120.7-250.1,206.7c38.7-43.1,73.3-75.9,80.5-83c48.7-41.9,35-30.4,60.3-50.6
				c0.9-0.7,67.5-54.5,106.9-81c-0.7-2.3-1.3-3.9-1.6-4.9c-37.6,27.4-20.2,14.5-81.4,60.5c47.5-39.2,68.9-55.9,79.9-65
				c-1-2.9-2.1-5.8-3.1-8.7c-26.4,19-65,48.9-78.4,59.9c-52,39.5-33.8,25.2-77.4,60.9c35.4-32,18-16.9,74.6-64.2
				c15-11.7,5.5-4.4,79.7-60.7l-1.2-3.2c-10.6,8.3-120.7,95-120.9,95.1c33.4-29.1,83.2-72,120.1-97.1l-0.5-1.2
				c-39.9,27.2-120.6,97-140.5,115.3c-0.5,0.4-0.9,0.8-1.4,1.1c11.6-12.1,3.9-4.4,38.3-38.1c40.5-37.7,63.2-56.7,96.7-86.8
				c-0.1-0.1-0.3-0.3-0.4-0.4c-13,11.7-48.6,43.1-49,43.5c17.8-16.3,15.5-14.1,48.4-44c-0.1-0.1-0.3-0.3-0.4-0.4
				c-0.9,0.8-55.6,50.5-76.9,70.3c38.7-37.3,64-59.9,76.2-71c-0.1-0.1-0.3-0.3-0.4-0.4c-61.5,56.4-91.9,86.1-90.9,85.3
				c-50,46.4-32,29.3-65.4,61.7c-57.9,49.6-42.2,35.8-61.4,53.2c3.4-4.2,24.4-29.5,25.1-30.2c57.9-64,42.3-47.5,71.3-76.5
				c34.2-30.1,85.4-67.9,120.9-93.8c-0.2-0.2-1.3-1.3-1.6-1.5c-25,18.8-15,9.9-55.6,41c51.6-43.8,40.9-35.1,52.9-43.4
				c-0.7-0.6-1.4-1.2-2.1-1.8c-2.8,2.4-36.6,27.3-41.5,30.9c4.5-4.1,34.3-28.8,39.4-32.8c-0.4-0.3-0.8-0.7-1.1-1
				c-24.7,19.4-43.1,37.5-64.1,53.9c-35.3,27.6-49.9,39.8-83.6,68.7c82.7-88.5,66.7-73.5,138.5-130.8c-0.1-0.1-0.2-0.2-0.4-0.3
				c-10,7.9-53.3,43.2-60.8,49.3c1.5-1.6,3.1-3.2,4.6-4.9c21.5-17.2,9.5-7.5,50.8-41.2c-12.8,7.9-21.4,13.2-35.5,22
				c-3.4,2.8-43.5,37.3-49.5,42.5c11-11.9,17.9-17.7,47.3-41.1c-4,2.5-8,5-12.1,7.5c-0.5,0.4-4.5,3.6-5,4c1-1,2.1-1.9,3.1-2.9
				c-1.7,1.1-3.4,2.1-5.1,3.2c-4.1,3.8-2.9,2.6-9,8.6c-32.6,26.3-24,19.3-37.6,30.9c11.2-10.4,22.4-20.9,33.6-31.3
				c-1.3,0.8-2.7,1.7-4,2.5c-94.2,88-11.6,9.6-116.2,105.6c0.8-1,44.8-48.1,84.8-85.9c-4.4,2.8-8.8,5.6-13.1,8.4
				c-12,11.1-1.6,1.2-17.8,15.8c3.9-4,7.8-8,11.7-11.9c-6.8,4.4-18.9,18.5-23.9,22.9c17-17.7,12.3-12.9,19.8-20.3
				c-4.5,2.9-3.9,2.3-6.2,4.8c-54.4,56.4,6-6.1-80.6,79.4c53.1-62.1,42.2-49.8,54.5-62.6c-9.6,6.6-57.1,64.3-60.1,68.2
				c-0.5,0.5-10.5,10.3-11,10.9c-24.8,27.4-20.7,22.4-24,27.7c28.3-31.2,23-25.6,31.2-33.6c-40.4,52.2-34.8,45.2-44.9,55.8
				c-8.5,13.5-7.3,11.5-8.5,13.6c4.4-5.5,3.5-4.5,5.2-6.2c-6.6,8.1-6,7.2-7.2,10.3c0.9-1.1,1.8-2.2,2.7-3.3c-1,1.4-2,2.9-3,4.3
				c-0.5,1.3-1,2.6-1.5,3.9c19.1-27.1,9.8-16.1,42.4-49.4c-30.9,37.5-27.6,36.2-44.8,55.7c-0.8,2-1.5,4.1-2.3,6.1
				c0.1-0.1,2.2-2.5,2.3-2.6c-0.2,0.3-2.4,3.3-2.7,3.6c-0.5,1.3-0.9,2.6-1.4,3.9c44.9-53.2,89.3-101.5,141.9-147.2
				c-25.6,25.9-34.8,34-80.5,92.4c-12.1,12.4-35.3,35.6-65.9,69.7c-0.3,1.2-0.7,2.4-1,3.6c32.5-36.2,54.8-58.5,55.9-59.5
				c0,0-39.3,48-59.2,71.1c-1.1,4-2.3,8-3.4,11.9c36.2-45,94.1-104.2,107.5-116.8c-13.4,16.2-35.4,44.2-51.5,66.4
				c-40.2,38.6-26.1,24.7-57.9,57.2c-0.5,1.6-1.1,3.9-1.3,4.5c34-34.8,22-22.9,52.4-52.2c-15.3,21.1-18,24.9-18,24.9
				c-20.9,21.2-12.2,12.3-37.5,38.8c-0.9,3.6-0.8,3.4-1.1,4.6c28.4-29.8,22-23.1,27.7-29c-3.8,5.3,0.7-1.1-6,8.5
				c-7.4,7.8-14.9,15.7-22.3,23.5c-0.1,0.8-0.3,1.6-0.5,2.3c5.9-6.2,11.8-12.4,17.6-18.7l-4,5.6c-13.2,15-13.1,14.9-14.3,16.3
				c-0.7,3.7-1.5,7.4-2.2,11.1c1.9-2.2,34.2-38.7,40.3-45.1c-11.5,15.8-7.5,10.2-14.7,20.6c-5.7,6.5,2.1-2.3-26.1,27.2
				c-0.6,3.3-1.2,6.7-1.7,10c16.1-20.5,14.3-18.3,15.5-19.5c-17.4,25-9.9,13.6-15.7,21c-0.1,0.9-0.4,2.9-0.5,4.2
				c8.2-11.8,13.3-19.3,23.9-32.9c39.5-40,26.5-27.1,54-53.8c-4.6,5.9-4.2,5.4-5.8,7.6c-25.8,27.8-32.2,33.7-72.3,81.5
				c-0.3,2.3-0.5,4.5-0.8,6.8c44-47,38.4-41,41.9-44.5c-25.3,38.5-20.8,31.5-30.4,46.7c-4.3,4.4-8.6,8.8-12.9,13.2
				c-0.1,1.5-0.2,3-0.3,4.8C-337.3,522.2-250.3,439.6-97.2,332L-97.2,332z M-369.1,517.6c2.1-2.8,4.3-5.5,6.4-8.2
				c62.9-58.2,45.1-42.2,93.7-83.5C-272.8,429.5-327.1,476.7-369.1,517.6L-369.1,517.6z M-342.5,475.1c-19,21.4-51,52.7-51.9,53.5
				C-362.8,494-368.1,499.8-342.5,475.1z M-393.2,526.2c1-1.3,2.1-2.7,3.1-4c2.8-2.8,5.6-5.7,8.4-8.5
				C-384.9,517.1-388.1,520.6-393.2,526.2L-393.2,526.2z M-372,502.1c10.2-10.6,6.9-7.2,16.7-16.7
				C-362.5,493.2-361.6,491.6-372,502.1z M-306.8,441.7c-2.8,3.2-5.6,6.5-8.4,9.7c-34.6,32.5-29.3,27.4-32.4,30.5
				c0.3-0.4,9.7-10.9,10-11.3C-326.2,458.6-314.1,448.2-306.8,441.7L-306.8,441.7z M-322,452c19.2-18.8,16.2-16,18.6-18.1
				c-3.4,3.5-6.8,7.1-10.1,10.7C-316.4,447-319.2,449.5-322,452z M-348.9,479.7c3.6-3.9,3.1-3.3,7.9-7.7
				C-343.6,474.6-346.2,477.1-348.9,479.7z M-389.4,529.5c14.6-15.2,5.2-6,43.6-42.6c-1.1,1.2-0.8,0.9-10.7,13.6
				c-14.6,13.6,0.6-1.5-51.8,51.8C-402,544.8-395.7,537.2-389.4,529.5z M-240.1,399c-53.9,43-97.5,84-113.9,99.2
				c8.9-11.4,6.6-8.7,12.3-15.3c52.8-50.5,121.2-106.4,152.6-130.2C-203.5,365.5-193.5,356.4-240.1,399L-240.1,399z M-298,438.7
				c3.6-4.2,7.7-9.7,22.2-19.5C-277.6,420.9-293.1,434.4-298,438.7z M-115.3,297.4l-108.6,88.7
				C-174.5,340.9-177.6,343.1-115.3,297.4z M-181.5,340.8c11.2-8.5,3.9-3.2,35-25.1c-13.8,11.4-5.1,4.6-31.4,24.5
				c-21.8,16.5-18.1,13.2-81.6,65C-232.9,382.2-252.3,398.4-181.5,340.8L-181.5,340.8z M-260.2,402.3
				c-41.7,36.1-31.3,26.8-51.1,45.5c2.6-3,5.1-6,7.7-8.9C-285.8,423.1-294.9,430.7-260.2,402.3L-260.2,402.3z M-218.2,360.6
				c-29.6,24.8-69.9,61.4-69.9,61.4c20.9-21.8,16.8-17.7,23.1-23.5C-220.7,362.3-229.1,369.1-218.2,360.6L-218.2,360.6z
				 M-246.8,377.2c-27.7,27.1-23.3,23.1-28.2,27C-251.8,381.7-258.3,387.9-246.8,377.2L-246.8,377.2z M-276.4,409
				c-23,24-10.8,11.7-30.8,29.8C-292.7,423.5-300.2,430.8-276.4,409z M-288.7,418.4c-5.5,5.8-2.4,2.8-14.7,14.1
				C-293,421.7-296,424.6-288.7,418.4z M-300.1,428.1c-25.6,26.2-17.9,18.5-36.2,36.5c-12.2,10.8-6.4,5.4-33.6,31.5
				c8.9-11.5,4.7-6.3,18-22.3C-323.5,448-334.9,457.9-300.1,428.1L-300.1,428.1z M-348.9,468.3c-35.4,32.2-30.9,27.9-35.3,32.2
				c36.9-45.4,72.4-81.3,113.9-122.3C-327.4,441.6-311.9,423.7-348.9,468.3L-348.9,468.3z M-157,277.9
				c-57.7,48.9-49.8,42.3-56.3,47.2C-173.8,291-170.5,287.9-157,277.9z M-192.8,305c18.8-14.7,15.4-12,20.6-15.9
				c-2.4,1.9-50,43-50.9,43.8C-216.7,326.5-221.6,331-192.8,305L-192.8,305z M-207.4,316.4c-80.7,73.7-19.1,17.2-108.7,96.6
				c23.9-26.9,21.9-24.8,22.9-25.5C-271.1,368.6-241.3,342.9-207.4,316.4L-207.4,316.4z M-354.8,449.4c25-29.5,22.1-26.2,24-28.1
				c0.1-0.1,33.1-29.9,33.1-30C-328.1,425.7-311.3,408.1-354.8,449.4z M-348.2,435.8c10.6-12,3.5-4.3,31-33.2
				c-4.9,5.8-9.8,11.6-14.7,17.4C-332.7,420.7-344.3,432-348.2,435.8L-348.2,435.8z M-205.2,292.9c-5.9,6.3-2.7,3.4-17.4,15.4
				C-208.2,295.1-210.8,297.4-205.2,292.9z M-229.9,315.1c0.2-0.2,16.9-13.8,17-14c-55.4,58.5-45.4,47.9-74.3,78.8
				c-12.4,10.6-4.1,3.2-36.1,32.2c25.7-30.5,22.8-27.1,24.6-29C-278.4,361.9-230.9,315.9-229.9,315.1L-229.9,315.1z M-251.7,333.3
				c-0.2,0.2-25.9,25.3-26,25.5C-263,342.1-269,347.9-251.7,333.3z M-278.2,355.2c8-7.5,5.9-5.6,10.1-9.3
				C-270.9,349.1-268.6,346.9-278.2,355.2L-278.2,355.2z M-233.6,315.6c-15.3,15-9.1,9.4-29.1,26.2c4.2-4.4,2.7-3.5,23.6-21.6
				C-238.3,319.5-234.6,316.4-233.6,315.6L-233.6,315.6z M-278.1,346c42.6-36.1,32.3-27.6,49.4-41.4c-18.5,18.1-8.4,9.6-26.2,25.7
				c-40.8,33.7-28.8,23.5-50.6,42.5C-303.7,371.1-280.8,348.7-278.1,346L-278.1,346z M-287.8,354.2c-55.3,54.2-22.7,21.1-67.4,62.8
				C-345.5,405.8-295.4,360.7-287.8,354.2L-287.8,354.2z M-369.5,433.4c11.8-11,14.2-13.2,27.1-25.3c-53.7,56.1-45.4,47.3-53,55.8
				C-386.3,452.6-391.6,458.9-369.5,433.4L-369.5,433.4z M-370.4,431.2l8.9-8.8C-364.1,425.4-362.5,423.8-370.4,431.2z
				 M-261.3,317.7c-56.4,53.4-72.8,75.6-103.4,105.7C-311.5,359.6-280.6,333.8-261.3,317.7L-261.3,317.7z M-369.8,418.4
				c48.7-48.2,42-41.6,51.9-50.5c-50,51.9-36.4,37.4-75.4,81C-377.4,428.3-382.5,434.8-369.8,418.4L-369.8,418.4z M-393,451.4
				c51.9-57.5,32.2-37.9,69.3-75.4C-387.3,447.1-361.1,419.9-393,451.4z M-429.8,507.4c3.8-5.1,4.3-5.5,13.8-15.8
				C-428.7,506.1-428,505.2-429.8,507.4z M-418.7,490.3c21.5-27.7,14-18.3,34.6-43.3c5.4-5,4.4-4.1,6.3-5.9
				C-403.7,471-399,468-418.7,490.3L-418.7,490.3z M-406.5,478c9.5-11.9,63.4-67.8,72.1-76.9c1.3-1.3,34.7-30.4,35.7-31.2
				C-329,399-367.4,435.3-406.5,478L-406.5,478z M-300.2,374.3c6.9-6.6,0.6-0.9,35.9-32.7C-265.2,342.6-282.9,359.3-300.2,374.3z
				 M-295.3,371.3c3.8-3.9,1.6-1.9,21.9-19.5c-3.3,3.7-13.5,15.3-20.7,23.5c-0.2,0.3-0.5,0.5-0.7,0.8
				c-11.8,12.5-46.2,48.6-46.8,49.3c-30.3,34.4-22.5,25.7-32.8,36.1C-331.2,406.6-322.7,399.1-295.3,371.3L-295.3,371.3z
				 M-404.8,501.2c18.7-22.8,10.7-13.6,40.8-47.5c6.1-6,10-9.7,20-19.5c-6.1,7.2-12.3,14.5-18.4,21.7
				C-378.4,474.7-374.4,468-404.8,501.2z M-381,479.9c13.5-15.4,45-45,46.8-46.7C-334.2,433.2-342.8,441.4-381,479.9z M-340.2,441.5
				l22.6-21.2c34.5-32.3,23-21.9,51.4-46.8c-44.6,44-35,34.4-50,50.3c-35.1,37.2-46.9,50.1-70.6,79.3c-2,1.9-3.9,3.8-5.9,5.7
				C-383.4,495.8-365.2,471.8-340.2,441.5L-340.2,441.5z M-399.6,518.2c0.8-0.7,1.5-1.5,2.2-2.2c-0.4,0.5-6,7.4-6.4,7.9
				C-402.3,522-401,520.1-399.6,518.2z M-394.6,513.4c19-18.3,10.2-10.1,36.8-34.3c-7.4,8.9-3.7,4.3-17.4,22
				c-14.9,14.2-25,23.7-42.1,41.5C-416.5,541.7-408.1,530-394.6,513.4L-394.6,513.4z M-385,513.9c-3.7,4.8-24.3,25.5-45.9,48.3
				c1.8-2.5,3.5-5,5.2-7.5C-389.7,518.1-396.6,524.9-385,513.9L-385,513.9z M-428.1,557.1c-6.2,8.9-5.2,7.5-6.4,8.8
				C-433.8,565-429,558-428.1,557.1z M-435.7,569c11.9-12.6,9.9-10.7,3.4-3.3c-1.8,2-3.5,4-5.3,6C-437,570.9-436.4,570-435.7,569z
				 M-442.3,578.6c1.2-1.7,24.5-28.3,46.2-50.3c-3.7,4.8-4.2,5.5-5.2,6.8C-410.7,545.3-412.9,547.9-442.3,578.6L-442.3,578.6z
				 M-430.9,577.5c0.6-0.8,0.2-0.3,14.1-19.5c6.7-6.9,13.3-13.9,20-20.8C-421.8,567.4-416.1,560.7-430.9,577.5L-430.9,577.5z
				 M-411.7,559c0.4-0.4,46-46.9,46.4-47.3c-2.2,2.9-4.4,5.7-6.7,8.6C-372.7,521-411,558.3-411.7,559L-411.7,559z M-384.5,537.3
				c32.7-31.8,27.7-27,30.5-29.6c-37.4,37.8-33.1,33.5-35.8,36.3C-388,541.8-386.3,539.6-384.5,537.3L-384.5,537.3z M-281.5,441.7
				c-36.8,36-71.1,73.7-76.2,79.5c-9.6,8.8,1-1.5-52.9,51.8l13.1-18.3C-368.9,523.8-323.3,477.6-281.5,441.7L-281.5,441.7z
				 M-451.1,614.8c34.8-40.5,19.4-23.2,50.7-57c-2.7,3.8-12.4,17.5-12.4,17.5C-433.9,596.1-425,587-451.1,614.8z M-423.2,590.7
				c1.3-1.9-2.7,2.3,40.5-40.5c-20.5,23.8-70.1,85.8-70.2,85.9C-443.6,621.5-423.8,591.7-423.2,590.7L-423.2,590.7z"/>
			<path class="st4" d="M-51.6,283.1c-17.1,19.5-26,32.4-45.5,52.4c-59.1,4.4-150.8,3.4-223.9-8.2c0,0-29-31.5-90.4-97.5
				c81.6-72.2,185.1-152.3,275.5-207.5c21.5-1.7,56.4,1,79.1,7.7c35.9,31.9,70,81.7,98.7,121.7C15.9,195.5-29.5,257.8-51.6,283.1
				L-51.6,283.1z"/>
			<path class="st5" d="M-392.6,250c1.7,1.9,3.5,3.7,5.2,5.6c-12-20.7-7.4-12.3-17.4-31.6c-0.4,0.4-0.9,0.8-1.3,1.1
				C-396.8,243.1-400.2,237-392.6,250z M-367,191.9c-0.8,0.7-1.7,1.4-2.5,2.1c8.4,24.4,16.7,47.8,25.3,71.9
				c-15.5-21.4-28.2-39.4-40.9-58.8c-0.5,0.5-1.1,0.9-1.6,1.4c11.8,18.2,38,55.6,45.3,65.1c6.2,17.3,12.5,34.7,18.7,52
				c0.6,0.6,1.1,1.1,1.7,1.7c1.1,0.2,2.2,0.4,3.3,0.5c-2.1-5.7-2.7-7.6-16.4-44.7c31.6,41.5,28.3,37.3,36.9,47.5
				c1.2,0.2,2.7,0.3,3.9,0.5c-12.9-15.4-11.1-13.4-43.6-55.7C-340.8,265-353.1,232-367,191.9L-367,191.9z M-279.6,185.6
				c-4.4-11.1-1.1-2.3-18.1-49.8c-0.5,0.4-1,0.8-1.5,1.2c16,44.8,14.7,41.3,16.4,45.5c-1-0.9-1.1-1.1-9.5-9
				c-4.3-10.7-8.2-21.6-11.6-32.7c-0.5,0.4-0.9,0.7-1.4,1.1c3,9.8,6.4,19.5,10.1,28.9c-11.1-10.5-13.6-12.9-21.3-19.9
				c-4.6,3.7-9.1,7.4-13.7,11.1c13.3,10.8,35.9,30.5,50.6,44.7c13.4,27.8,28.6,53.4,45.1,77.4c4.8,8.4,9.8,16.5,15,24.6
				c-22.2-17.3-32.3-27.2-53.6-46.9c-31.9-49.2-47.3-68.2-65.9-92.5c-0.5,0.4-0.9,0.8-1.4,1.1c13,16.9,33.5,42.5,62.1,86.6
				c-9.7-8.9-48.9-50.6-71.6-78.9c-6.7,5.5-11.4,9.3-16,13.1c33.2,39.6,76.4,82.6,119.4,116.9c11,18.4,6.9,11.2,16.4,28.6
				c0.7,0,1.3,0.1,2,0.1c-1.2-2.2-11.6-21.2-14.6-25.7c12,9.4,24.2,18.3,36.8,26.4c13.7,0.3,9.9,0.3,28.6,0.2
				c-10.1-6-20-12.6-29.6-19.6c-8.4-10.4-17.2-22.2-25.8-34.6c-11.8-20.3-22.9-42.4-31.9-62.6c44,42.2,80.2,85.1,106.9,116.7
				c3.5,0,7-0.1,10.5-0.1C-198.1,272.1-233.6,231.8-279.6,185.6L-279.6,185.6z M-221.4,302.3c4.3,5.8,7.4,9.7,8.9,11.6
				c-1-0.7-1.9-1.4-2.9-2.1C-217.4,308.7-219.4,305.5-221.4,302.3L-221.4,302.3z M-245.3,264.5c-11.1-17.4-21.4-35.6-30.7-54.5
				l7.9,7.6C-260.5,234.8-252.7,250.8-245.3,264.5L-245.3,264.5z M39.2,156.3C-0.5,105.6-37.7,67.8-85.4,24.4
				c-17.7-2.5-26.8-2.7-35.2-2.5c33,26.9,102.6,93.6,148.5,152.6C30.9,170,32.5,167.4,39.2,156.3L39.2,156.3z M-255.4,127
				c-4.6-6.7-4.3-6.1-8.6-17.4c-1.5,1.1-3,2.2-4.5,3.4c2.2,3.5,4.4,7,6.6,10.5c0.7,1.1,42.2,111.6,135.7,213.5
				c1.4,0,2.8-0.1,4.3-0.1c-54.2-58.3-102.2-133.4-131.2-200.4c48.8,70.6,101,137.7,164.7,189.8c0.9-1,1.8-2,2.8-3
				C-154,267.7-207.2,196.4-255.4,127L-255.4,127z M-152.4,32.7c-5.5,3.5-11,7-16.4,10.6c44,44.6,25.1,26.8,69.8,66.6
				c47.4,49.3,75,83.6,95.2,111.1c1.6-2.2,2.7-3.8,3.9-5.5c-14.6-22.9-22.5-32.6-43.7-60.4c4.6,3.7,46.9,35.1,56.6,41.5
				c0.4-0.6,0.8-1.1,1.1-1.7c-1-0.7-55.9-38.8-67.8-52.9C-100.1,86.9-102.9,83.1-152.4,32.7L-152.4,32.7z M-115.4,92.8
				c-21.1-18.8-12.7-10.7-37.5-36C-117.2,90.4-124.5,83.3-115.4,92.8z M-214.2,73.6c-0.5,0.4-1,0.7-1.5,1.1
				c43.4,45.7,86.3,138.3,117.8,204.7c-14.3-26.8-64.9-114.5-120-203c-1.1,0.8-2.2,1.6-3.3,2.4c17,28,119.1,193.2,136.3,243.8
				c1.7-1.9,3.5-3.9,5.2-5.9C-102,262.8-168,122.4-214.2,73.6L-214.2,73.6z M-196.5,61.6c-12.8,8.6-12.8,8.6-15.9,10.7
				c34.9,41,80,81.8,94.6,95.3c43.6,67,25.6,38.1,69.4,111.7c0.4-0.5,0.8-1,1.2-1.5c-38.2-65.6-38.3-64.3-64.3-104.4
				c4.5,4.1,61.4,53.5,88.4,73.5c4.8-6.5,7.3-9.8,10.7-14.3C-65.5,195-157.4,111.5-196.5,61.6L-196.5,61.6z"/>
			<path class="st6" d="M100.5-112.7c-9.8,1.5-18.5,5.2-26.5,11.8c-17.2,4.6-23.7,7.5-31.8,14C21-69.9-3.6-27.8-8.5-8.1
				C-22.8,17.2-38,43.7-27.8,70.2c6,15.5,35.4,51.2,46.1,64.1l0,0c5.4,9.6,27.4,42.8,44.9,61.4c29.4,46.8,31.5,73.5,63.2,106
				c13.8,14.1,27.7,21.5,57.5,22c23.8,0.3,39.6-11.4,55.8-29.5c13.8-15.4,19-31.3,22.7-52.5c6.6-38,8-33.9,11.9-55.4
				c8-44.8,1.5-137.9-4.1-168.6c-6.9-38-29-89.8-61.3-109.5C182.2-122,135.9-133.1,100.5-112.7L100.5-112.7z M-5.2,1.8
				c0,0.2,0,0.3-0.1,0.4C-5.2,2.1-5.2,2-5.2,1.8z M-11.5,11.4c-3.1,40.5,4,65.1,10.5,80.4C-18.4,70.6-33.1,55.5-11.5,11.4
				L-11.5,11.4z M265.6,12.7c6.7,29.3,8.9,99.4,7.9,132.4c-0.6,18.1-2.8,30.3-3.5,34.6c-1.8,11.1-6.1,23.2-7,25.9
				c-7.2,21.6-5.5,19.1-10,35.3c-4.1,14.6-7.8,29.5-23.7,42.5c-15.8,12.9-25.9,18.5-42.6,16.7c-27.5-4.6-33.1-7.3-56-36.2
				c-3.5-4.8-5.9-8.1-13.8-22.1c21.8,13.4,51.2,27.3,76.1,21.5c10.2-2.4,24.8-10.6,34.3-20.5c20.8-21.7,28.2-59.1,36.9-88.1
				c9.3-31.2,9.3-46.3-8.7-108.5c-3.5-12.1-7.3-24.2-10.7-36.4C231.4-37.6,234.2-54.7,217-81C233.8-66.4,255.1-33.6,265.6,12.7
				L265.6,12.7z M51.8-66.8C18.9-35.2,11.6,42.7,12.4,61c1,24.9,9,44.5,21.8,61.3c11.7,15.3,29.7,23.7,42.2,35.2
				c11.9,10.9,38.7,43.6,66.4,50.1c2.2,0.5,47.9,9.6,77.2-16.8c20.6-18.5,22.6-44,24.9-52.2c1.5-5.4,2.4-11,3.2-16.5
				c6.8-49.2-2.6-68.4-9.7-124.8c3.3,12.6,12.2,42,17.2,63.8c9.3,41,13.6,58.6,0.3,91.4c-10.9,26.9-20.8,57.3-40.9,74.1
				c-8.6,6.3-20.9,11.1-32,10.1c-14.6-2.8-29.1-10-41.7-16.3c-68.9-34.2-61.3-39-95.3-76.8c-28-31.1-19.5-15.2-35.4-47.5
				C5,85.1-1.7,70.7-3.5,56.4c-3.9-30.4-2.9-42-1.7-54.7c0.1-1,0.3-2,0.5-2.9C-3.8-2.9-2.9-4.5-2-6.1c0.8-1.4,0.5-3.2-0.6-4.2
				C2.2-28,20.8-57.4,33.5-72.8c12.9-15.7,25.6-19.8,34.8-22.6C58.3-83.9,56.5-75.6,51.8-66.8L51.8-66.8z"/>
			<path class="st6" d="M12.1,103.6c8-6.3,28.5-27.4,35.5-59.3c17.6-80.3-34.4-149.2-85.4-158.6c-25.7-4.7-66.6-4-92.8,11.3
				c-26,15.2-38,32-48.6,59.8c-10.6,27.6-6.2,66.8,5.5,93.8C-159.2,121.1-59.3,159.8,12.1,103.6L12.1,103.6z M-151.6,83.4
				c16.7,15.5,49.8,30.8,81.3,30.4c6.8-0.1,53.1-5.2,89.2-33.3C-16.6,132.9-112.2,134.9-151.6,83.4L-151.6,83.4z M-75.4,100.4
				c12.1,0.5,23.9-0.9,23.9-0.9c5.3,0.3,15.2,1.1,25.6,0c-40.2,21.8-100.9,14.8-131.7-30.6C-145,81.1-113.6,98.6-75.4,100.4
				L-75.4,100.4z M-15.4,95.3c-6.4,1.7-14.6,3.2-28.5,2.5c23.4-5.4,53.6-26.6,66.1-43.9C16.4,71.6,5.7,85.3-15.4,95.3L-15.4,95.3z
				 M-91.8,86.7c24.3,6.4,49.7,5.3,74.9-3.9C-42,100.7-67.5,101.7-91.8,86.7L-91.8,86.7z M-4.2-75.4
				c-59.5-38.7-137.2-12.9-167.2,40.6C-147.8-115.7-58-128-4.2-75.4L-4.2-75.4z M-140.9-60.4c-5.7,6.5-10.3,15.2-13,23.2
				c-20.4,27.4-20.8,58.4-21.4,60.9C-182.5-10.7-167.7-38.9-140.9-60.4L-140.9-60.4z M-173.5,30.8c-1.2-24.7,4.8-42.7,17.3-60.7
				c-12.6,50.6,4.2,95.4,56.2,114c12,9.3,20.7,11.4,30.9,13.2C-103.7,97.1-159.2,81-173.5,30.8L-173.5,30.8z M-167.9,61.9
				c14.5,26.4,28.1,41.4,57.6,54.8c17.6,8,65,9.2,97.8-5.5C-44.8,137.4-134.9,141.9-167.9,61.9L-167.9,61.9z"/>
			<path class="st6" d="M-304,148c-0.1,0-0.1,0.1-0.2,0.1c1.5-0.3,3-0.6,4.4-1c15.1-11.4,68.7-52.5,112.7-77.5
				c-37.7,28.2-51.2,40.1-84.2,70.1c1.5-0.4,3-0.8,4.5-1.2c28.9-27.8,83-72.3,127.5-95.5c0.7-1.5,1.4-3.1,2-4.7
				C-215,83.7-226.6,90.1-304,148L-304,148z M-225.3,123.3c28-13,61.2-38.4,81.3-71.6C-171.1,72.5-220.7,118.7-225.3,123.3z
				 M-488.5-57.5c-15.7,36.8-14.1,93.4-4.6,129.1c26.4-13.5,75.5-35.3,92.5-42.6c-10.6,6-46.3,26.2-57.8,32.8
				c-4.7,2.7,2.1-0.5-33.3,15.1c0.5,1.6,1.2,4,1.4,4.8c40-21.2,25.9-14.2,56.9-28.3c-28.9,15.9-15.2,8.6-56.4,30.1
				c0.3,1,0.6,2,0.9,3c105.9-55.6,62-39.1,241.4-115c14-3.7,7.1-2,35.6-8.7c0,0-187.3,89.3-275.2,127.8c0,0.1,0.5,1.2,1,2.2
				c65-28.6,51.5-21.7,182.7-85v0C-330,20.8-446,84.1-481.1,102.4c0.3,0.5,0.6,1.1,0.9,1.6C-431,78.2-321.6,18.2-300.8,8.4
				c0,0,0,0,0.1,0c-45.1,24.5-64.8,33.7-136.7,78.3C-469.1,102-462.8,99-479,106.3c3.2,5.5,4.5,7.6,8.7,13.2
				C-357.8,48.5-354,46.3-245.5-7.2c-26.1,18.6-15.8,11.1-41.6,30.7c-68.3,39-74.5,42.7-179.8,100.4c0.4,0.5,0.8,1,1.2,1.5
				c95.1-51.9,147-81.8,167.2-93.3c-52,39.6-60,46.1-97,74.3c-54.4,31.6-40,23.1-57,33.3c10.3,10,34.1,21.4,41.1,21.4
				c8.5-6.7,3.1-2.6,36.3-27.2c6-3,20.8-9.9,65.5-33.4c-71.6,51-69.1,49.6-84.6,60.4c6.2-0.2,6.1-0.2,7.2-0.4
				C-281.6,85.7-294.3,89.7-227,58.8c-35.7,20.6-55.9,31.3-146.6,100.4c0.9-0.1,1.9-0.2,2.8-0.2C-284,92.6-265.5,82.5-220.4,56.3
				c-0.8,0.6-140.5,97.5-149.4,102.6c17.3-1.5,38.8-5,52.4-7.9c40.5-36.8,135.6-92.6,182.9-119.7c0.5-1.5,1-2.9,1.4-4.4
				c-27.7,15.6-20,11.1-62.6,36.3c53.5-34.9,46.2-31,63.5-39.4c7.5-27,5-74.9-17.5-101.3c-73.2-49.5-203-57.6-277-33.8
				C-469.3-89.8-477.4-74.3-488.5-57.5z M-377,57c-13.1,6.5-24.3,12.4-45.3,22.5c10.3-6.4,93.3-55.6,127-70.4
				C-342.9,35.9-324.2,24.9-377,57L-377,57z M-193.5,47.5c24.5-14.9,17.6-11.4,33.2-17.9c-3.7,2.6-41.2,27.6-81.7,53
				C-234,76.1-242.6,82.5-193.5,47.5L-193.5,47.5z M-180.3-33.2c-101.6,71.4-36.1,25.5-102.2,72.4c-7.7,5.2,2-0.9-48.4,29.4
				c69-53,78.8-59.4,101.2-75.3C-186.4-30.5-197.2-24.8-180.3-33.2L-180.3-33.2z M-326.7-2.1c45.9-18.5,40.2-16.2,65.5-22.9
				c-60.3,25.4-36.2,15-114.4,49.8C-362.1,17.3-341.3,5.9-326.7-2.1z M-380.6,20.4c33-14.1,30.2-12.9,32.5-13.9
				c-71.6,39.2-51.1,28.9-88.6,45.8C-393.1,27.6-394.7,28.6-380.6,20.4L-380.6,20.4z"/>
			<path class="st3" d="M-319.2,313.5c-3.7-20.5-11.6-40.2-44.5-96.6c-17.1-29.5-53.4-68.4-85.9-57.2
				c-27.4,9.4-62.9,54.1-36.8,152.7c-0.9,15.4-5.3,61.6,17.3,149.9c7.7,29.9,13.3,36,34.1,63.5c15.1,20.6,20.1,29.1,33.5,31.6
				c24.4,4.7,49.7-11.8,60-34.1C-314.6,465.4-308,375.7-319.2,313.5L-319.2,313.5z M-442.7,481.2c-19.2-26.8-42.3-101.8-40.5-157.5
				c12.4,46.1,41.5,144.3,67,184.2C-425.7,499.7-435.5,490.5-442.7,481.2L-442.7,481.2z M-329.5,349.2c-7-48.5-18.2-75.6-59.6-141.3
				c-8.9-14.1-20.8-29.2-34.1-37.3C-380.7,171.6-328.1,269.2-329.5,349.2z"/>
			<path class="st2" d="M-425.1,718.9c10.1,6.6,19.2,10.8,29.9,14.7c-53.2,4.9-54.9,31.4-44.6,45.8c41.1,57.2,362.4,81.2,501.2,4.9
				c4.2-3.1,5.6-8.5,3.9-13.2c-2.5-6.9-10.2-8.5-14.2-6.5C30.3,775-5.1,782.1-28.1,785.9c2.4-5.8-7.5-7.7-20.8-10.7
				c1.5-1.1,1.1-3.7-0.9-4c-0.2,0-34-4-45.1-5.5c56.9,0.7,81.2-0.9,88.4-15.5c6.4-1.5,7.7-2,11.4-4.5c31.7,1.2,46.8-18.3,3.4-37.2
				c-8.3-7.6-28.5-15.8-39-20c-44.1-28.7-147-63.9-205.8-77.5c-70.7-16.3-84.8-17.3-105.1-17.8c-14.9-0.4-0.2,0.5-18.6-1.9
				c-4.5-4.1-13.1-12.1-9.2-16.2c13.2-10.7,53.1-2.6,68.6,0.7c40.4,8.5,94,22.2,140.6,38.4c51.5,17.9,140.5,64,151.4,74
				c1.9,1.7,7.3,4.8,10.4,1c3.4-4.2-1.5-8.8-5.4-10.2c-42.8-15.6-89.6-47.2-156.1-70.3c-52.6-18.3-120.4-33.6-138.1-37.2
				c-15.9-3.2-55-11.3-72.1-1.4c-5.8,3.4-8.9,8.6,1.4,20.4c-11-0.7-23-1.3-31.7,6.2c-16.9,4-28,16.5-19.7,33
				c-19.4-0.1-50.3,1-66.3,12.4C-526.3,670.5-473.1,702.9-425.1,718.9z M-130.4,797.8c-142.5,5.4-246-21.8-279.2-36.4
				c20.2-8.5,66.9-11.2,73.3-9.5c-14.4,14.9,85.1,41.7,219.5,45C-121.8,797.3-123.4,797.5-130.4,797.8L-130.4,797.8z M-67.1,778.4
				c6.9,1.1,27,4.4,34.4,6.3c-4.2,3.4-4,3.1-51.2,9.1c0,0,0,0,0,0c-161.4,0.7-263.1-32.1-248.7-41
				C-232.1,777.3-114.5,782.7-67.1,778.4L-67.1,778.4z M-88.9,775c-46.2,1.5-145.1-4.1-231.7-24.5c18.8-0.4,22.4-0.1,34.8,0.3
				c14.2,2.3,58.6,8.2,109.3,11.8C-153.7,766-116.7,770.9-88.9,775L-88.9,775z M-168.6,726.4c-63.3-3.5-144-12.5-207.2-27.9
				C-323.6,699.4-220.3,716.8-168.6,726.4z M-467.6,664c19.3-9.1,57.6-7.9,74.6-7.4c18.3,11.7,40.6,20.5,59.6,27.3
				c-15.7-0.6-58.9-0.8-79.9,4.1c0,0-0.1,0-0.1,0C-427.6,683.7-456.3,674.1-467.6,664C-467.6,664-467.6,664-467.6,664L-467.6,664z"
				/>
			<path class="st7" d="M-0.3,791.1c0.4,1.8,2.6,1,2.3-0.3c-0.6-2.7-2.4-10.7-3.7-15.7c-0.3-1.3-2.5-0.8-2.2,0.5
				C-3.8,775.7-1.1,787.2-0.3,791.1L-0.3,791.1z M-16.2,796.8c0.2,1.2,1.8,0.9,1.6-0.2c-1-5.5-0.8-5.1-1.4-8.8
				c-0.2-1-1.5-0.8-1.5,0.2C-17.1,791.8-16.9,793-16.2,796.8L-16.2,796.8z M-35.9,797.9c0.3,1.3,2.9,1.1,2.4-0.9
				c-1.4-5.9-1.1-5.5-1.8-9.1c-0.4-1.7-2.4-1.2-2.3,0.2C-37.4,791.6-36.8,794-35.9,797.9z M-55.7,793.5c0.1,4.4,0.4,8.9,0.6,13.3
				c0.1,1.2,2.1,1.3,2-0.2c-0.4-7.8-0.4-6-0.9-13.3C-54,792.2-55.7,792.3-55.7,793.5L-55.7,793.5z M-75.8,798.3
				c0.1,1.6,2.8,1.7,2.6-0.3c-0.1-2.8-0.2-5.7-0.4-8.5c-0.1-1.4-2.5-1.7-2.5,0.3C-76.1,792.6-75.9,795.5-75.8,798.3z M-95.4,801.5
				c-0.1,1,1.3,1.2,1.4,0.2c0.4-3,0.7-6,1-9c0.1-1-1.3-1.1-1.4-0.2C-94.7,795.5-95,798.5-95.4,801.5z M-112.9,798.4
				c-0.2,3-0.4,6.1-0.6,9.2c-0.1,1,1.3,1,1.3,0.2c0.2-3.1,0.3-6.1,0.5-9.2C-111.6,797.6-112.9,797.6-112.9,798.4L-112.9,798.4z
				 M-131.2,796.2c-0.2,2,2.5,2,2.7,0.4c0.8-9.5,1.1-10,0.8-12.6c-0.1-1.5-2.5-1.6-2.5,0.3C-130.2,784.6-131.2,795.5-131.2,796.2
				L-131.2,796.2z M-147.1,785.6c-0.2,1.1,1.5,1.5,1.7,0.3c1.3-7.1,1-5.2,1.7-9.8c0.2-1-1.3-1.3-1.6-0.2
				C-145.6,777.4-145.8,778.3-147.1,785.6z M-167.2,779.8c-0.8,3.3-1.5,6.6-2.1,9.9c-0.3,1.8,2.4,2.5,2.8,0.4
				c0.7-3.3,1.4-6.6,1.8-9.9C-164.5,778.6-166.8,778-167.2,779.8z M-183.5,781.3c0.5-1.7,1.1-3.3,1.5-5c0.2-0.8-1.1-1.2-1.3-0.4
				c-0.5,1.6-1,3.2-1.5,4.8C-185.2,781.7-183.7,782.1-183.5,781.3z M-25.7,775.1c0.2,1.7,2.6,1.3,2.4-0.3c-0.3-2.4-0.6-4.9-1.1-7.3
				c-0.3-1.5-2.1-1.1-2,0.2C-26.4,770.2-26,772.6-25.7,775.1L-25.7,775.1z M-49.2,781.4c-0.1,2.3,2.8,2,2.9,0.5
				c0.2-4.9,0.4-6.7,0-9.8c-0.2-1.5-2.2-1.3-2.3,0C-48.8,775.3-48.8,772.1-49.2,781.4L-49.2,781.4z M-63.6,782.8
				c0.1,1.3,2,1.1,1.9-0.2c-0.2-1.5-0.3-3-0.5-4.6c-0.1-1.2-1.9-1-1.8,0.2C-63.9,779.8-63.8,781.3-63.6,782.8z M-88.3,771.3
				c0,1.6,2.9,2,2.9-0.3c0-2.7,0.1-5.4,0-8.2c-0.1-1.7-2.6-1.6-2.7-0.1C-88.3,765.6-88.3,768.5-88.3,771.3L-88.3,771.3z
				 M-102.9,767.4c-0.1,1.8,2.2,1.7,2.3,0.4c0.2-3.1,0.4-6.2,0.6-9.3c0.1-1.8-2.2-1.7-2.3-0.4C-102.5,761.3-102.7,764.4-102.9,767.4
				L-102.9,767.4z M-108.8,781.7c-0.1,1.7-0.4,3.1-1,7c-0.2,1.5,2,1.9,2.3,0.4c0.3-2.3,0.7-4.7,0.8-7
				C-106.6,780.4-108.7,780.5-108.8,781.7L-108.8,781.7z M-119.3,770.3c-0.3,1.5,2.1,2.1,2.4,0.4c1.2-7,1.7-8.8,1.9-11.6
				c0.1-1.4-1.7-1.7-2-0.3C-117.7,762.3-117.9,762.5-119.3,770.3L-119.3,770.3z M-135,767.4c2.4-5.9,2.7-6.8,3.4-9.4
				c0.3-0.9-1.3-1.5-1.6-0.5c-1.1,3.1-2.3,6.1-3.5,9.1C-137.3,767.9-135.4,768.6-135,767.4L-135,767.4z M-156.1,758.3
				c1.6-4.5,2-5.8,2.5-7.5c0.4-1.3-1.2-1.7-1.6-0.7c-1,2.4-1.8,4.9-2.7,7.4C-158.3,758.9-156.4,759.3-156.1,758.3z M-173.9,768.5
				c-0.6,2,1.9,2.3,2.3,1c1.7-5.9,2.3-7.7,3-10.9c0.3-1.2-1.7-2-2.2-0.3C-170.9,758.5-173.3,766.1-173.9,768.5L-173.9,768.5z
				 M-195.2,764.4c-0.6,1.4,1.5,2.4,2.1,1c2.1-4.8,2.6-6,3.2-8.6c0.3-1.1-1.5-1.7-1.9-0.6C-192.3,757.7-192.6,758.1-195.2,764.4
				L-195.2,764.4z M-217.9,752.5c3.1-6.4,6.8-13.7,6.8-13.7c0.6-1.3-1-2.1-1.6-0.9c-1,1.7-4.5,9.6-6.7,14
				C-219.8,752.7-218.4,753.5-217.9,752.5z M-240.4,747.6c0.9-1.4,1.7-2.8,2.5-4.3c0.3-0.6-0.6-1.3-1-0.5c-0.9,1.4-1.7,2.8-2.6,4.3
				C-241.9,747.7-240.9,748.5-240.4,747.6L-240.4,747.6z M-178.2,747.6c0.3,0.1,0.6,0.1,0.8,0c0.3-0.1,0.5-0.3,0.6-0.6
				c2-3.4,4-6.8,5.7-10.4c0.3-0.5,0-1.2-0.5-1.5c-0.3-0.1-0.6-0.1-0.8,0c-0.3,0.1-0.5,0.3-0.6,0.6c-0.9,1.7-1.8,3.4-2.7,5
				c-1,1.8-2,3.5-3,5.3c-0.1,0.2-0.1,0.6,0,0.9C-178.6,747.3-178.4,747.5-178.2,747.6L-178.2,747.6z M-225.2,734.3
				c1.7-2.3,3.5-4.6,5.2-6.9c0.5-0.7-0.5-1.4-0.9-0.8c-1.7,2.3-3.5,4.6-5.2,6.9C-226.7,734.1-225.7,734.9-225.2,734.3L-225.2,734.3z
				 M-270.5,731.9c2.2-2.5,4.4-5.1,6.6-7.7c0.9-1.2-0.7-2.7-1.8-1.5c-2.2,2.5-4.5,5.1-6.7,7.6C-273.4,731.4-271.7,733.2-270.5,731.9
				L-270.5,731.9z M-298.6,726.1c1.5-1.6,3.1-3.2,4.6-4.9c0.5-0.6-0.4-1.5-1-0.8c-1.5,1.6-3.1,3.2-4.6,4.9
				C-300.2,725.8-299.3,726.8-298.6,726.1L-298.6,726.1z M-295,699.5c5.5-6.9,6.4-8,7.6-9.7c0.9-1.3-0.7-2.7-1.8-1.5
				c-1.4,1.5-2.5,2.9-7.8,9.5C-298.1,699.2-296.1,700.9-295,699.5L-295,699.5z M-324.5,695.1c0.2-0.2,4.4-3.9,4.5-4.2
				c0-0.4-0.4-0.6-0.6-0.4c-0.1,0.1-4.4,4-4.5,4.2C-325.2,695.1-324.8,695.2-324.5,695.1z M-331.8,673.2c3.5-3,7.1-5.9,10.5-9
				c1.5-1.4-0.4-3.2-1.6-2.2c-3.6,2.9-7.1,5.9-10.7,8.8C-335.1,672.2-333.1,674.3-331.8,673.2L-331.8,673.2z M-353.3,654.2
				c-2.3,1.6-4.7,3.2-7,4.8c-0.4,0.2,0,0.9,0.4,0.6c2.3-1.6,4.6-3.2,7-4.8C-352.6,654.6-352.9,654-353.3,654.2L-353.3,654.2z
				 M-385.6,645.2c7.8-3.8,7.6-3.5,10-4.9c1.2-0.7,0.2-2.9-1.2-2.3c0,0-5.9,2.9-9.7,4.8C-388.3,643.5-386.9,645.8-385.6,645.2
				L-385.6,645.2z M-425.8,645.8c1.4-0.6,3.8-1.5,6.1-2.7c1.3-0.6,0.4-2.4-0.7-1.9c-2,0.9-4.1,1.7-6.2,2.5
				C-427.9,644.3-427.1,646.3-425.8,645.8L-425.8,645.8z M-350.7,640.1c2.9-1.6,5.7-3.2,8.4-5c1-0.7,0.1-2.3-1.1-1.6
				c-2.8,1.7-5.7,3.3-8.5,4.9C-352.9,638.9-352.1,640.9-350.7,640.1z M-386.5,618.9c0.5-0.2,11.8-5.2,12.1-5.7
				c0.3-0.6-0.4-1.2-0.9-0.9c-3.9,1.8-7.8,3.5-11.7,5.2C-388,617.9-387.3,619.3-386.5,618.9z M30.1,778.4c0.3,1.6,2.3,1,2.1-0.2
				c-1-4.7-1.2-5.6-2.1-8c-0.5-1.2-2.2-0.5-1.8,0.7C29,772.9,29.1,773.4,30.1,778.4L30.1,778.4z M-413.5,590.9c3-1.1,6-2.1,9-3.3
				c1-0.4,0.5-2-0.6-1.6c-4.3,1.4-4.3,1.4-9.1,3.1C-415.3,589.4-414.7,591.3-413.5,590.9L-413.5,590.9z M-219.4,789.8
				c-0.7,2.1,2.1,2.7,2.6,1.2c3.5-10.2,4-11.4,4.7-14.1c0.3-1.5-2-2.2-2.5-0.8C-216.5,781.6-215.6,778.9-219.4,789.8L-219.4,789.8z
				 M-238.8,789c-0.5,1.4,1.5,2.1,1.9,0.9c1.2-3.1,2.4-6.2,3.5-9.4c0.5-1.4-1.4-1.9-1.8-0.8C-237,784.2-237.7,786.2-238.8,789
				L-238.8,789z M-255.2,779.2c-1.6,3.6-3.1,7.3-4.7,10.9c-0.7,1.7,1.7,2.6,2.3,1.1c1.5-3.7,3.1-7.3,4.4-11
				C-252.5,778.7-254.6,777.9-255.2,779.2z M-282.7,785.3c0.8-1.7,1.7-3.5,2.5-5.2c0.7-1.4-1.4-2.7-2.3-1c-0.9,1.7-1.8,3.4-2.6,5.2
				C-285.8,785.7-283.5,787-282.7,785.3L-282.7,785.3z M-314.5,795.8c2.2-4.5,4.2-8.1,5.1-9.6c0.6-1.2-1.1-2.2-1.8-1.2
				c-2,2.7-3.9,6.7-5.4,9.8C-317.3,796.2-315.2,797.4-314.5,795.8L-314.5,795.8z M-337.3,777.5c1.4-2,2.8-4,4.2-6
				c1-1.5-0.9-2.6-1.8-1.5c-1.5,1.9-2.9,3.9-4.3,5.9C-340.3,777.3-338.2,778.7-337.3,777.5L-337.3,777.5z M-362.3,768.5
				c2.1-2.4,4.1-4.9,6.2-7.4c0.6-0.7-0.5-1.7-1.1-1c-2.1,2.4-4.2,4.9-6.2,7.3C-364.1,768.2-363,769.3-362.3,768.5z M-387.3,745.6
				c2.1-1.6,4.2-3.3,6.2-4.9c0.8-0.6-0.1-1.7-0.8-1.2c-2.1,1.6-4.2,3.2-6.3,4.9C-388.9,745-388,746.2-387.3,745.6z M-264.8,748.9
				c5.5-8.1,6.1-8.7,7.1-10.6c0.6-1.2-1-2.5-2.1-1.3c-1.2,1.4-1.3,1.9-7.1,10.2C-268,748.8-265.7,750.2-264.8,748.9L-264.8,748.9z
				 M-290.8,746.8c2.2-2.8,4.4-5.6,6.5-8.5c0.7-1-0.6-1.9-1.3-1.1c-2.3,2.8-4.4,5.6-6.6,8.4C-293,746.6-291.5,747.8-290.8,746.8
				L-290.8,746.8z M-317.1,742.3c1.4-1.7,2.7-3.4,4.1-5.1c0.9-1.1-0.7-2.4-1.6-1.3c-1.4,1.7-2.8,3.4-4.1,5.1
				C-319.6,742-318,743.4-317.1,742.3L-317.1,742.3z M-343.5,740.8c1.4-1.7,2.8-3.4,4.2-5.1c0.7-0.9-0.5-2-1.3-1.1
				c-1.5,1.6-2.9,3.4-4.2,5C-345.7,740.6-344.3,741.8-343.5,740.8z M-325.8,723.9c1.7-1.7,3.5-3.4,5.2-5.1c1-1-0.6-2.7-1.6-1.8
				c-1.9,1.7-3.7,3.5-5.4,5.3C-328.7,723.2-327.2,725.2-325.8,723.9L-325.8,723.9z M-357.2,725.9c0.3-0.3,5.1-4.7,5.2-5.2
				c0.1-0.8-0.8-1.2-1.3-0.8c-1.6,1.5-3.3,3-4.9,4.6C-359.2,725.4-357.9,726.5-357.2,725.9z M-380.8,704.4c1.5-1.6,2.9-3.2,4.4-4.8
				c0.7-0.8-0.5-2-1.3-1.1c-1.5,1.6-3,3.2-4.5,4.8C-382.9,704.1-381.6,705.3-380.8,704.4L-380.8,704.4z M-437.6,697.4
				c2.4-1.8,4.9-3.6,7.3-5.4c0.7-0.5,0-1.7-0.8-1.2c-2.5,1.7-4.9,3.5-7.4,5.3C-439.3,696.7-438.4,698-437.6,697.4L-437.6,697.4z
				 M-469.8,682.9c1.3-0.7,2.7-1.3,4-2c1.4-0.7,0.4-2.5-0.7-1.9c-1.3,0.7-2.7,1.3-4,2C-471.9,681.7-470.9,683.5-469.8,682.9z"/>
			<path class="st6" d="M-154.2,468c-10.5,22.6-7.8,47.9-1.9,71.9c4.4,18.2,17.8,52.9,24.5,68.7c36.2,84.1,34.9,93.7,53.6,125.3
				c12.2,20.8,34.2,39.6,55.2,50.8c50.1,26.8,72.3,32,89.8,36.4c54.5,13.8,69.5,24.6,90.1,28.2c23.1,4,29.7,4.6,58.4-6.3
				c21.5-8.2,33-11.3,53.3-65c6.1-16.1,6.4-31.6,8.6-57.2c1.3-15.4,3-28.6-0.2-49.5c1.4,9.3,2.5-41.7-42-81.6
				c-56.7-50.9-114.2-69-196-115.4c-31.6-18-59.2-31.3-95.5-35.3c0,0,0,0,0,0C-87.7,435.4-136.3,429.4-154.2,468L-154.2,468z
				 M231.8,793.4c4.5-11.9,17.6-40.3,24.1-64.9C252.8,763.7,243.3,782.6,231.8,793.4z M-134.1,455.7c20.9-16.2,52.4-13.1,77.4-10.8
				C-8.3,451,10,463.8,67.6,495.6c26.1,14.4,69,33,86.9,43.8c100.8,61,108.6,96.4,103.8,146c0-0.1,0,0,0,0.1v0
				c-5.8,63.6-41.8,149.3-86,144.8c13.5-7.4,29.8-25.3,36.3-44.7c2.3-6.9,20.3-68.2,23.7-98.7c5.3-47.6-26.5-81.3-63.1-113.2
				c-3.1-2.7-37.3-30-60.8-42.7c-58.5-31.5-41.7-23.9-96.1-48.4c-23.3-10.5-25.8-11.9-46.7-17.3c-32-8.3-34-10.6-63.8-6.9
				c-25.3,3.2-54.5,3.3-26.7,102.2c7.8,27.6,11.1,34.1,27.3,59.6c41.5,65,39.6,63.3,55.3,83.1c26.6,33.5,94.1,82.6,120.8,102.2
				C7.5,782.2-29.5,751.6-48.2,727.6C-73,691.4-68,685.3-107.1,609C-126.7,570.9-171.3,488.3-134.1,455.7L-134.1,455.7z
				 M-13.1,721.6c-18.1-15-34.3-33.9-47.5-52.5c0,0.1,0.1,0.1,0.2,0.2C-51.7,679.9-41,686.8-13.1,721.6L-13.1,721.6z"/>
			<path class="st2" d="M-195.4,210.1c-4.7,2.3-10.9,11.5,6.5,13.4c-15.1,0.9-18.1,1.4-22.5,2.7c-6.3,1.9-7.3,4.3-8.5,6.8
				c-1.1,2.2-0.6,3.9,1,4.9c5,3.3,9.3,4.7,15.7,6.1c-11.9,1.4-20,2.6-40.8,5.4c-54.2,7.3-70.6,10-75.6,16c-2.1,2.4-1.4,4.2,1.6,5.5
				c14.5,6,48.9,5.4,64.8,4.7c-1.7,0.2-22.4,3.2-29.2,4.5c-4.5,0.9-7.9,0.6-10.5,2.6c-0.8,0.6-1.5,2.8,0,3.2
				c22.2,6.1,56.2,1.3,79.2-2c-71.7,16.3-71.7,16.5-73.2,20.6c-0.4,1.1,0,1.7,0.8,2.1c8.9,3.9,44.5-3,56.7-5.1l0.2,0
				c-55.3,12.8-50.5,9.9-54.7,15c-0.6,0.7-0.6,1.8,0.8,2.6c-7,1.3-24.4,4.5-31.1,7.4c-10.7,4.5-15.3,15.7-5.6,22.6
				c-2.7,0.5-12.4,2-15.1,3.3c-4.6,2.1-4.6,6.8,0.1,9.8c4.5,2.8,7.4,3.9,12.4,4.8c22,3.9,87.1-9.5,99.8-12.3
				c-35.6,10.1-80.9,18.4-100.5,26.4c-6.2,2.6-6.3,7.4-0.2,10.1C-259.2,419.3-82,337.7-70.6,327c6-5.7,4.6-14-1.4-18.3
				c22.1-8,33.8-12.5,33.8-12.5c12.3-5,7.4-23.1-8.6-20.3c-3.9,0.7-26.1,8.3-29.3,9.4c7-5.5,1.4-12.4-6.8-9.5
				c0,0-125.9,29.2-152.2,34.1c-43.8,8.2-41.2,8.1-44.9,6.7c2.8-3,19.3-4.2,94.9-23.5c21.3-4.4,93.2-24,95.7-24.9
				c1.7-0.6,1.2-3.2-1-3c-0.7,0.1-174.2,45.8-193.5,39.2c9.9-7.3,111-22.8,184-48.7c1.6-0.6,0.8-2.9-0.8-2.6
				c-18,3.4-126.7,41.9-189.6,30.7c2.9-1,2.6-0.5,10.6-1.9c73.9-13.6,52-2.9,197.9-34c3.7-0.8,5.4-2.7,4.1-4.1
				c-3.4-3.8-96.2,19.8-129.6,23.1c-26.6,2.7-78.9,8.7-107.8,0.1c6.7-4.9,33.5-8.4,68.7-13c20.1-2.6,43.9-5.8,61.1-7.2
				c36,3.7,95.2-4,128.7-9.6c4.1-0.7,3.5-6.2-1-5.9c-14.1,0.9-115.8,17.1-153.6,2.1c6.1-2.6,8.9-2.8,70.1-6.7
				c25-0.1,68.1-3.4,68.1-3.4c4-0.6,3.5-5.8-0.1-6c-3.4-0.2-20.5,0.8-25.7,1c-35.5,1.5-43.3,0.4-53.5-0.5c8.1-0.3,55.6-3.2,80-3.8
				c23.1,0.1,23.9,0.8,28.9,0.5c14-1,17.1-20.9,0-23.8C-55.4,188.7-182.5,203.8-195.4,210.1L-195.4,210.1z M-259.1,372.6
				c-26.6,6.7-31.9,8.1-45.7,8.8l155.6-44.8C-188.8,352.3-215.5,360.5-259.1,372.6L-259.1,372.6z M-288,354.6
				c-5.4,0.9-23.4,4-37.6,1.2c2.6-0.6,9.1-2.1,14.9-3.4C-304.1,354-301.4,354.6-288,354.6L-288,354.6z"/>
			<path class="st8" d="M-46.5,286.6c-0.9,0.4-0.4,1.6,0.5,1.5c1.4-0.2,1.2-0.2,4.7-1.5c1.2-0.5,0.5-2.2-0.9-1.7
				C-46.9,286.6-44.9,285.9-46.5,286.6z M-54,289.1c-2,0.7-2.9,1-4.3,1.6c-0.7,0.3-0.3,1.2,0.4,1.1c1.6-0.4,2-0.5,4.6-1.4
				C-52.5,290.1-53,288.7-54,289.1L-54,289.1z M-73.7,295.6c-1,0.5-0.3,1.7,0.7,1.4c0.1,0,3.1-0.9,4.9-1.5c1-0.3,0.6-2.1-0.8-1.6
				C-71.7,294.7-72.6,295-73.7,295.6L-73.7,295.6z M-92.6,301.7c-1,0.4-0.6,2,0.8,1.6l7.3-2c1.1-0.3,0.8-2.2-0.9-1.8
				C-90.9,301.1-91.6,301.3-92.6,301.7L-92.6,301.7z M-106.2,305.9c-0.9,0.3-0.4,1.5,0.4,1.4c1-0.2,2-0.5,3-0.8
				c0.9-0.3,0.6-1.8-0.7-1.4C-104.3,305.3-105.2,305.6-106.2,305.9L-106.2,305.9z M-129.5,312.4c-0.8,0.2-0.5,1.5,0.4,1.4
				c1.6-0.2,3-0.4,9.4-2c1.4-0.3,0.7-1.9-0.3-1.6C-123,310.9-129.5,312.4-129.5,312.4L-129.5,312.4z M-141.9,316.6
				c0.7-0.1,1.4-0.2,2.1-0.3c0.7-0.1,0.5-1-0.1-0.9c-0.7,0.1-1.4,0.2-2.1,0.4C-142.7,315.9-142.5,316.7-141.9,316.6z M-163.7,320.8
				c-0.4,0.1-0.6,0.1-0.8,0.4c-0.4,0.5,0,1.3,0.8,1.2c1.6-0.2,3-0.5,9.5-2c1.4-0.3,0.7-1.8-0.3-1.6
				C-155.2,318.9-164.9,321.1-163.7,320.8L-163.7,320.8z M-175.3,323.6c-1.9,0.4-3.8,0.7-5.6,1.2c-0.8,0.2-0.6,1.5,0.5,1.4
				c1.8-0.2,3.6-0.6,5.4-1C-173.6,325-174.2,323.4-175.3,323.6L-175.3,323.6z M-191.2,327c-5.6,1.1-6.6,1.4-8,1.8
				c-1,0.3-0.8,1.9,0.6,1.8c1.3-0.1,1.8-0.3,7.8-1.5C-189.1,328.7-189.9,326.7-191.2,327L-191.2,327z M-211.3,330.9
				c-8.3,1.4-7.2,1.2-9.8,1.9c-0.8,0.2-0.7,1.6,0.5,1.5c2.1-0.1,2.1-0.1,9.7-1.4C-209.3,332.8-209.9,330.7-211.3,330.9L-211.3,330.9
				z M-240.5,338.4c2-0.2,4-0.5,6-0.7c1.3-0.2,1-1.9-0.3-1.8c-2,0.3-4,0.5-6,0.9C-241.8,337-241.6,338.5-240.5,338.4L-240.5,338.4z
				 M-254.6,341.8c1.8-0.3,1.2-2.6-0.4-2.3c-5.5,0.9-5.2,0.7-7.7,1.3c-1,0.4-0.9,2,0.6,1.9C-261.1,342.7-260.6,342.7-254.6,341.8
				L-254.6,341.8z M-276.6,342.5c-2.2,0.2-4.4,0.4-6.6,0.7c-1.1,0.1-1.2,1.8,0.3,1.8c2.7,0,4.7-0.2,6.6-0.4
				C-274.9,344.4-275,342.3-276.6,342.5L-276.6,342.5z M-296.3,344.9c-1.8,0.1-3.5,0.1-5.3,0.2c-1.2,0.1-1,1.8,0,1.8
				c1.8,0,3.7-0.1,5.5-0.1C-294.8,346.7-294.7,344.9-296.3,344.9z M-85.2,288.7c-1.5,0.5-3,1-4.5,1.5c-0.7,0.2-0.5,1.4,0.6,1.1
				c1.5-0.4,3-0.9,4.5-1.4C-83.8,289.7-84.1,288.4-85.2,288.7L-85.2,288.7z M-100.9,295.1c1-0.3,0.8-2.1-0.8-1.7
				c-4.2,1.1-5.8,1.5-7.1,1.9c-1,0.4-0.6,1.8,0.5,1.6C-107,296.8-106.4,296.6-100.9,295.1L-100.9,295.1z M-120.4,299.7
				c0.7-0.2,0.5-1.4-0.6-1.1c-0.7,0.2-3.5,0.9-5.5,1.5c-0.7,0.2-0.4,1.2,0.4,1.1C-124.5,300.8-123.1,300.4-120.4,299.7L-120.4,299.7
				z M-146,305.3c2.4-0.4,4.8-0.9,7.1-1.3c0.8-0.2,0.5-1.2-0.2-1.1c-2.4,0.5-4.7,0.9-7.1,1.5C-146.9,304.6-146.6,305.4-146,305.3
				L-146,305.3z M-157.5,306.4c-2.5,0.5-5,1-7.5,1.5c-1.7,0.4-0.9,2.3,0.3,2c2.5-0.5,5-1,7.5-1.4
				C-155.5,308.2-156.1,306.2-157.5,306.4z M-182.3,312.6c-0.8,0.2-0.5,1.1,0.2,1c1.7-0.3,3.4-0.6,5-0.9c0.9-0.2,0.6-1.3-0.2-1.2
				C-179,311.9-180.7,312.2-182.3,312.6L-182.3,312.6z M-201.7,318.1c2.7-0.6,5.5-1,8.3-1.5c1.6-0.3,1.1-2.3-0.3-2.1
				c-2.8,0.5-5.5,0.9-8.3,1.3C-203.8,316.1-203.2,318.5-201.7,318.1L-201.7,318.1z M-212.1,317.9c-1.3,0.2-2.6,0.4-4,0.6
				c-1.5,0.2-1.1,2.2,0.3,2c1.3-0.1,2.6-0.3,4-0.5C-210.3,319.8-210.6,317.7-212.1,317.9L-212.1,317.9z M-238,324.5
				c2.7-0.3,5.4-0.7,8.1-1.1c1.5-0.2,1-2.2-0.3-2c-2.7,0.4-5.4,0.8-8.1,1.4C-239.6,323.1-239.2,324.7-238,324.5L-238,324.5z
				 M-248.2,325.2c-1.4,0.2-2.7,0.5-4.1,0.7c-1,0.2-0.8,1.5,0.2,1.4c1.4-0.1,2.8-0.3,4.1-0.6C-246.8,326.5-247.1,325-248.2,325.2
				L-248.2,325.2z M-270.7,329.4c-5.2,0.6-7.3,0.8-10.3,1.5c-1.1,0.2-0.9,1.6,0.3,1.6c3.4-0.1,6-0.4,10.4-0.9
				C-268.8,331.4-269,329.2-270.7,329.4z M-294.3,333.1c-1.4,0.1-2.9,0.1-4.3,0.4c-1.4,0.2-1.1,1.9,0,1.9c1.5,0.1,3.1,0,4.6-0.1
				C-292.5,335.2-292.4,332.9-294.3,333.1z M-90.7,312.6c-0.7,0.3-0.3,1.3,0.4,1.1c0.1,0,4.4-0.8,8.4-1.7c1.2-0.3,0.6-1.6-0.2-1.4
				C-88,311.8-88.6,311.8-90.7,312.6L-90.7,312.6z M-105.3,316.3c-0.7,0.3-0.4,1.3,0.4,1.2c1.3-0.2,2.6-0.5,3.8-0.8
				c1.2-0.3,0.6-1.6-0.2-1.4C-103.6,315.9-103.6,315.9-105.3,316.3L-105.3,316.3z M-128,323c-0.9,0.3-0.5,1.6,0.5,1.5
				c0.7-0.1,7.9-1.7,8.5-1.9c1.4-0.3,0.7-1.9-0.3-1.6C-124.4,322.1-126.5,322.5-128,323z M-145.1,327.2c-3.8,1-4,1-6,1.6
				c-0.6,0.2-0.2,1,0.3,0.9c2-0.5,3.9-1,5.9-1.5C-144.1,328-144.5,327-145.1,327.2L-145.1,327.2z M-178.8,334.8
				c-1.1,0.4-0.7,2.1,0.6,1.9c2.5-0.4,5-0.9,7.5-1.5c1.8-0.4,1-2.5-0.4-2.3C-173,333.5-176.4,334.1-178.8,334.8z M-200.1,340.8
				c1.5-0.2,3.1-0.5,4.6-0.9c1.6-0.4,0.8-2.1-0.3-1.9c-1.5,0.3-3,0.7-4.5,1C-201.7,339.4-201.2,340.9-200.1,340.8L-200.1,340.8z
				 M-223.4,342.4c-3,0.6-3.9,0.8-6.2,1.4c-1.2,0.5-0.9,2.2,0.7,2.1c2-0.1,4-0.5,5.9-0.9C-220.9,344.6-221.8,342.1-223.4,342.4
				L-223.4,342.4z M-248.5,350.6c0.8,0,1.6-0.1,2.4-0.2c1.4-0.2,1.2-2.2-0.3-2c-0.8,0.1-1.6,0.2-2.4,0.3
				C-250,348.9-250,350.7-248.5,350.6z M-269,352.8c-1.4,0.1-2.8,0.2-4.1,0.3s-1.2,2.1,0,2.1c1.5,0,3-0.1,4.5-0.2
				C-267.2,354.9-267.2,352.7-269,352.8L-269,352.8z M-79.2,319.7c-0.7,0.4-0.2,1.2,0.4,0.9c1.6-0.7,5.8-2.7,7.4-3.4
				c0.8-0.4,0.2-1.3-0.5-1C-76.9,318.6-76.9,318.5-79.2,319.7z M-90.7,325c-1,0.4-0.4,1.7,0.7,1.4c1.2-0.5,2.4-0.9,3.6-1.4
				c1-0.4,0.4-1.8-0.7-1.4C-88.3,324.1-89.5,324.6-90.7,325L-90.7,325z M-105.2,331.9c-0.9,0.4-0.3,1.6,0.6,1.3c2-0.7,4-1.6,6-2.5
				c1-0.5,0.2-1.7-0.6-1.3C-102.4,330.8-103.6,331.2-105.2,331.9z M-119.5,338.6c-0.8,0.3-0.4,1.5,0.6,1.2c1-0.3,1.7-0.5,7.4-2.8
				c0.9-0.4,0.3-1.7-0.6-1.3C-117.7,337.8-118,337.9-119.5,338.6L-119.5,338.6z M-132.5,344.4c-0.7,0.4-0.1,1.5,0.8,1.2
				c1.4-0.6,2.8-1.3,4.2-2c1.1-0.5,0.2-1.8-0.7-1.4C-129.7,342.9-131.1,343.6-132.5,344.4z M-147.1,350.5c-0.6,0.4-0.2,1.6,0.8,1.2
				c2.1-0.6,3.5-1.3,5.7-2.2c1.3-0.5,0.3-2.2-0.8-1.7C-143.3,348.6-144.8,349.2-147.1,350.5L-147.1,350.5z M-158.8,355.5
				c-0.8,0.3-0.4,1.5,0.6,1.2c0.9-0.3,1.8-0.6,2.7-1c0.9-0.3,0.4-1.7-0.6-1.3C-157,354.8-157.9,355.2-158.8,355.5z M-175.3,361.5
				c-1.2,0.6-0.6,2.2,0.9,1.8c1.5-0.4,2.8-1,7.8-3c1.5-0.6,0.5-2.6-1-2C-170.2,359.3-172.8,360.3-175.3,361.5L-175.3,361.5z
				 M-188.9,367.2c-0.6,0.2-0.2,1.1,0.4,0.8c1.7-0.6,3.4-1.2,5-1.9c0.6-0.2,0.2-1.2-0.5-0.9C-185.6,365.9-187.2,366.6-188.9,367.2z
				 M-206.2,372.7c-1,0.4-0.4,1.6,0.5,1.5c1.3-0.2,2.4-0.6,7.8-2.5c1.1-0.4,0.5-2.1-0.8-1.6C-204.5,372-204.2,371.8-206.2,372.7z
				 M-221.2,377.1c-0.9,0.3-0.5,1.8,0.7,1.4c1.2-0.4,2.4-0.7,3.6-1.1c1-0.3,0.5-1.9-0.7-1.5C-218.9,376.3-220.1,376.7-221.2,377.1
				L-221.2,377.1z M-242.6,383.5c-0.7,0.2-1.1,1.9,1.7,1.3c2.1-0.5,2.9-0.8,8.7-2.6c1.1-0.3,0.7-2.1-0.8-1.7
				C-237.6,381.9-242.8,383.5-242.6,383.5z M-250.4,385.2c-4.7,1.1-4.5,1.1-5.4,1.4c-0.7,0.3-0.5,1.4,0.4,1.2c1-0.1,1.4-0.2,5.2-1.1
				C-248.9,386.4-249.6,385-250.4,385.2L-250.4,385.2z M-264.7,387.5c-1.4,0.3-2.9,0.5-4.3,0.8c-0.3,0.1-0.6,0.2-0.8,0.4
				c-0.2,0.2-0.3,0.5-0.2,0.8c0.1,0.6,0.7,1,1.4,0.9c1.4-0.2,2.9-0.4,4.3-0.7C-262.5,389.5-263.1,387.2-264.7,387.5L-264.7,387.5z
				 M-279.8,390c-1.8,0.2-3.7,0.5-5.5,0.7c-0.8,0.1-0.7,1.2,0,1.2c2.5,0,3.6-0.1,5.7-0.4C-278.4,391.4-278.7,389.9-279.8,390
				L-279.8,390z M-295.1,391c-1.6-0.1-3.2-0.2-4.7-0.3c-0.9,0-1.1,1.1-0.2,1.3c1.1,0.3,2,0.4,4.7,0.5
				C-294.1,392.6-294.2,391.1-295.1,391z M-313,389.9c1.4,0.4,2.3,0.5,4,0.8c1,0.2,1.4-1.3,0.2-1.5c-1.3-0.2-2.5-0.4-3.8-0.5
				C-313.5,388.6-313.7,389.8-313,389.9L-313,389.9z M-319,387.5c-0.3-0.1-0.6-0.2-0.9-0.2c-0.6-0.2-0.9,0.6-0.3,0.8
				c0.3,0.1,0.6,0.2,0.8,0.2C-318.7,388.5-318.5,387.7-319,387.5L-319,387.5z"/>
			<path class="st2" d="M-109.6,323.7c-9.7,2-20,8.5-21.1,19c-1.7,5.1-1.6,13.5,2.9,23.2c-3.1,0.1-6.3,0.7-9,2.2
				c-4.6,2.5-8.2,6.2-7.2,18.2c2.7,32.7,5.7,36.4,12.1,42.9c4.2,4.3,9.9,5,14.8,3.3c-4.2,14.3-2.1,24.8,2.5,33.4
				c-2.4,2.9-2.8,6.8-3,10c-0.4,9.9,1.6,14.2,11.3,20.3c-4.6,5.1-7.9,10.8-10,16.9c-5.3,15.1-4,20.7-3.1,26.4
				c2.2,14.8,4.8,20.9,17.3,19.5c19.2,23.6,31.1,35.5,79.4,49.8c16.9,5,26.7,1.9,34.7-2.7c13.2-7.7,21-20.2,22.1-30.9
				c0.8-7.2,0.5-14.8-9.4-25c-6.8-7-16.9-12.4-26-14.8c8.9-8.3,19.8-19.4,20.1-38.6c0.3-17.8-20.9-25.1-34.9-26.9
				c4.4-10.1-0.6-18.4-8.2-26.2c-10.3-10.5-22-14.3-36-18.3c9.7-12.4,11.9-21.4,13.6-27.7c7.2-26.7-23.2-26.6-35.6-19.9
				c2.3-10,3.5-20.6-2.6-28.4c2.6-6.5,2.6-14.4,1.7-17.2C-86.3,323.4-102.6,322.2-109.6,323.7L-109.6,323.7z M-86.8,380.5
				c-1.1,0.8-2.3,1.7-3.9,3.2c-3.4-4.4-7.9-8.9-12.9-11.9c2.3-1.5,3.4-2.4,4.2-3.1c9.6-0.4,13.6-12.4,13.3-16.8
				C-82,359-83.2,368-86.8,380.5L-86.8,380.5z M-124.2,367.4c4.9,0.3,10,1.5,14.8,3.7C-116.5,374.1-120.7,372.7-124.2,367.4z
				 M-63.3,424.6c-5.2-1.5-11-3.2-16.1-4.1c-0.8-10.4-2-20.5-7-30.2c1.1-3.1,2.4-6.8,3.2-10.1c7.4-4.6,17.6-5.3,25.6-2.8
				c12.5,4.3,9.5,14.4,6.8,24C-53.3,409.3-56.6,416-63.3,424.6L-63.3,424.6z M-88.8,386.3c-0.3-0.4-0.5-0.8-0.8-1.2
				c0.6-0.5,1.2-1,1.8-1.5C-88.1,384.5-88.4,385.4-88.8,386.3L-88.8,386.3z M-91.8,387.1c0.5,0.9,1.1,1.7,1.6,2.7c0,0,0,0,0,0
				c-3.9,9.5-10.5,24.6-17.9,31.6c-1.5,0.7-2.7,1.7-3.7,2.8C-106.4,408-102.6,398-91.8,387.1L-91.8,387.1z M-101.4,420
				c5.3-6.8,10.1-17.3,13.4-25.4c3.1,8,4,16.7,4.4,25.4C-84.5,419.9-92.8,419-101.4,420L-101.4,420z M-66.3,428.3
				c-4,4.6-8.4,8.9-13.3,12.5c0.4-4.2,0.7-10.6,0.4-16.4C-74.3,425.6-71.1,426.7-66.3,428.3L-66.3,428.3z M-20.9,469.5
				c-15.6-1-41.7,1.7-46.2,2.7c-4.7-5-12.2-6.9-18.9-8c2.6-5.8,4.9-13,5.9-20.3c6-3.9,11.6-9.3,16.3-14.7c17.1,5.9,27,9,37.9,20.5
				C-20.3,456-17.2,461.9-20.9,469.5L-20.9,469.5z M-21.7,470.9c-7.9,12.3-23.3,19.3-36.9,23.7c-0.3-7.6-2.6-15.4-7.5-21.3
				C-60.4,472.3-35.3,470-21.7,470.9z M-3.8,534.8c-21.2-5.2-56.3-0.1-67.7,2.5c6.9-10.7,12.7-27.7,12.9-39.8
				c14.4-3.8,34-13,41.5-26.3c15.5,1.9,34.2,9.4,33.9,25.5C16.2,513.9,8,523.8-3.8,534.8L-3.8,534.8z M-97.2,563
				c4.5,2.5,12.2,4.5,23.4,3.4c37.6-3.8,51.1-13,62.5-22.4c22.6,3.6,34.1,13,39.2,22c7.6,15.5-6.8,38.1-26.5,43.1
				c-7.4,1.7-16.6,0.5-23.6-1.5C-68,594-81.4,582.2-97.2,563L-97.2,563z M-76.1,543.9c16-2.8,49.3-1.5,62-0.3
				c-16.2,11.6-22.2,15.3-59,20.1c-10.7,1.4-22.6-0.9-25.8-5.3C-89.9,556.5-83.4,553-76.1,543.9L-76.1,543.9z M-96.1,552.3
				c2.7-2.2,6.6-4.5,11-6.2C-88.9,549.4-91.9,551-96.1,552.3z M-105,497c10.5,6.3,17.9,5.5,28.2,4.3c3.1-0.4,10.1-1.5,15.4-2.9
				c-0.9,10.1-7.8,28.9-17.5,41.1c-12,3.9-20.2,10.9-22.2,14.1c-3.4,0.6-7.7,1-10.2-1.3c-3.7-4.6-6.6-17.3-6.5-22.7
				C-117.4,518.3-113.2,506.2-105,497z M-103.8,495.6c9.3-9.8,25.9-19.7,35.6-21.8c5.1,6,6.9,13.7,6.9,21.6
				c-5.3,1.6-12.4,2.9-15.7,3.4C-87.7,500.2-93.9,501-103.8,495.6L-103.8,495.6z M-113.9,467.2c8.8,14.6,20.8,10.6,27.2-1.5
				c6,1,13.1,2.7,17.5,7c-11.8,3.1-27,12.9-35.9,22.2c-9.8-5.8-11.4-9.9-11.1-19.3c0,0,0,0,0,0C-116.2,473-115.5,469.3-113.9,467.2
				L-113.9,467.2z M-92.2,464.8c-6.5,9.4-12.1,7.6-17.6-0.3C-105.6,463.2-96.6,464.3-92.2,464.8z M-115.3,438.6
				c1.8,7.3,14.8,15.3,29.9,8.3c-1.4,6.4-4.8,14.4-5.9,16.5c-5.2-0.7-14.3-1.6-19.2,0C-115.5,456-116.5,447.3-115.3,438.6
				L-115.3,438.6z M-112.4,430.1c1.8-1.1,4.2-3,8.1-7c4-0.6,13-0.8,20.8,0.4c0,0,0,0,0,0.1c0.2,9.2-0.4,14.3-1.4,20.4
				C-99.5,451.8-118,445.5-112.4,430.1L-112.4,430.1z M-136.8,369.5C-136.8,369.5-136.8,369.5-136.8,369.5
				C-136.8,369.5-136.8,369.5-136.8,369.5z M-127.1,367.2c4.2,8.6,10.6,11.6,21.3,5.8c0,0,0,0,0,0c5,3,9.5,7.7,12.9,12.6
				c-7.3,6.9-14.3,15.6-22.9,42.2c-4.6,2.8-9.4,2.6-12.7,0.6c-10.3-7-11.1-17.4-13.9-38.2C-144.2,376.5-141.8,367.2-127.1,367.2
				L-127.1,367.2z M-130,350.6c3.2,10.9,14.1,16.7,25.3,17.9c-1,0.7-2.1,1.4-2.4,1.5c-6.4-2.9-11.6-3.8-18-4
				C-128,361-129.9,355.9-130,350.6L-130,350.6z M-88.6,350.9c-2.7,4.8-5.8,9.1-12,14.4c-10.9,0-23.2-5.5-26.1-16.2
				C-115,340.1-90.7,344.9-88.6,350.9z M-97.7,342.9c-9.3-2.2-20.8-2-29.5,3.2c-0.2-2.1,0.1-4.9,0.6-6.6
				C-120.5,337-104.4,340.1-97.7,342.9L-97.7,342.9z M-84.8,332.8c0.9,4.1-0.4,10.6-2.1,14.7c-2-2-4.5-3.7-7-4.9
				c-8.7-4.2-25.9-6.6-32-4.7c2.5-6.2,11-10.6,17.3-12.2C-100.9,324.2-87.1,325.1-84.8,332.8L-84.8,332.8z"/>
			<path class="st6" d="M-298.7,439.9c0.1-3-4.4-3.2-4.5-0.1C-303.2,442.8-298.8,442.9-298.7,439.9z M-135.3,570.4
				c0.1-3-4.4-3.2-4.5-0.1C-139.9,573.3-135.4,573.5-135.3,570.4z M-204.7,560.6c0.2-5.8-8.5-6.1-8.6-0.2
				C-213.5,566.2-204.8,566.5-204.7,560.6z M-45.7,484.1c0.1-3-4.4-3.2-4.5-0.1C-50.2,487-45.7,487.2-45.7,484.1z M42.4,607.4
				c0.1-3-4.4-3.2-4.5-0.1C37.9,610.3,42.3,610.4,42.4,607.4z M84.2,359.3c0.1-3-4.4-3.1-4.5-0.1C79.6,362.2,84.1,362.3,84.2,359.3z
				 M-119.9,708.5c0.1-3-4.4-3.2-4.5-0.1C-124.5,711.4-120,711.5-119.9,708.5z M-37.2,620.8c0.1-5.6-8.1-5.8-8.3-0.2
				C-45.6,626.2-37.4,626.5-37.2,620.8z M-156.5,389.8c0.2-6.7-9.8-7-10-0.3C-166.7,396.3-156.7,396.6-156.5,389.8z M-184.2,501.3
				c0.1-4.9-7.1-5.1-7.2-0.2C-191.6,506-184.3,506.2-184.2,501.3z M-106.4,452c0.1-3.5-5.1-3.6-5.1-0.1
				C-111.7,455.3-106.5,455.4-106.4,452z M-65.6,365.4c0.1-5.5-7.9-5.7-8-0.2C-73.8,370.7-65.8,370.9-65.6,365.4z M-148.7,428.6
				c0.2-8.3-12.1-8.7-12.3-0.3C-161.3,436.6-149,437-148.7,428.6z M-189.9,421.3c0.1-5.3-7.7-5.5-7.8-0.2
				C-197.9,426.4-190.1,426.6-189.9,421.3z M-226.5,409.6c0.1-3.6-5.2-3.8-5.3-0.2S-226.6,413.2-226.5,409.6z M-172.9,556.4
				c0.1-4-5.8-4.2-5.9-0.2C-178.9,560.3-173,560.4-172.9,556.4z M-154.7,525.7c0.2-8.8-12.8-9.2-13-0.4
				C-167.9,534.1-154.9,534.5-154.7,525.7z M-256.8,483c0.1-3-4.4-3.2-4.5-0.1C-261.3,485.9-256.9,486-256.8,483z"/>
			<path class="st9" d="M-478.1,438.1c0.5-7.8-8.9-8.9-10.2-1.2C-489.5,443.9-478.6,444.7-478.1,438.1z M-487.8,452.3
				c-2.3-0.3-2.8,3.5-0.4,3.7C-485.9,456.3-485.5,452.6-487.8,452.3z M-404.1,421.5c3.8,0.5,4.5-5.6,0.7-6.1
				C-407.3,415-408,421-404.1,421.5z M-456.8,439.2c4,0.5,4.7-5.9,0.7-6.4S-460.8,438.7-456.8,439.2z M-425.1,457.5
				c0.3-4.3-5.6-4.4-5.9-0.7C-431.3,461-425.4,461.2-425.1,457.5z M-421.3,417.4c0.5-7.5-9.8-7.7-10.3-1.2
				C-432.1,423.7-421.7,423.9-421.3,417.4z M-383.6,340.7c-2.3-0.3-2.7,3.4-0.4,3.7C-381.8,344.6-381.3,341-383.6,340.7z
				 M-444.1,541.6c0.5-7.7-10.1-7.9-10.5-1.3C-455.2,548-444.6,548.2-444.1,541.6z M-490.1,609.3c-2.7-0.3-3.2,4-0.5,4.3
				C-487.9,613.9-487.4,609.6-490.1,609.3z M-449.8,386.3c-2.5-0.3-3,3.7-0.5,4C-447.7,390.6-447.2,386.6-449.8,386.3z
				 M-390.6,469.8c-2.2-0.3-2.6,3.3-0.4,3.6S-388.3,470.1-390.6,469.8z M-463.7,458.9c-2.2-0.3-2.6,3.2-0.4,3.5
				C-461.9,462.7-461.5,459.2-463.7,458.9z M-450.7,515.4c-2.5,0.5-3.6,4.1-0.1,5.7C-446.3,523.2-444.7,514.3-450.7,515.4z
				 M-481.2,484.7c0.6-8.3-10.9-8.5-11.4-1.4C-493.2,491.6-481.7,491.9-481.2,484.7z"/>
			<path class="st10" d="M114,707.5c-6.4,0.3-6.4,8.5,0,8.8C119.8,716.7,119.5,707.3,114,707.5z M113.8,688.4c0-3.2-4.9-3.3-4.9,0
				S113.8,691.6,113.8,688.4z M137.8,693.2c0-2.3-3.4-2.3-3.4,0C134.4,695.5,137.8,695.5,137.8,693.2z M130.7,718.6
				c0,2.4,3.7,2.4,3.7,0C134.3,716.2,130.7,716.2,130.7,718.6z M161.3,719.9c7.2-0.3,6.3-10.7,0.1-10.5
				C154.1,709.7,155.1,720.2,161.3,719.9z M127,669c-4,0.2-3.5,6,0,5.8C131,674.7,130.5,668.8,127,669z M89.7,656.3
				c-7.3,0.3-6.4,10.9-0.1,10.6C96.9,666.7,96,656.1,89.7,656.3z M90.6,636.9c0-4.2-6.3-4.2-6.3,0C84.3,641,90.6,641,90.6,636.9z
				 M139,617.6c0-2.6-3.9-2.6-3.9,0C135.1,620.2,139,620.2,139,617.6z M72.4,572.4c0-4-6-4-6,0C66.3,576.3,72.4,576.4,72.4,572.4z
				 M193.2,673.1c1.5-4.9-7.3-5.5-5.6,0.5C188.4,676.1,192.1,676.8,193.2,673.1z M212.2,674.9c7.5-0.3,6.5-11.1,0.1-10.9
				C204.8,664.3,205.7,675.1,212.2,674.9z M238.6,698.5c-2.1-2.2-6.2,0.9-3,4.2C237.8,704.9,241.8,701.8,238.6,698.5z M237.3,331.9
				c0-4-6-4-6,0S237.3,335.9,237.3,331.9z M28.3,418.3c0-2.9-4.3-2.9-4.4,0C23.9,421.1,28.2,421.1,28.3,418.3z"/>
			<path class="st11" d="M111.8,786.2c0-4-6.1-4.1-6.1,0S111.7,790.2,111.8,786.2z M126.5,768.8c0-4.9-7.4-5-7.4,0
				C119,773.7,126.4,773.7,126.5,768.8z M141.6,794.3c0-3.2-4.8-3.2-4.8,0S141.6,797.4,141.6,794.3z M230.2,751.4c0-4-6-4-6,0
				C224.1,755.4,230.2,755.4,230.2,751.4z M273.7,836.1c0-3.4-5.1-3.4-5.1,0S273.7,839.4,273.7,836.1z M69.3,742.6
				c0-3.7-5.5-3.7-5.5,0C63.7,746.3,69.3,746.3,69.3,742.6z M51,718.9c0-4.4-6.6-4.4-6.6,0C44.4,723.2,51,723.3,51,718.9z"/>
			<path class="st12" d="M-65.5,30.9c-0.9,0.1-1.6,0.3-2.5,0.2c3-3.1,4.8-7.3,4.9-11.7c-2.4,3.4-4.8,7-5.6,11.2
				c-0.2-0.7-0.5-1.3-0.9-1.9c-2.8-4.7-4.4-5.4-5.5-6.3c-0.4-0.3-1.1-1.2-2.1-1.8c0.2,3.5,4.9,8.1,7.7,10.4
				c-4.2,0.1-6.1-1.2-9.4-0.8c-0.9,0.1-1.7,0.5-2.5,0.8c1.4,0.3,2.8,0.5,4.1,1c3,1.1,3.8,0.4,7.6-0.4c-3.2,3.3-2.9,3.1-5.9,10
				c4.2-3.7,5.6-6,6.8-9.4c-0.3,2.8-0.8,6.6,2.7,10.7c0,0,0.4-3.5-0.6-6.8c-0.1-0.2-0.5-2.4-1.2-4.2c1.5,0.6,2.5,1,4,1
				c3.1-0.1,6.7-1.2,6.7-1.2C-59.8,31-62.6,30.6-65.5,30.9L-65.5,30.9z M-376.1-11c0.3-0.6,0.6-1.3,0.8-2c1.3-5.3,0.7-7,0.6-8.3
				c0-0.5,0.1-1.6-0.2-2.8c-2.3,2.7-2.3,9.2-1.9,12.8c-3-2.9-3.5-5.1-6.1-7.2c-0.7-0.6-1.5-0.8-2.3-1.2c0.7,1.2,1.6,2.3,2.2,3.6
				c1.4,2.9,2.4,3,5.6,5.1c-4.6,0-4.2,0.2-11.3,2.9c5.6,0.4,8.2-0.3,11.4-1.8c-2.2,1.8-5.2,4.1-5.7,9.5c0,0,2.7-2.2,4.4-5.2
				c0.1-0.2,1.4-2,2.1-3.8c0.6,1.5,1.1,2.5,2.1,3.5c2.2,2.1,5.6,3.9,5.6,3.9c-1.3-2.4-3.1-4.7-5.3-6.5c-0.7-0.6-1.4-0.9-1.9-1.6
				c4.3,0,8.6-1.8,11.7-4.8C-368.4-14.2-372.7-13.4-376.1-11L-376.1-11z M-207.8,148.6c3.2-3.3,2.9-3.1,5.9-10
				c-4.2,3.7-5.6,6-6.8,9.4c0.3-2.8,0.8-6.6-2.7-10.7c0,0-0.4,3.5,0.6,6.8c0.1,0.2,0.5,2.4,1.2,4.2c-1.5-0.6-2.5-1-4-1
				c-3.1,0.1-6.7,1.2-6.7,1.2c2.6,0.8,5.5,1.1,8.3,0.9c0.9-0.1,1.6-0.3,2.5-0.2c-3,3.1-4.8,7.3-4.9,11.7c2.4-3.5,4.8-7,5.6-11.2
				c0.2,0.7,0.5,1.3,0.9,1.9c2.8,4.7,4.4,5.5,5.5,6.3c0.4,0.3,1.1,1.2,2.1,1.8c-0.2-3.5-4.9-8.1-7.7-10.4c4.2-0.1,6.1,1.2,9.4,0.8
				c0.9-0.1,1.7-0.5,2.5-0.8c-1.4-0.3-2.8-0.5-4.1-1C-203.2,147.2-204,147.8-207.8,148.6L-207.8,148.6z M-165.8,631.8
				c2.2-1.8,5.2-4.1,5.7-9.5c0,0-2.7,2.2-4.4,5.2c-0.1,0.2-1.4,2-2.1,3.8c-0.6-1.5-1.1-2.5-2.1-3.5c-2.2-2.1-5.6-3.9-5.6-3.9
				c1.3,2.4,3.1,4.7,5.3,6.5c0.7,0.6,1.4,0.9,1.9,1.6c-4.3,0-8.6,1.8-11.7,4.8c4.1-0.8,8.4-1.6,11.8-4c-0.3,0.6-0.6,1.3-0.8,2
				c-1.3,5.3-0.7,7-0.6,8.3c0,0.5-0.1,1.6,0.2,2.8c2.3-2.7,2.3-9.2,1.9-12.8c3,2.9,3.5,5.1,6.1,7.2c0.7,0.5,1.5,0.8,2.3,1.2
				c-0.7-1.2-1.6-2.3-2.2-3.6c-1.4-2.9-2.4-3-5.6-5.1c4.6,0,4.2-0.2,11.3-2.9C-159.9,629.6-162.5,630.3-165.8,631.8L-165.8,631.8z
				 M62.6,256.1c-2.8-3.3-4.4-4.5-8-4.7c-0.9-0.1-1.9-0.2-2.8-0.1c0.9-1,2.1-2.7,2.3-4.3c0.1-0.8,0.1-1.6,0.3-2.4
				c0.1-0.7,0.1-1.3,0-2c-3.1,2.9-3.8,6.4-3.7,8.3c-2.9-2.2-3.5-1.9-4.9-2.1c-0.6-0.1-1.2-0.3-1.9-0.2c-0.6,0-1.1,0.2-1.6,0.4
				c0.5,0.6,1,1,1.6,1.5c1.6,1.1,4,1.9,6.5,1.6c-0.2,0.5-0.6,1.2-0.7,1.4c-0.5,1.2-0.9,2.6-1,3.9c-0.1,1.7,0,3.5,0.4,5.2
				c0.6-0.5,1-1.1,1.4-1.9c0.8-1.8,1.6-3.3,1.4-6.2c0-0.4-0.2-1.4-0.5-2c1,0.9,2.4,1.9,3.7,2.4c1.3,0.5,2.8,0.7,4.2,1
				c1,0.2,2.1,0.5,3.2,0.4C62.6,256.1,62.6,256.1,62.6,256.1L62.6,256.1z M-244.9,647.2c-0.8,0.5-1.6,1-2.3,1.5
				c0.1-1.3,0.1-3.4-0.6-4.8c-0.4-0.7-0.9-1.4-1.2-2.1c-0.3-0.6-0.7-1.1-1.2-1.7c-0.8,4.2,0.6,7.4,1.9,8.9c-3.6-0.1-3.9,0.5-5.1,1.2
				c-0.5,0.3-1.2,0.5-1.6,0.9c-0.4,0.4-0.8,0.8-1.1,1.2c0.7,0.2,1.4,0.3,2.2,0.3c2,0,4.3-0.8,6.2-2.5c0.1,0.5,0.2,1.3,0.3,1.5
				c0.3,1.3,0.8,2.6,1.5,3.7c0.9,1.5,2,2.8,3.3,4c0.2-0.7,0.2-1.5,0-2.3c-0.4-1.9-0.7-3.6-2.5-5.9c-0.2-0.3-1-1-1.6-1.4
				c1.4,0.1,3.1,0.2,4.4-0.2c1.4-0.4,2.7-1.1,4-1.6c1-0.4,2-0.8,2.8-1.5c-0.1,0-0.1,0-0.2,0C-239.9,645.4-241.9,645.3-244.9,647.2
				L-244.9,647.2z"/>
			<path class="st13" d="M60.4,463.1c-0.3,2,3.9,6.6,5.3,8.2c2,2.3,3.5,4.6,5.5,7.5c1,1.5,3.1,3.5,5.1,4.2c0.3-1,0-2.7-0.4-3.6
				c-0.6-0.8-2.4-1-3-1.8c-0.8-1.1-1.2-2.5-2-3.1c-3.2-2.7-4.6-4.4-6.2-9.1c2.3,0.7,7.3,5.4,9.5,6.2c1.7,0.7,2.7-0.2,3.5,0.5
				c1.6,1.5,2.5,4,6.6,6.2c4.7,2.5,6.7,1.4,8.3,3.3c1.1,1.3,0.5,4,2.3,6.3c1.3,1.8,4.3,4.3,5.5,4.9c2.5,1.3,5,2.1,6.8,4
				c1.6,1.7,4.7,5.5,6,7.5c1.2,1.8,1.6,3.7,4.5,5.8c0.5-0.8,0.6-2.6,0.3-3.8c-0.8-0.9-2.1-0.8-2.8-2.1c-0.3-0.6-0.3-1.3-0.8-1.8
				c-3.5-3.5-3.6-8-4.7-9.2c-1.1-1.2-6.8-2.4-6.2-8.3c0.4-3.7,4.1-5.9,2.9-10.4c-0.1-0.5-0.3-1-0.6-1.5c1.4,1.7,3.7,2.8,5.4,3.3
				c-0.3-1.3-0.7-3.6-2.6-4.8c-1.6-1-3.2-0.7-4.7-1c-1.8-1.7-4.2-2.8-6.7-3.2c-3.4-0.5-8.8-1.7-10.3-6.5c-0.9-2.7,2.9-7.1,4.4-10.9
				c0.8-2.1,1.5-4,1.3-5.8c2.6,1.7,4.3,0.8,5.5-1.1c-2-0.6-4-1.2-5.8-0.7c1-0.6,2.5-0.5,3.9-0.8c1.8-0.5,3.6-0.5,5.4-1
				c2-0.5,3.2-2.2,5-3c1.6-0.7,3.7-0.3,5-1.5c1.3-1.2,2.6-3.5,1.9-5.1c-0.3,0.3-0.5,1.8-0.9,2.6c-0.5,0.9-1.3,1.8-2.2,2.1
				c-0.7,0.3-2.2,0.5-2.4,0.3c-0.3-0.2,0.9-0.8,1.7-2.6c0.3-0.6,0.9-2.7,0.5-3.3c-0.3,0.3-0.7,1.7-1,2.5c-0.4,0.9-0.8,1.5-1.6,2.2
				c-0.2,0.2-1.4,1.3-1.2,0.3c0.1-0.7,0.2-1.1,0.5-1.9c0.4-1.2,1.1-2.6,1.2-3.3c-0.8,0.4-1.8,2.5-2.4,3.9c-0.5,1.2-0.4,2.3-1.2,3.2
				c-1.4,1.7-3.3,2.4-5.7,2.6c-2.8,0.3-0.3-4.3,0.1-5.9c0,0,0.1,0,0.1,0c0.8,0,2.1-0.4,2.8-0.7c1.1-0.6,2.8-2.3,3-3.4
				c-0.5,0.1-1.8,1.7-2.6,2.2c-0.8,0.5-1.6,1-2.7,1c-0.7,0-1.4,0-1.5-0.3c-0.1-0.2,0.5-0.7,0.9-1c1.1-0.8,3.8-3.2,3.5-4.1
				c-0.4,0.1-1.1,1.1-2.7,2.3c-1,0.7-3.9,3.6-3.5,0.8c0.3-2.1,3.5-4.4,3.4-4.7c-0.5-0.3-3.2,1.8-3.8,3c-0.7,1.2-0.4,2.7-0.8,3.8
				c-0.5,1.2-1.5,2.3-2.6,3c-1.2,0.8-1.9,0.1-2.3-1.3c-0.3-1.3,0.5-2.7,0.9-3.9c-0.9,0.6-1.8,2.4-1.7,3.9c0.1,1.1,1.2,2.4,0.8,3.6
				c-0.1,0.2-0.2,0.4-0.3,0.6c-0.1-0.1-0.1-0.2-0.2-0.4c-0.4-0.7-0.8-1.4-1-2c-0.4-1.2,0.2-1.8,0.2-2.3c-1.7,1.4-0.8,2.9,0.1,4.9
				c0,0.1,0.1,0.2,0.1,0.3c-0.2-0.4-0.5-0.7-0.8-1.1c-0.1,0.1-0.2,0.2-0.3,0.3c-0.7-1-1.4-2.2-2-3.1c-1.4-1.7-0.3-3.1-0.3-3.5
				c-0.8,0.4-1.2,1.4-1.1,2.2c0.2,1.2,1.2,2.6,1.9,3.7c0.5,0.8,0.7,1.5,0.7,2.3c-1.6,0.2-3.2,1.4-4.9,1.2c-1.1-0.1-2.8-0.5-3.2-0.2
				c-0.3,0.3-1,1.5-0.6,2.2c0.4,0.7,2.6,1.8,3,2c2.1,1.2,2.8,1.5,2.9,3.1c0.1,1.8-5.1,4.3-7,5.4c-1.8,1.1-3.2,3.2-4.1,5.2
				c-0.9,2-0.3,4.9-1,5.4c-2.5-1.4-5.8-3.2-9-3.6C62,460.5,60.5,462.3,60.4,463.1L60.4,463.1z M91.4,440.5c-0.5-0.2-0.8-0.5-1-0.7
				c0.4-0.5,0.9-1,1.2-1.5c0.5-0.8,1.2-1.3,1.9-1.8c1.8-1.2,2-2.6,3-2.8c0.6-0.1,1.3,0.2,2.2,0.3c-0.4,0.3-0.8,0.8-1,1.2
				c-0.3,0.6-0.6,1.3-0.8,1.9c-0.4,1.3-0.1,2.7-1.4,3.2C94.4,440.6,92.5,441.1,91.4,440.5L91.4,440.5z"/>
			<path class="st13" d="M-320.2,170.3c-0.9-1.8-7.1-2.9-9.2-3.3c-3-0.6-5.6-1.5-8.9-2.6c-1.7-0.6-4.7-0.9-6.6-0.2
				c0.4,1,1.6,2.1,2.5,2.6c0.9,0.2,2.5-0.7,3.5-0.4c1.3,0.4,2.4,1.2,3.5,1.3c4.1,0.2,6.3,0.7,10.5,3.4c-2.2,0.8-9.1,0.2-11.4,0.8
				c-1.8,0.5-2,1.8-3.1,1.7c-2.2-0.2-4.4-1.7-9-0.9c-5.3,0.9-6.1,3-8.6,2.4c-1.7-0.4-2.9-2.8-5.7-3.6c-2.1-0.6-6.1-0.8-7.3-0.6
				c-2.8,0.5-5.2,1.3-7.9,1c-2.3-0.3-7.1-1.5-9.3-2.3c-2-0.7-3.5-2-7.1-1.9c0.1,1,1.1,2.5,2,3.2c1.2,0.3,2.2-0.7,3.5-0.1
				c0.6,0.3,1.1,0.9,1.8,1c5,0.7,7.7,4.1,9.3,4.4c1.6,0.3,6.9-2.2,10,2.9c1.9,3.2,0.3,7.2,4,10c0.4,0.3,0.9,0.6,1.4,0.8
				c-2.1-0.5-4.6,0-6.3,0.7c1.1,0.9,2.7,2.4,4.9,2.2c1.9-0.2,3-1.4,4.3-2c2.4,0.3,5-0.3,7.2-1.5c3-1.6,7.9-4,12.1-1.1
				c2.4,1.6,2,7.4,3.1,11.3c0.6,2.2,1.2,4.1,2.5,5.4c-3.1,0.2-3.9,2-3.7,4.2c1.9-0.8,3.9-1.4,5.1-3c-0.4,1.1-1.7,1.9-2.6,3
				c-1.1,1.5-2.6,2.6-3.8,4.1c-1.3,1.6-1.3,3.7-2.2,5.4c-0.8,1.5-2.8,2.4-3.1,4.2c-0.4,1.8,0,4.4,1.6,5.2c0-0.4-0.7-1.8-0.9-2.6
				c-0.1-1-0.1-2.2,0.4-3c0.4-0.6,1.5-1.7,1.7-1.7c0.3,0-0.2,1.1,0.2,3.1c0.1,0.6,0.9,2.7,1.6,3c0.1-0.4-0.5-1.7-0.7-2.6
				c-0.2-0.9-0.2-1.7-0.1-2.8c0.1-0.3,0.3-1.9,0.8-0.9c0.4,0.6,0.5,1,0.7,1.8c0.4,1.2,0.7,2.7,1.1,3.3c0.4-0.8-0.1-3.1-0.5-4.6
				c-0.3-1.2-1.1-2.1-1-3.3c0.1-2.2,1.2-3.9,3-5.5c2.1-1.9,2.9,3.2,3.5,4.8c0,0-0.1,0-0.1,0.1c-0.6,0.5-1.5,1.6-1.8,2.3
				c-0.6,1.1-0.8,3.5-0.3,4.5c0.4-0.4,0.4-2.4,0.7-3.3c0.3-0.9,0.7-1.8,1.6-2.5c0.5-0.4,1.1-0.8,1.3-0.7s0,0.8-0.1,1.3
				c-0.4,1.3-1.1,4.9-0.3,5.4c0.2-0.3,0.2-1.6,0.7-3.5c0.3-1.1,0.9-5.2,2.4-2.8c1.1,1.9-0.1,5.6,0.2,5.8c0.6-0.1,1.4-3.4,1.2-4.7
				c-0.2-1.3-1.3-2.4-1.6-3.5c-0.4-1.3-0.2-2.7,0.3-4c0.5-1.3,1.4-1.3,2.6-0.3c1.1,0.9,1.2,2.5,1.7,3.6c0.3-1,0-3-1-4.1
				c-0.8-0.8-2.4-1.2-2.9-2.3c-0.1-0.2-0.1-0.4-0.1-0.6c0.1,0.1,0.3,0.1,0.4,0.2c0.7,0.3,1.4,0.6,2,1c1,0.7,0.9,1.5,1.3,1.9
				c0.5-2.1-1.1-2.8-3-3.8c-0.1,0-0.2-0.1-0.3-0.1c0.4,0.2,0.8,0.3,1.3,0.4c0-0.2,0-0.3,0.1-0.5c1.1,0.4,2.5,1,3.5,1.2
				c2.1,0.5,2.1,2.3,2.4,2.6c0.4-0.8,0.1-1.9-0.5-2.4c-0.9-0.8-2.5-1.3-3.8-1.8c-0.9-0.4-1.5-0.8-1.9-1.4c1.2-1.1,1.7-3,3.2-3.9
				c0.9-0.6,2.6-1.3,2.7-1.7c0.1-0.5-0.1-1.8-0.9-2.1c-0.8-0.4-3.2,0.2-3.7,0.2c-2.4,0.4-3.1,0.5-4.2-0.7c-1.2-1.4,1.5-6.6,2.3-8.6
				c0.8-2,0.6-4.5,0.1-6.6c-0.5-2.1-2.7-4.1-2.5-4.9c2.8-0.4,6.5-1,9.4-2.6C-319.9,173.2-319.8,170.9-320.2,170.3L-320.2,170.3z
				 M-331.2,207c0.5-0.1,0.9-0.1,1.2,0c-0.1,0.6-0.1,1.3,0,2c0.1,1-0.1,1.7-0.4,2.5c-0.7,2,0,3.3-0.6,4c-0.4,0.5-1.2,0.6-1.9,1.1
				c0.1-0.5,0.1-1.1,0-1.6c-0.1-0.6-0.3-1.4-0.5-2c-0.5-1.3-1.6-2.2-0.8-3.4C-333.6,208.8-332.3,207.2-331.2,207L-331.2,207z"/>
			<path class="st10" d="M-129.6,171.7c-4.2,0-4.3,6.6,0,6.6S-125.4,171.7-129.6,171.7z M-260.3,211.3c-3.4,0-3.4,5.2,0,5.2
				S-257,211.3-260.3,211.3z M-274.5,58.8c-3.2,0-3.2,4.9,0,4.9S-271.3,58.8-274.5,58.8z M-242.6,30.9c-5.3,0-5.4,8.2,0,8.2
				C-237.3,39.2-237.3,30.9-242.6,30.9z M-275.1,19.1c-3.2,0-3.3,5,0,5.1S-271.9,19.1-275.1,19.1z M-337.4-48.2
				c-4.2,0-4.3,6.6,0,6.6S-333.1-48.1-337.4-48.2z M-98.3-67.3c-1.1,0-1.1,1.6,0,1.7S-97.3-67.3-98.3-67.3z M-244.5,57.7
				c-1.4,0-1.4,2.1,0,2.2S-243.1,57.7-244.5,57.7z M-89.7-33.2c-2.6,0-2.7,4.1,0,4.1S-87-33.2-89.7-33.2z M-405.1,87.2
				c-4.3,0-4.4,6.7,0,6.7S-400.8,87.2-405.1,87.2z M-196,693.6c-2.7,0-2.7,4.2,0,4.2C-193.3,697.8-193.3,693.6-196,693.6z
				 M-252.5,543.7c-2.2,0-2.3,3.5,0,3.5C-250.3,547.2-250.2,543.7-252.5,543.7z M-126.5,397c-2.5,0-2.5,3.9,0,3.9
				S-124,397-126.5,397z"/>
			<path class="st14" d="M0.6,260.2c-4.1,0-4.1,6.4,0,6.4S4.7,260.2,0.6,260.2z M89.3,176.9c-2.6,0-2.6,4,0,4
				C91.9,180.9,91.9,176.9,89.3,176.9z M-302.9-3c-2.8,0-2.8,4.3,0,4.3S-300.1-3-302.9-3z M-203.1,657c-3.6,0-3.7,5.6,0,5.7
				C-199.5,662.7-199.4,657-203.1,657z M-404.9,708.5c-2.3,0-3.2,2.7-1.8,4.3c0.2,0.2,0.3,0.4,0.5,0.6c0.6,0.7,1.9,0.7,2.5,0
				c0.2-0.2,0.3-0.4,0.5-0.6C-401.7,711.2-402.6,708.5-404.9,708.5L-404.9,708.5z M-413.5,299.5c-3.8,0-3.9,6,0,6
				C-409.7,305.4-409.7,299.5-413.5,299.5z M-313.5,336.1c-3.6,0-3.7,5.6,0,5.7C-309.9,341.8-309.9,336.1-313.5,336.1z M106.4,62.7
				c-3.5,0-3.5,5.3,0,5.4C109.8,68.1,109.8,62.8,106.4,62.7z"/>
		</g>
	</g>
</g>
</svg>
