<?xml version="1.0" encoding="utf-8"?>
<!-- Generator: Adobe Illustrator 28.0.0, SVG Export Plug-In . SVG Version: 6.00 Build 0)  -->
<svg version="1.1" id="Layer_1" xmlns="http://www.w3.org/2000/svg" xmlns:xlink="http://www.w3.org/1999/xlink" x="0px" y="0px"
	 viewBox="0 0 190 64" style="enable-background:new 0 0 190 64;" xml:space="preserve">
<style type="text/css">
	.st0{fill:#B51F1C;}
	.st1{fill:#FFFFFF;}
</style>
<g>
	<g id="Layer_2_00000092418026752820073820000014484304480455517109_">
		<g id="Layer_1-2">
			<path class="st0" d="M10,0h170c5.5,0,10,4.4,10,9.8v44.3c0,5.4-4.5,9.8-10,9.8H10c-5.5,0-10-4.4-10-9.8V9.8C0,4.4,4.5,0,10,0z"/>
			<g id="Lfxs2f">
				<path class="st1" d="M36.6,33.9c-0.3,0.7,0.1,0.9,0.7,1.2c3.9,2.1,7.8,4.3,11.8,6.4c0.5,0.3,0.8,0.3,1.3-0.1
					c2-1.3,4.6-1.1,6.4,0.5c1.8,1.6,2.2,4.3,1.1,6.4c-1.2,2.1-3.5,3.1-5.9,2.5c-2.3-0.6-4-2.7-3.9-5c0-0.7-0.2-1-0.8-1.3
					c-3.9-2.1-7.8-4.2-11.7-6.4c-0.5-0.3-0.9-0.3-1.4,0.1c-2.2,1.5-5,1-6.8-0.9c-1.7-2-1.7-4.9,0-6.8c1.7-2,4.6-2.4,6.8-1
					c0.5,0.4,0.9,0.4,1.5,0.1c3.9-2.1,7.8-4.3,11.7-6.4c0.5-0.3,0.7-0.5,0.7-1.1c-0.1-2.4,1.6-4.6,3.9-5.2c2.3-0.6,4.7,0.4,5.9,2.5
					c1.2,2.1,0.8,4.8-1,6.4c-1.8,1.6-4.4,1.9-6.4,0.5c-0.5-0.4-0.9-0.3-1.3,0c-3.9,2.1-7.7,4.2-11.6,6.3
					C36.8,32.9,36.3,33.1,36.6,33.9L36.6,33.9z"/>
			</g>
			<path class="st1" d="M83.8,41.7c2.9,0,4.9-2,4.9-3.7c0-2.7-2-3.7-6.4-5.2c-5.1-1.7-6.6-4.3-6.6-7.1c0-3.6,3-6.4,7.7-6.4
				c2.2,0,4.8,0.7,6.9,2.2c0.4,0.3,0.4,0.6,0.2,0.9c-0.2,0.3-0.8,1.1-1.1,1.4c-0.2,0.1-0.5,0.1-0.9,0c-1.7-0.8-3.6-1.5-5.2-1.5
				c-2.5,0-4.5,1.2-4.5,3.4s2.1,3.7,7,5.3c3.1,1,6,2.9,6,6.6c0,3.9-3.3,7.1-8.2,7.1c-3.5,0-6.2-0.9-8-2.2c-0.3-0.3-0.3-0.5-0.1-0.9
				c0.2-0.5,0.9-1.4,1.1-1.6c0.2-0.2,0.4-0.2,0.9,0C79.2,40.9,81.2,41.7,83.8,41.7z"/>
			<path class="st1" d="M107.2,33.8c0-3.2-1.1-4.4-3.9-4.4s-5.1,2.7-5.1,7v7c0,0.7-0.1,0.8-0.5,0.9c-0.3,0-1.4,0-1.7,0
				c-0.4,0-0.6-0.2-0.6-0.9V21.1c0-0.7,0.1-0.8,0.6-0.9c0.3,0,1.4,0,1.7,0c0.4,0,0.6,0.2,0.6,0.9v9.1c1.3-2.1,3.2-3.5,5.9-3.5
				c3.3,0,5.8,1.9,5.8,6.2v10.5c0,0.7-0.1,0.8-0.5,0.9c-0.3,0-1.4,0-1.7,0c-0.4,0-0.6-0.2-0.6-0.9L107.2,33.8L107.2,33.8z"/>
			<path class="st1" d="M128,41.8c-1.7,1.9-3.5,2.9-5.8,2.9c-4.8,0-8.6-4-8.6-9s3.9-9,8.6-9c2.4,0,4.3,1,5.8,2.9v-1.3
				c0-0.9,0.2-1,0.7-1c0.5,0,0.9,0,1.4,0c0.5,0,0.7,0.2,0.7,1v15c0,0.8-0.3,1-0.7,1c-0.4,0-0.9,0-1.4,0c-0.5,0-0.7-0.2-0.7-1V41.8
				L128,41.8z M128.5,35.7c0-3.4-2.7-6.3-6-6.3c-3.6,0-6.2,2.9-6.2,6.3s2.8,6.3,6.2,6.3S128.5,39.1,128.5,35.7L128.5,35.7z"/>
			<path class="st1" d="M144.2,28c0,0.4-0.1,1.1-0.2,1.4c-0.1,0.5-0.3,0.4-1.1,0.5c-2.6,0.2-4.5,2.4-4.5,6.4V43
				c0,0.7-0.1,0.8-0.5,0.9c-0.4,0-1.4,0-1.7,0c-0.4,0-0.6-0.2-0.6-0.9V28.1c0-0.7,0.1-0.8,0.6-0.9c0.3,0,1.4,0,1.7,0
				c0.4,0,0.6,0.2,0.6,0.9v2.6c1-2.1,2.5-3.8,5.2-3.6C144.2,27.1,144.2,27.6,144.2,28L144.2,28z"/>
			<path class="st1" d="M154.3,44.7c-5.5,0-8.7-4-8.7-9s3.5-9,8.6-9c5.5,0,8.8,4.6,8.8,8.9c0,0.5-0.2,1-1,1h-13.5
				c0.4,3,2.6,5.4,5.9,5.4c2,0,3.5-0.6,4.8-1.9c0.4-0.4,0.5-0.5,0.9-0.4c0.2,0.1,1.2,0.6,1.5,0.8c0.4,0.2,0.5,0.4,0.1,0.9
				C160,43.6,157.2,44.7,154.3,44.7L154.3,44.7z M154.1,29.4c-2.8,0-5,2-5.6,4.6h11.4C159.2,31.2,157,29.4,154.1,29.4L154.1,29.4z"
				/>
		</g>
	</g>
</g>
</svg>
